<?xml version="1.0" encoding="UTF-8" standalone="no"?>
<svg width="60px" height="60px" viewBox="0 0 60 60" version="1.1" xmlns="http://www.w3.org/2000/svg" xmlns:xlink="http://www.w3.org/1999/xlink" xmlns:sketch="http://www.bohemiancoding.com/sketch/ns">
    <title>Apple</title>
    <description>Created with Sketch (http://www.bohemiancoding.com/sketch)</description>
    <defs></defs>
    <g id="Page-1" stroke="none" stroke-width="1" fill="none" fill-rule="evenodd" sketch:type="MSPage">
        <g id="Apple" sketch:type="MSArtboardGroup">
            <g sketch:type="MSLayerGroup">
                <path d="M0.112290344,30 C0.112290344,13.4314567 13.3426506,0 29.663129,0 C45.9836073,0 59.2139676,13.4314567 59.2139676,30 C59.2139676,46.5685433 45.9836073,60 29.663129,60 C13.3426506,60 0.112290344,46.5685433 0.112290344,30 Z M0.112290344,30" fill="#333333" sketch:type="MSShapeGroup"></path>
                <path d="M37.5761259,29.4762161 C37.5394908,25.6768913 40.5702924,23.8548067 40.7057346,23.7642796 C39.0027418,21.1855762 36.3500119,20.8323155 35.4046346,20.7914758 C33.1470198,20.5549335 30.9994801,22.1669015 29.8536574,22.1669015 C28.7107792,22.1669015 26.9427267,20.8264562 25.0703746,20.8616709 C22.6096532,20.8995224 20.3407138,22.3422721 19.0736614,24.6227928 C16.516964,29.2135411 18.4189299,36.0146151 20.910794,39.7378269 C22.1284145,41.5601458 23.5803409,43.6072297 25.4866668,43.5341049 C27.3224404,43.4582848 28.0166381,42.3048702 30.2361457,42.3048702 C32.4556532,42.3048702 33.079412,43.5341049 35.0222596,43.4963706 C36.9976655,43.458402 38.2492598,41.6390128 39.4584436,39.8109517 C40.856748,37.696661 41.4324905,35.6496943 41.4664077,35.5445774 C41.4225248,35.5238938 37.6142897,34.0142303 37.5761259,29.4762161 Z M33.9258122,18.3266783 C34.9375516,17.0564281 35.6204814,15.294109 35.4341918,13.5360086 C33.9767729,13.5974147 32.210136,14.5405956 31.164536,15.8079747 C30.2262366,16.9322683 29.4050336,18.7266966 29.6250705,20.4496409 C31.2520752,20.5810663 32.9128838,19.5940574 33.9258122,18.3266783 Z M33.9258122,18.3266783" id="Shape" fill="#FFFFFF" sketch:type="MSShapeGroup"></path>
                <path d="M59.2139676,30 C59.2139676,46.5685433 45.9836073,60 29.663129,60 C23.6102502,60 17.9824147,58.1525134 13.2970341,54.9827754 L47.1572554,5.81941103 C54.4691534,11.2806503 59.2139676,20.0777973 59.2139676,30 Z M59.2139676,30" id="reflec" fill-opacity="0.08" fill="#000000" sketch:type="MSShapeGroup"></path>
            </g>
        </g>
    </g>
</svg>