<?xml version="1.0" encoding="UTF-8" standalone="no"?>
<svg width="60px" height="60px" viewBox="0 0 60 60" version="1.1" xmlns="http://www.w3.org/2000/svg" xmlns:xlink="http://www.w3.org/1999/xlink" xmlns:sketch="http://www.bohemiancoding.com/sketch/ns">
    <title>Blogger</title>
    <description>Created with Sketch (http://www.bohemiancoding.com/sketch)</description>
    <defs></defs>
    <g id="Page-1" stroke="none" stroke-width="1" fill="none" fill-rule="evenodd" sketch:type="MSPage">
        <g id="Blogger" sketch:type="MSArtboardGroup">
            <g sketch:type="MSLayerGroup">
                <path d="M0,30 C0,13.4314567 13.2303603,0 29.5508386,0 C45.8713169,0 59.1016772,13.4314567 59.1016772,30 C59.1016772,46.5685433 45.8713169,60 29.5508386,60 C13.2303603,60 0,46.5685433 0,30 Z M0,30" fill="#FD6007" sketch:type="MSShapeGroup"></path>
                <path d="M16.7213115,25.7187324 L16.7213115,35.2846953 C16.7213115,40.1007676 20.59013,44 25.357231,44 L34.6528836,44 C39.4235118,44 43.2786885,40.1007676 43.2786885,35.2846953 L43.2786885,29.1047012 C43.2786885,28.1422461 42.5151639,27.3610391 41.5616919,27.3610391 L40.1039927,27.3610391 C39.1608946,27.3610391 38.4182736,26.6427969 38.3559778,25.7395098 C38.3458113,20.902291 34.480105,17 29.709788,17 L25.357231,17 C20.59013,17 16.724683,20.9023438 16.7213115,25.7187324 Z M30.7050837,24.3636364 C31.6467199,24.3636364 32.414307,25.1866215 32.414307,26.2046901 C32.414307,27.2186499 31.6467199,28.0454545 30.7050837,28.0454545 L25.6734557,28.0454545 C24.731873,28.0454545 23.9642325,27.2187657 23.9642325,26.2046901 C23.9641258,25.1866215 24.7317663,24.3636364 25.6734557,24.3636364 L30.7050837,24.3636364 Z M35.6282464,32.9545455 C36.5172001,32.9545455 37.242921,33.7715716 37.242921,34.7871338 C37.242921,35.8026348 36.5172001,36.6363636 35.6282464,36.6363636 L25.5683793,36.6363636 C24.6794789,36.6363636 23.9642325,35.8026348 23.9642325,34.7871338 C23.9642325,33.7716328 24.6795852,32.9545455 25.5683793,32.9545455 L35.6282464,32.9545455 Z M35.6282464,32.9545455" id="Shape" fill="#FFFFFF" sketch:type="MSShapeGroup"></path>
                <path d="M59.1016772,30 C59.1016772,46.5685433 45.8713169,60 29.5508386,60 C23.4979598,60 17.8701244,58.1525134 13.1847437,54.9827754 L47.0449651,5.81941103 C54.3568631,11.2806503 59.1016772,20.0777973 59.1016772,30 Z M59.1016772,30" id="reflec" fill-opacity="0.08" fill="#000000" sketch:type="MSShapeGroup"></path>
            </g>
        </g>
    </g>
</svg>