<?xml version="1.0" encoding="UTF-8" standalone="no"?>
<svg width="60px" height="60px" viewBox="0 0 60 60" version="1.1" xmlns="http://www.w3.org/2000/svg" xmlns:xlink="http://www.w3.org/1999/xlink" xmlns:sketch="http://www.bohemiancoding.com/sketch/ns">
    <title>Chrome</title>
    <description>Created with Sketch (http://www.bohemiancoding.com/sketch)</description>
    <defs></defs>
    <g id="Page-1" stroke="none" stroke-width="1" fill="none" fill-rule="evenodd" sketch:type="MSPage">
        <g id="Chrome" sketch:type="MSArtboardGroup">
            <g sketch:type="MSLayerGroup">
                <path d="M0.673742064,30 C0.673742064,13.4314567 13.9041024,0 30.2245807,0 C46.545059,0 59.7754193,13.4314567 59.7754193,30 C59.7754193,46.5685433 46.545059,60 30.2245807,60 C13.9041024,60 0.673742064,46.5685433 0.673742064,30 Z M0.673742064,30" fill="#FFFFFF" sketch:type="MSShapeGroup"></path>
                <path fill="#000000" sketch:type="MSShapeGroup"></path>
                <path d="M25.1712128,30.5665586 C25.1712128,27.4933733 27.5622622,24.9934149 30.5012761,24.9934149 C33.44029,24.9934149 35.8315715,27.4933733 35.8315715,30.5665586 C35.8316295,33.6391979 33.4403481,36.139399 30.5012761,36.139399 C27.5622622,36.139399 25.1712128,33.6391979 25.1712128,30.5665586 Z M25.1712128,30.5665586" id="Path" fill="#125F98" sketch:type="MSShapeGroup"></path>
                <path d="M30.4191743,37.5566629 C28.848215,37.5566629 27.3144481,36.9799781 26.1007914,35.9331975 C25.1162075,35.0838219 24.3823969,33.9660022 23.97798,32.6978537 L18.1017509,22.0526014 C15.9914724,25.4460997 15.242692,29.4924179 15.9938513,33.4719435 C16.7589361,37.5248136 18.9874064,41.0233237 22.2691012,43.3236931 C23.9786763,44.5218337 25.8725889,45.3209784 27.899605,45.6998335 L32.7468631,37.1296395 C32.0009838,37.4133713 31.2198268,37.5566629 30.4191743,37.5566629 Z M30.4191743,37.5566629" id="Path" fill="#44A643" sketch:type="MSShapeGroup"></path>
                <path d="M23.8194625,16.5716083 C21.9091296,17.5643361 20.2305386,18.9718936 18.8899286,20.6932729 L23.8520712,29.6797525 C24.1740961,27.0695652 25.9021223,24.7621586 28.4612629,23.9205482 C29.0786804,23.7176832 29.7210475,23.6096989 30.3679404,23.6001745 L43.8270146,23.6001745 C40.1584257,15.8826926 31.2005633,12.7359202 23.8194625,16.5716083 Z M23.8194625,16.5716083" id="Path" fill="#D11F24" sketch:type="MSShapeGroup"></path>
                <path d="M40.4629278,41.8322961 C43.2194609,39.1716352 44.8934682,35.5508844 45.17656,31.6373627 C45.3384428,29.3960207 45.0207116,27.1011718 44.2573095,24.9934149 L34.5518852,24.9934149 C36.1848125,26.3449176 37.1429381,28.4102694 37.1333644,30.5988932 C37.1264017,32.1746757 36.6096533,33.7232801 35.6733441,34.9666164 L29.4864625,45.9052464 C29.8051221,45.9266006 30.1261606,45.937399 30.4429055,45.937399 C34.1619159,45.937399 37.7207842,44.479368 40.4629278,41.8322961 Z M40.4629278,41.8322961" id="Path" fill="#F4CB08" sketch:type="MSShapeGroup"></path>
                <path d="M59.7754193,30 C59.7754193,46.5685433 46.545059,60 30.2245807,60 C24.1717019,60 18.5438664,58.1525134 13.8584858,54.9827754 L47.7187071,5.81941103 C55.0306051,11.2806503 59.7754193,20.0777973 59.7754193,30 Z M59.7754193,30" id="reflec" fill-opacity="0.08" fill="#000000" sketch:type="MSShapeGroup"></path>
            </g>
        </g>
    </g>
</svg>