<?xml version="1.0" encoding="UTF-8" standalone="no"?>
<svg width="60px" height="60px" viewBox="0 0 60 60" version="1.1" xmlns="http://www.w3.org/2000/svg" xmlns:xlink="http://www.w3.org/1999/xlink" xmlns:sketch="http://www.bohemiancoding.com/sketch/ns">
    <title>CSS3</title>
    <description>Created with Sketch (http://www.bohemiancoding.com/sketch)</description>
    <defs></defs>
    <g id="Page-1" stroke="none" stroke-width="1" fill="none" fill-rule="evenodd" sketch:type="MSPage">
        <g id="CSS3" sketch:type="MSArtboardGroup">
            <g sketch:type="MSLayerGroup">
                <path d="M0.112290344,30 C0.112290344,13.4314567 13.3426506,0 29.663129,0 C45.9836073,0 59.2139676,13.4314567 59.2139676,30 C59.2139676,46.5685433 45.9836073,60 29.663129,60 C13.3426506,60 0.112290344,46.5685433 0.112290344,30 Z M0.112290344,30" fill="#0B6DBB" sketch:type="MSShapeGroup"></path>
                <path d="M20.6820403,21.0135 L19.8239205,25.4598621 L37.2996966,25.4598621 L36.7531571,28.3319483 L19.2663923,28.3319483 L18.4199604,32.7775862 L35.8941881,32.7775862 L34.9196876,37.8482069 L27.8766113,40.2642931 L21.7728715,37.8482069 L22.1906431,35.6488448 L17.8975962,35.6488448 L16.8762437,40.9855345 L26.9715396,44.9865 L38.6098029,40.9855345 L40.1543188,32.9579483 L40.4666984,31.3480345 L42.4500142,21.0135 L20.6820403,21.0135 L20.6820403,21.0135 Z M20.6820403,21.0135" id="Shape" fill="#FFFFFF" sketch:type="MSShapeGroup"></path>
                <path d="M59.2139676,30 C59.2139676,46.5685433 45.9836073,60 29.663129,60 C23.6102502,60 17.9824147,58.1525134 13.2970341,54.9827754 L47.1572554,5.81941103 C54.4691534,11.2806503 59.2139676,20.0777973 59.2139676,30 Z M59.2139676,30" id="reflec" fill-opacity="0.08" fill="#000000" sketch:type="MSShapeGroup"></path>
            </g>
        </g>
    </g>
</svg>