<?xml version="1.0" encoding="UTF-8" standalone="no"?>
<svg width="60px" height="60px" viewBox="0 0 60 60" version="1.1" xmlns="http://www.w3.org/2000/svg" xmlns:xlink="http://www.w3.org/1999/xlink" xmlns:sketch="http://www.bohemiancoding.com/sketch/ns">
    <title>Delicious</title>
    <description>Created with Sketch (http://www.bohemiancoding.com/sketch)</description>
    <defs></defs>
    <g id="Page-1" stroke="none" stroke-width="1" fill="none" fill-rule="evenodd" sketch:type="MSPage">
        <g id="Delicious" sketch:type="MSArtboardGroup">
            <g sketch:type="MSLayerGroup">
                <path d="M0.336871032,30 C0.336871032,13.4314567 13.5672313,0 29.8877097,0 C46.208188,0 59.4385483,13.4314567 59.4385483,30 C59.4385483,46.5685433 46.208188,60 29.8877097,60 C13.5672313,60 0.336871032,46.5685433 0.336871032,30 Z M0.336871032,30" fill="#FFFFFF" sketch:type="MSShapeGroup"></path>
                <path d="M29.5081967,17 L20.9840894,17 C18.639594,17 16.7213115,18.9504063 16.7213115,21.3339766 L16.7213115,30 L16.7213115,38.6662266 C16.7213115,41.051168 18.639594,43 20.9840894,43 L29.5081967,43 L38.0338525,43 C40.3782979,43 42.295082,41.0512188 42.295082,38.6662266 L42.295082,30 L42.295082,21.3339766 C42.295082,18.9504063 40.3782979,17 38.0338525,17 L29.5081967,17 Z M38.0338525,41.6999492 L29.5081967,41.6999492 L29.5081967,30 L18,30 L18,21.3339766 C18,19.6608359 19.338627,18.3 20.9840894,18.3 L29.5081967,18.3 L29.5081967,30 L41.0163934,30 L41.0164434,38.6662266 C41.0164434,40.3389609 39.6784657,41.6999492 38.0338525,41.6999492 Z M38.0338525,41.6999492" id="Shape" fill="#333333" sketch:type="MSShapeGroup"></path>
                <path d="M59.4385483,30 C59.4385483,46.5685433 46.208188,60 29.8877097,60 C23.8348308,60 18.2069954,58.1525134 13.5216148,54.9827754 L47.3818361,5.81941103 C54.6937341,11.2806503 59.4385483,20.0777973 59.4385483,30 Z M59.4385483,30" id="reflec" fill-opacity="0.08" fill="#000000" sketch:type="MSShapeGroup"></path>
            </g>
        </g>
    </g>
</svg>