<?xml version="1.0" encoding="UTF-8" standalone="no"?>
<svg width="60px" height="60px" viewBox="0 0 60 60" version="1.1" xmlns="http://www.w3.org/2000/svg" xmlns:xlink="http://www.w3.org/1999/xlink" xmlns:sketch="http://www.bohemiancoding.com/sketch/ns">
    <title>Dropbox</title>
    <description>Created with Sketch (http://www.bohemiancoding.com/sketch)</description>
    <defs></defs>
    <g id="Page-1" stroke="none" stroke-width="1" fill="none" fill-rule="evenodd" sketch:type="MSPage">
        <g id="Dropbox" sketch:type="MSArtboardGroup">
            <g sketch:type="MSLayerGroup">
                <path d="M0.673742064,30 C0.673742064,13.4314567 13.9041024,0 30.2245807,0 C46.545059,0 59.7754193,13.4314567 59.7754193,30 C59.7754193,46.5685433 46.545059,60 30.2245807,60 C13.9041024,60 0.673742064,46.5685433 0.673742064,30 Z M0.673742064,30" fill="#3D9AE8" sketch:type="MSShapeGroup"></path>
                <path d="M40.4643444,38.5113176 L40.4643444,40.1972642 L30.2008438,46.9556324 L20.1647317,40.1511911 L20.1647317,38.5619774 L23.1664347,40.3675909 L23.5005717,40.5679027 L23.8089487,40.3285006 L30.2929591,35.2775752 L36.7747441,40.3285006 L37.0854139,40.5694773 L37.4203601,40.3653317 L40.4643444,38.5113176 Z M40.4643444,38.5113176" id="Path" fill="#FFFFFF" sketch:type="MSShapeGroup"></path>
                <path d="M37.2842777,15.0443676 L30.2929591,20.9962171 L23.4588973,15.0443676 L12.9951168,21.9638205 L20.2010113,27.5288751 L12.9951168,33.0947512 L20.1647317,37.4059741 L23.4589647,39.3865694 L30.2930265,34.0632446 L37.124863,39.3865694 L40.4643444,37.3522336 L47.4540446,33.0947512 L40.7795324,27.2872138 L47.4540446,21.6407612 L37.2842777,15.0443676 Z M40.1846269,27.0615721 L30.2242435,33.7622976 L20.3257648,27.4313891 L30.3142009,21.3046261 L40.1846269,27.0615721 Z M40.1846269,27.0615721" id="Path" fill="#FFFFFF" sketch:type="MSShapeGroup"></path>
                <path d="M59.7754193,30 C59.7754193,46.5685433 46.545059,60 30.2245807,60 C24.1717019,60 18.5438664,58.1525134 13.8584858,54.9827754 L47.7187071,5.81941103 C55.0306051,11.2806503 59.7754193,20.0777973 59.7754193,30 Z M59.7754193,30" id="reflec" fill-opacity="0.08" fill="#000000" sketch:type="MSShapeGroup"></path>
            </g>
        </g>
    </g>
</svg>