<?xml version="1.0" encoding="UTF-8" standalone="no"?>
<svg width="60px" height="60px" viewBox="0 0 60 60" version="1.1" xmlns="http://www.w3.org/2000/svg" xmlns:xlink="http://www.w3.org/1999/xlink" xmlns:sketch="http://www.bohemiancoding.com/sketch/ns">
    <title>Forrest</title>
    <description>Created with Sketch (http://www.bohemiancoding.com/sketch)</description>
    <defs></defs>
    <g id="Page-1" stroke="none" stroke-width="1" fill="none" fill-rule="evenodd" sketch:type="MSPage">
        <g id="Forrest" sketch:type="MSArtboardGroup">
            <g id="Forrst" sketch:type="MSLayerGroup">
                <path d="M0.883833675,30 C0.883833675,13.4314567 13.9008011,0 29.9580459,0 C46.0152907,0 59.0322581,13.4314567 59.0322581,30 C59.0322581,46.5685433 46.0152907,60 29.9580459,60 C13.9008011,60 0.883833675,46.5685433 0.883833675,30 Z M0.883833675,30" fill="#31723E" sketch:type="MSShapeGroup"></path>
                <path d="M28.5960923,37.4632002 L25.0566264,34.9597584 L25.6115708,34.1113309 L28.5960923,36.2158173 L28.5960923,30.2339347 L31.7688501,30.2339347 L31.7688501,34.0606743 L34.6831898,32.4737385 L35.1789375,33.4146632 L31.7689179,35.2757322 L31.7689179,38.0288186 L37.2312283,35.2059045 L37.6677791,36.1163233 L31.7689857,39.1643932 L31.7689857,45.0467819 L44.5775289,45.0467819 L30.1227997,9.29332223 L15.6680706,45.0467819 L28.5960923,45.0467819 L28.5960923,37.4632002 Z M28.5960923,37.4632002" id="Path" fill="#FFFFFF" sketch:type="MSShapeGroup"></path>
                <path d="M59.0322581,30 C59.0322581,46.5685433 46.0152907,60 29.9580459,60 C24.0027941,60 18.4657302,58.1525134 13.8559203,54.9827754 L47.170009,5.81941103 C54.3639732,11.2806503 59.0322581,20.0777973 59.0322581,30 Z M59.0322581,30" id="reflec" fill-opacity="0.08" fill="#000000" sketch:type="MSShapeGroup"></path>
            </g>
        </g>
    </g>
</svg>