<?xml version="1.0" encoding="UTF-8" standalone="no"?>
<svg width="60px" height="60px" viewBox="0 0 60 60" version="1.1" xmlns="http://www.w3.org/2000/svg" xmlns:xlink="http://www.w3.org/1999/xlink" xmlns:sketch="http://www.bohemiancoding.com/sketch/ns">
    <title>Google +</title>
    <description>Created with Sketch (http://www.bohemiancoding.com/sketch)</description>
    <defs></defs>
    <g id="Page-1" stroke="none" stroke-width="1" fill="none" fill-rule="evenodd" sketch:type="MSPage">
        <g id="Google-+" sketch:type="MSArtboardGroup">
            <g sketch:type="MSLayerGroup">
                <path d="M0.112290344,29.5081967 C0.112290344,13.2112689 13.3426506,0 29.663129,0 C45.9836073,0 59.2139676,13.2112689 59.2139676,29.5081967 C59.2139676,45.8051246 45.9836073,59.0163934 29.663129,59.0163934 C13.3426506,59.0163934 0.112290344,45.8051246 0.112290344,29.5081967 Z M0.112290344,29.5081967" fill="#D34836" sketch:type="MSShapeGroup"></path>
                <path d="M58.2957672,22.7157049 L51.3075915,22.7157049 L51.3075915,30.4692079 L48.0136623,30.4692079 L48.0136623,22.7157049 L40.3278689,22.7157049 L40.3278689,19.488659 L48.0136623,19.488659 L48.0136623,11.8032787 L51.3075915,11.8032787 L51.3075915,19.488659 L57.1752496,19.488659 C57.6086256,20.5353833 57.9835043,21.6124726 58.2957672,22.7157049 Z M58.2957672,22.7157049" id="Shape" fill="#FFFFFF" sketch:type="MSShapeGroup"></path>
                <path d="M8.23033883,48.6050811 C9.05663254,47.2175536 10.3378639,45.8534 12.2359308,44.7323828 C16.5186231,42.1120921 22.2866421,41.7660159 25.4058283,41.5682581 C24.4403659,40.3322719 23.3263708,39.0221265 23.3263708,36.8715105 C23.3263708,35.7096835 23.6729471,35.0175312 24.0195233,34.2017803 C23.2521045,34.2759395 22.5094411,34.3500986 21.8162886,34.3500986 C14.5134319,34.3500986 10.3792723,28.9117593 10.3792723,23.5475791 C10.3792723,20.3834544 11.8398437,16.8683096 14.7857418,14.32465 C18.7218578,11.093782 23.4006372,10.5425321 27.1139542,10.5425321 L41.298825,10.5425321 L36.8923555,13.0169765 L32.6344187,13.0169765 C34.2187673,14.32465 37.5112417,17.0759553 37.5112417,22.3115929 C37.5112417,27.4038561 34.6148544,29.8016694 31.7432226,32.075884 C30.8272711,32.9657941 29.8122978,33.9298633 29.8122978,35.4377665 C29.8122978,36.9456697 30.8272711,37.7861403 31.59469,38.4041334 L34.0702346,40.3322719 C37.1151545,42.8536838 39.8630091,45.2020576 39.8630091,49.9482447 C39.8630091,53.0781792 38.4002529,56.2196603 35.5501811,58.6305302 C34.0167012,58.8801775 32.4435753,59.0119671 30.8404324,59.0162839 C33.7344603,57.7486311 35.2337406,55.4292556 35.2337406,52.6426946 C35.2337406,49.1324938 32.980995,47.2785145 27.7328403,43.5458361 C27.1882205,43.4963966 26.8416442,43.4963966 26.1484917,43.4963966 C25.5296056,43.4963966 21.8162886,43.6199953 18.9199014,44.5840645 C17.4098191,45.1278984 13.0033497,46.78412 13.0033497,51.6786254 C13.0033497,52.2105384 13.0600563,52.7262308 13.1706951,53.2229001 C5.912313,47.8462898 9.05663259,48.6050824 8.23033883,48.6050811 Z M31.4461573,25.4757176 C31.4461573,20.507053 28.5002592,12.8118028 22.781751,12.8118028 C20.9993589,12.8118028 19.068434,13.7066568 17.954439,15.0835455 C16.790933,16.5271774 16.4443567,18.3811567 16.4443567,20.1609769 C16.4443567,24.7835653 19.1179449,32.4219601 25.0592521,32.4219601 C26.7673779,32.4219601 28.6240364,31.5814895 29.7380315,30.4938216 C31.3223801,28.9117593 31.4461573,26.7117038 31.4461573,25.4757176 Z M31.4461573,25.4757176" id="Path" fill="#FFFFFF" sketch:type="MSShapeGroup"></path>
                <path d="M59.2793737,29.6858252 C59.2793737,45.9827531 46.0490134,59.1940219 29.7285351,59.1940219 C23.6756563,59.1940219 18.0478208,57.376822 13.3624402,54.2590469 L47.2226615,5.90163934 C54.5345595,11.2733501 59.2793737,19.9262816 59.2793737,29.6858252 Z M59.2793737,29.6858252" id="reflec" fill-opacity="0.08" fill="#000000" sketch:type="MSShapeGroup"></path>
            </g>
        </g>
    </g>
</svg>