<?xml version="1.0" encoding="UTF-8" standalone="no"?>
<svg width="60px" height="60px" viewBox="0 0 60 60" version="1.1" xmlns="http://www.w3.org/2000/svg" xmlns:xlink="http://www.w3.org/1999/xlink" xmlns:sketch="http://www.bohemiancoding.com/sketch/ns">
    <title>HTML5</title>
    <description>Created with Sketch (http://www.bohemiancoding.com/sketch)</description>
    <defs></defs>
    <g id="Page-1" stroke="none" stroke-width="1" fill="none" fill-rule="evenodd" sketch:type="MSPage">
        <g id="HTML5" sketch:type="MSArtboardGroup">
            <g sketch:type="MSLayerGroup">
                <path d="M0.224580688,30 C0.224580688,13.4314567 13.454941,0 29.7754193,0 C46.0958976,0 59.3262579,13.4314567 59.3262579,30 C59.3262579,46.5685433 46.0958976,60 29.7754193,60 C13.454941,60 0.224580688,46.5685433 0.224580688,30 Z M0.224580688,30" fill="#E24628" sketch:type="MSShapeGroup"></path>
                <path d="M19.5397024,44.0008789 L29.9840257,47 L40.4558792,43.9963672 L42.7868852,17 L17.2131148,17 L19.5397024,44.0008789 Z M25.4707674,25.8308984 L25.7626105,29.2220117 L37.4308961,29.2220117 L36.5516848,39.3883203 L29.9994335,41.2684766 L23.4261664,39.3883203 L22.9778089,34.1877734 L26.1923313,34.1877734 L26.4203338,36.8312891 L29.9851586,37.8249219 L33.5598399,36.8267773 L33.9300252,32.5333203 L22.834663,32.5333203 L21.9710295,22.5196484 L38.0081246,22.5196484 L37.7217762,25.8308984 L25.4707674,25.8308984 Z M25.4707674,25.8308984" fill="#FFFFFF" sketch:type="MSShapeGroup"></path>
                <path d="M59.3262579,30 C59.3262579,46.5685433 46.0958976,60 29.7754193,60 C23.7225405,60 18.0947051,58.1525134 13.4093244,54.9827754 L47.2695458,5.81941103 C54.5814438,11.2806503 59.3262579,20.0777973 59.3262579,30 Z M59.3262579,30" id="reflec" fill-opacity="0.08" fill="#000000" sketch:type="MSShapeGroup"></path>
            </g>
        </g>
    </g>
</svg>