<?xml version="1.0" encoding="UTF-8" standalone="no"?>
<svg width="60px" height="60px" viewBox="0 0 60 60" version="1.1" xmlns="http://www.w3.org/2000/svg" xmlns:xlink="http://www.w3.org/1999/xlink" xmlns:sketch="http://www.bohemiancoding.com/sketch/ns">
    <title>IE</title>
    <description>Created with Sketch (http://www.bohemiancoding.com/sketch)</description>
    <defs></defs>
    <g id="Page-1" stroke="none" stroke-width="1" fill="none" fill-rule="evenodd" sketch:type="MSPage">
        <g id="IE" sketch:type="MSArtboardGroup">
            <g sketch:type="MSLayerGroup">
                <path d="M0.56145172,30 C0.56145172,13.4314567 13.791812,0 30.1122903,0 C46.4327687,0 59.663129,13.4314567 59.663129,30 C59.663129,46.5685433 46.4327687,60 30.1122903,60 C13.791812,60 0.56145172,46.5685433 0.56145172,30 Z M0.56145172,30" fill="#1EBBEE" sketch:type="MSShapeGroup"></path>
                <path d="M43.0933667,24.5437206 C47.6014104,13.9814626 38.2629369,15.5285196 37.7429948,15.6338391 C35.7645478,16.0346222 33.9341647,16.678067 32.2457964,17.4937233 C31.9968236,17.4792063 31.7463385,17.4712362 31.4939288,17.4712362 C25.192896,17.4712362 19.9185495,22.0210356 18.5686522,28.1203116 C21.8897102,24.2632009 24.2139146,22.7068928 25.6057427,22.084085 C25.3835781,22.2896002 25.1660878,22.4973926 24.9521719,22.7067505 C24.8809582,22.7763467 24.8123567,22.8469392 24.7421054,22.9169624 C24.6010529,23.0574358 24.4602753,23.1980514 24.3227972,23.339948 C24.2409978,23.4243459 24.161398,23.5094554 24.0808358,23.5944225 C23.9588928,23.7229407 23.8372247,23.8513165 23.7181686,23.9805463 C23.6336196,24.072345 23.5511328,24.1644284 23.468096,24.2563694 C23.3568762,24.3796216 23.2463439,24.5030161 23.1378737,24.6268376 C23.0535996,24.7230483 22.9707003,24.819259 22.8879385,24.9157544 C22.7851049,25.0355909 22.6832337,25.1554273 22.5827372,25.2755484 C22.4994255,25.3751749 22.4168011,25.4748013 22.3351392,25.5745702 C22.2398669,25.6909908 22.1458319,25.8074115 22.0527592,25.9238322 C21.9704098,26.0268744 21.8883354,26.1297744 21.8077733,26.2326743 C21.7206122,26.3439713 21.6353757,26.455126 21.5502768,26.5661384 C21.46779,26.673735 21.3853031,26.7811893 21.304741,26.8886435 C21.2280282,26.9909742 21.1535151,27.0928779 21.078452,27.1949238 C20.9937656,27.3102059 20.9083917,27.425488 20.8259048,27.5402008 C20.7669267,27.6223215 20.7102858,27.7035882 20.6524075,27.7854243 C20.1284785,28.5255068 19.6497799,29.2513569 19.2174113,29.9486 C19.1004175,30.137321 18.9905725,30.3182143 18.8829271,30.497542 C18.7575471,30.7068999 18.6534762,30.8838081 18.5520174,31.0588661 C18.2684001,31.5486014 18.0154405,32.0028982 17.7876393,32.4302958 C16.5933672,34.6708956 16.0119724,36.2363124 15.9868139,36.3292497 C12.2155153,50.2872054 23.9858385,44.3928754 25.6282891,43.5130311 C27.3968071,44.4174973 29.3877646,44.9265887 31.4939288,44.9265887 C37.2597594,44.9265887 42.1653897,41.1164448 43.9913735,35.7956786 L37.0239845,35.7956786 C35.9930364,37.5987758 34.0082654,38.8200542 31.7280539,38.8200542 C28.3871992,38.8200542 25.6790185,36.1995929 25.6790185,32.966998 L44.6449443,32.966998 C44.7168453,32.3880257 44.7541019,31.7979523 44.7541019,31.1989124 C44.7541019,28.7839663 44.1509856,26.5151865 43.0933667,24.5437206 Z M42.7619071,23.9607634 C41.2533601,21.4491796 38.9837345,19.4789946 36.2861396,18.3960547 C37.513269,17.7824978 40.5522219,16.4847916 42.2770219,17.6901298 C43.4189148,18.4879957 44.3347938,19.7410123 42.7619071,23.9607634 Z M18.9677511,35.7101422 C20.003511,38.7930127 22.0703564,41.3761853 24.7418304,43.0156103 C23.4132423,43.7726293 19.8861047,45.4770962 18.0099413,43.4849934 C17.0799021,42.4975526 16.9154783,40.0925691 18.9677511,35.7101422 Z M31.6421301,23.5557105 C34.8871627,23.5557105 37.528529,26.0712794 37.6345246,29.2130719 L25.6497356,29.2130719 C25.7557312,26.0712794 28.3969601,23.5557105 31.6421301,23.5557105 Z M31.6421301,23.5557105" id="svg" fill="#FFFFFF" sketch:type="MSShapeGroup"></path>
                <path d="M59.663129,30 C59.663129,46.5685433 46.4327687,60 30.1122903,60 C24.0594115,60 18.4315761,58.1525134 13.7461955,54.9827754 L47.6064168,5.81941103 C54.9183148,11.2806503 59.663129,20.0777973 59.663129,30 Z M59.663129,30" id="reflec" fill-opacity="0.08" fill="#000000" sketch:type="MSShapeGroup"></path>
            </g>
        </g>
    </g>
</svg>