<?xml version="1.0" encoding="UTF-8" standalone="no"?>
<svg width="60px" height="60px" viewBox="0 0 60 60" version="1.1" xmlns="http://www.w3.org/2000/svg" xmlns:xlink="http://www.w3.org/1999/xlink" xmlns:sketch="http://www.bohemiancoding.com/sketch/ns">
    <title>jQuery</title>
    <description>Created with Sketch (http://www.bohemiancoding.com/sketch)</description>
    <defs></defs>
    <g id="Page-1" stroke="none" stroke-width="1" fill="none" fill-rule="evenodd" sketch:type="MSPage">
        <g id="jQuery" sketch:type="MSArtboardGroup">
            <g sketch:type="MSLayerGroup">
                <path d="M0.449161376,30 C0.449161376,13.4314567 13.6795217,0 30,0 C46.3204783,0 59.5508386,13.4314567 59.5508386,30 C59.5508386,46.5685433 46.3204783,60 30,60 C13.6795217,60 0.449161376,46.5685433 0.449161376,30 Z M0.449161376,30" fill="#0868AC" sketch:type="MSShapeGroup"></path>
                <path d="M26.7732425,17.7702357 C25.5166438,19.9356393 25.360235,22.6040227 26.0855455,24.9811063 C26.7776308,27.2731342 28.2332667,29.2943268 30.0697376,30.7735289 C30.1087646,30.8055367 30.1485564,30.8367515 30.1883481,30.8687689 C30.3608993,31.0030514 30.5357574,31.1357639 30.715593,31.2622316 C30.7990037,31.3200023 30.883944,31.3769896 30.9688875,31.4331968 C31.0086824,31.4597399 31.0469445,31.4878339 31.0867363,31.5136064 C31.2156905,31.5971369 31.3457825,31.6783235 31.4777896,31.7571695 C31.5034262,31.7727642 31.5298464,31.7868335 31.5550787,31.8016703 C31.6614586,31.8649025 31.7693556,31.9273545 31.8780205,31.9874659 C31.9269993,32.0132288 31.9763574,32.0390109 32.0253331,32.0647515 C32.109891,32.1092491 32.1944521,32.1545268 32.2805427,32.1974608 C32.447734,32.2817747 32.6172416,32.3621811 32.7894197,32.4386865 C32.8261523,32.4558799 32.8640383,32.4706847 32.9015325,32.4870883 C33.0388902,32.5464195 33.1774013,32.6034068 33.317442,32.6580535 C33.3748399,32.6806924 33.4333788,32.7025351 33.4919177,32.7244066 C33.6197121,32.7720282 33.7486569,32.817306 33.8783633,32.8602463 C33.933843,32.8789938 33.988561,32.8977156 34.044423,32.9148866 C34.2269417,32.9734408 34.410592,33.0280875 34.5969315,33.0780497 C38.7923853,34.1888902 42.7239188,32.7658377 44.7540984,29.7829399 C44.7540984,29.7829399 42.5020001,37.4450535 32.7466691,35.7963155 C32.5572546,35.7643077 32.3778139,35.6917065 32.1960726,35.633939 C32.1382985,35.6159814 32.0816654,35.5964665 32.0238913,35.5777287 C31.8960968,35.5340145 31.7694496,35.4902939 31.6431817,35.4426755 C31.5842572,35.42082 31.5245712,35.3989614 31.4656467,35.3763225 C31.3263865,35.3216758 31.1878754,35.263905 31.0508971,35.2045739 C31.0137852,35.1889441 30.9758835,35.1741393 30.9391729,35.1577357 C30.7677502,35.0812335 30.5997784,35.0008206 30.4333363,34.9172934 C30.3147477,34.8587168 30.2343963,34.8149963 30.1540448,34.7720623 C30.1127203,34.7502036 30.0713989,34.7298926 30.0308423,34.7064863 C29.9145105,34.6424707 29.79858,34.5761144 29.6841728,34.5089811 C29.6657987,34.4980774 29.647459,34.4879091 29.6286931,34.4762059 C29.4959243,34.3973599 29.3654562,34.3153898 29.2365114,34.2310792 C29.1974845,34.2068798 29.1607362,34.1795661 29.1221042,34.1537936 C29.0413735,34.0999303 28.9602572,34.0476242 28.8806705,33.9914171 C28.684774,33.8532495 28.5087562,33.7205402 28.3361925,33.5854838 C28.2975479,33.5550396 28.2596838,33.5237865 28.221406,33.4941449 C28.0491996,33.3552067 27.8797139,33.2139055 27.7155693,33.0671396 C27.5453377,32.9140073 27.4018554,32.7766103 27.2606674,32.6368727 C27.2231669,32.5994002 27.1856508,32.562708 27.1489402,32.5244553 C27.0035584,32.3776926 26.8612233,32.2285893 26.7250066,32.0755785 C26.3492807,31.7430298 26.035526,31.2504101 25.7523885,30.8366748 C25.4417024,30.3823301 25.1639217,29.9053466 24.9167456,29.4135263 C23.4428798,26.4800631 23.3403521,22.7671251 25.2297325,19.9934452 M19.1589564,20.5822578 C16.8585877,25.1186696 17.8925468,30.6424951 20.7706876,34.6474685 C20.8747512,34.7932783 20.9810088,34.9368498 21.0897741,35.080741 C21.1233126,35.1242282 21.1571646,35.1673956 21.1910166,35.2096037 C21.2813168,35.326712 21.3739114,35.4430305 21.4672709,35.5577885 C21.5009442,35.5983819 21.5338559,35.638195 21.5679022,35.6795685 C21.6930292,35.8302226 21.8208236,35.979326 21.9516836,36.1253116 C22.0940061,36.2837743 22.2202741,36.419614 22.3488333,36.5538838 C22.3886251,36.5952605 22.4291848,36.6358538 22.4697414,36.6772305 C22.5707583,36.7818395 22.6736809,36.8841046 22.7781362,36.9855895 C22.8183104,37.0254026 22.8581053,37.0644419 22.8990474,37.1042518 C23.0402259,37.2385184 23.1829466,37.3720143 23.3283409,37.502383 C23.5074117,37.6600654 23.6436253,37.7763871 23.7813684,37.8919222 C23.8295793,37.9317385 23.878555,37.9715548 23.9275307,38.0113647 C24.0359825,38.1002575 24.1453746,38.1869121 24.2553936,38.272927 C24.3083657,38.3141759 24.3619647,38.3557445 24.416504,38.3969933 C24.5365532,38.4874849 24.6575428,38.5766975 24.7797861,38.6649508 C24.8211608,38.693729 24.8615951,38.7247456 24.9035967,38.7538436 C25.0302282,38.8427364 25.1587404,38.9293909 25.2878795,39.0144467 C25.3364634,39.0473818 25.3844204,39.0815959 25.4336312,39.1135718 C25.6116676,39.228365 25.7915847,39.3415595 25.9736959,39.4509168 C26.0203992,39.478416 26.0674158,39.5039967 26.1138056,39.5305366 C26.2507808,39.6117553 26.3883829,39.6913751 26.5284926,39.7677973 C26.6046596,39.8109647 26.6827073,39.8499752 26.7595011,39.8912241 C26.8742218,39.9513386 26.9892559,40.013052 27.1055438,40.0709283 C27.1491627,40.0927869 27.19202,40.1130884 27.234871,40.1341605 C27.3829452,40.2067648 27.5317843,40.2770221 27.6821562,40.3464992 C27.7177415,40.3621066 27.7521765,40.3784878 27.7881443,40.394124 C27.9630149,40.4721866 28.140158,40.5471316 28.3184609,40.6189525 C28.3643711,40.6376872 28.4102876,40.6556416 28.4562041,40.6743794 C28.618819,40.7383918 28.7822051,40.8008439 28.9474969,40.860175 C29.2084237,40.9530776 29.3940079,41.0147494 29.5811091,41.0732972 C29.6289376,41.0881531 29.6767629,41.1029579 29.7253594,41.1177947 C29.917062,41.1755655 30.1075986,41.2380175 30.3038838,41.2832953 C35.4879412,42.4862262 40.9594272,41.4057627 44.0418398,37.3090187 C44.0418398,37.3090187 40.3717189,47.4054206 27.7367739,45.054845 C27.5378307,45.0173725 27.347269,44.946335 27.1544254,44.8870039 C27.1088945,44.8737339 27.0633636,44.8588971 27.018215,44.8456271 C26.8288319,44.7855158 26.6405741,44.7238472 26.4542345,44.6574877 C26.2208312,44.5739924 26.0517029,44.5091966 25.8848815,44.4436173 C25.8412625,44.4264495 25.7976436,44.4092561 25.7544071,44.3913177 C25.5741765,44.3187133 25.3955069,44.2429882 25.2183544,44.1641453 C25.1858314,44.1493213 25.1540795,44.1344846 25.1211678,44.1196478 C24.966577,44.0493873 24.8135253,43.9767861 24.661627,43.9026214 C24.6222176,43.8823231 24.5824258,43.8635757 24.5430133,43.8440704 C24.3781039,43.761333 24.282447,43.7090301 24.1860283,43.6575074 C24.111416,43.6184745 24.0356565,43.5802218 23.961809,43.5396285 C23.8252224,43.4639033 23.6905385,43.3866177 23.5566194,43.3077717 C23.506882,43.2788847 23.456756,43.2508036 23.407401,43.2218974 C23.2252898,43.112604 23.0450592,42.9994064 22.8675243,42.8846483 C22.8173983,42.8518603 22.7680402,42.8167412 22.7182997,42.7831666 C22.6027327,42.706658 22.4868022,42.6301558 22.3735422,42.5505296 C22.2943504,42.4943129 22.252258,42.4630949 22.2086422,42.4310807 C22.0892669,42.3459866 21.9710356,42.259332 21.8535723,42.1711203 C21.7969423,42.1273997 21.7406978,42.0836856 21.6844502,42.0399682 C21.578086,41.957218 21.4724834,41.8729041 21.3680281,41.7878132 C21.3156108,41.7448792 21.2628048,41.7027223 21.2107699,41.6597851 C21.0829849,41.5520394 20.9559552,41.442746 20.83122,41.3326723 C20.8074954,41.3115971 20.7826173,41.2913116 20.7585197,41.2694401 C20.6104454,41.1374982 20.4715519,41.0079098 20.3341943,40.8759775 C20.2924874,40.8369446 20.2511629,40.7955678 20.2094591,40.7549745 C20.1065302,40.654273 20.0047548,40.5527849 19.904509,40.4497396 C19.8631876,40.4083629 19.8222424,40.3662059 19.7820714,40.324049 C19.6527316,40.188206 19.5249372,40.0523727 19.400202,39.9134153 C19.2502408,39.7456093 19.1251263,39.5988466 19.0023031,39.4513005 C18.9678681,39.4099238 18.9334268,39.3677733 18.8993805,39.3256163 C18.8079331,39.2132149 18.7180184,39.1007974 18.6296302,38.9875998 C18.5928977,38.9399813 18.5561776,38.8923597 18.5198181,38.8447413 C18.4207195,38.7143662 18.3227681,38.5824339 18.2278759,38.4489444 C18.2102854,38.4239617 18.1911653,38.3997528 18.1739259,38.3747797 C18.0549549,38.2069609 17.9485876,38.0492689 17.8445115,37.8907934 C17.8123709,37.8423948 17.7817693,37.7924326 17.7503872,37.7424703 C17.6750133,37.6253748 17.6011657,37.5082761 17.5292334,37.389617 C17.4921184,37.3287254 17.4565331,37.2678338 17.4205653,37.2069454 C17.3555225,37.0960852 17.2920061,36.9852314 17.2300193,36.8735974 C17.1948195,36.8103651 17.1599958,36.7486901 17.1259495,36.6838975 C17.1068137,36.6495459 17.086164,36.6144012 17.0677899,36.5785084 C17.0352669,36.518397 17.0058125,36.455945 16.9744305,36.3950534 C16.9254548,36.29903 16.8757174,36.2030129 16.8282682,36.1054291 C14.8324985,32.035225 14.5072686,27.0514713 17.1198279,23.2207663 M32.8843244,16.4097055 C31.3434316,19.2494794 32.8103516,22.7364443 35.1718419,24.564183 C35.585902,24.8833019 36.0325603,25.1621311 36.5011598,25.3917176 C36.7478405,25.5125863 37.0017305,25.6193856 37.2593818,25.7130748 C37.4602997,25.7856599 37.6894276,25.8624019 37.8978681,25.9142028 C40.5367568,26.567597 42.6875498,26.116386 43.9674061,24.2365586 C43.5784216,24.8078389 42.1174571,28.6892896 36.7309145,27.6275959 C36.6123009,27.604957 36.4982792,27.5620199 36.3834927,27.5253276 C36.3475218,27.5144335 36.3123157,27.5019309 36.2767398,27.4909952 C36.1952411,27.4628916 36.1148896,27.435597 36.0345382,27.4051241 C34.085384,26.676075 32.4152266,25.1381652 31.6002398,23.1779186 C30.8273485,21.3309944 30.9367719,19.2543238 32.0505967,17.5821475" id="Shape" fill="#FFFFFF" sketch:type="MSShapeGroup"></path>
                <path d="M59.5508386,30 C59.5508386,46.5685433 46.3204783,60 30,60 C23.9471212,60 18.3192858,58.1525134 13.6339051,54.9827754 L47.4941264,5.81941103 C54.8060245,11.2806503 59.5508386,20.0777973 59.5508386,30 Z M59.5508386,30" id="reflec" fill-opacity="0.08" fill="#000000" sketch:type="MSShapeGroup"></path>
            </g>
        </g>
    </g>
</svg>