<?xml version="1.0" encoding="UTF-8" standalone="no"?>
<svg width="60px" height="60px" viewBox="0 0 60 60" version="1.1" xmlns="http://www.w3.org/2000/svg" xmlns:xlink="http://www.w3.org/1999/xlink" xmlns:sketch="http://www.bohemiancoding.com/sketch/ns">
    <title>LastFM</title>
    <description>Created with Sketch (http://www.bohemiancoding.com/sketch)</description>
    <defs></defs>
    <g id="Page-1" stroke="none" stroke-width="1" fill="none" fill-rule="evenodd" sketch:type="MSPage">
        <g id="LastFM" sketch:type="MSArtboardGroup">
            <g sketch:type="MSLayerGroup">
                <path d="M0.56145172,30 C0.56145172,13.4314567 13.791812,0 30.1122903,0 C46.4327687,0 59.663129,13.4314567 59.663129,30 C59.663129,46.5685433 46.4327687,60 30.1122903,60 C13.791812,60 0.56145172,46.5685433 0.56145172,30 Z M0.56145172,30" fill="#E00024" sketch:type="MSShapeGroup"></path>
                <path d="M41.2999948,40.3796268 C37.7140049,40.3652426 35.8033417,38.5701743 34.4755061,35.4070908 L34.095673,34.5439687 L30.8221427,26.9045017 C29.7365019,24.2002681 27.0425717,22.3734719 24.0029658,22.3734719 C19.8901584,22.3734719 16.5534906,25.7888643 16.5534906,30.001583 C16.5534906,34.214164 19.8900911,37.6295563 24.0029658,37.6295563 C26.8719864,37.6295563 29.3666874,35.9691767 30.6118863,33.5345267 L31.9356876,36.6602387 C30.0559544,39.0060369 27.1995075,40.5 24.003033,40.5 C18.337879,40.5 13.7461955,35.8027602 13.7461955,30.0015141 C13.7461955,24.203021 18.337879,19.5 24.0028986,19.5 C28.2780882,19.5 31.7298691,21.8371951 33.4835965,25.9780615 C33.6165952,26.2993321 35.3380479,30.4201019 36.8397635,33.9272366 C37.7698805,36.0980152 38.5630316,37.5376762 41.1347214,37.6266657 C43.6618317,37.7155175 45.3961942,36.1411679 45.3961942,34.1507771 C45.3961942,32.2064983 44.0737377,31.7391143 41.8409325,30.9792283 C37.8274371,29.6256661 35.7556692,28.2663916 35.7556692,25.0087439 C35.7556692,21.8312763 37.8680494,19.7121157 41.2999276,19.7121157 C43.5355568,19.7121157 45.1495616,20.7302295 46.2675443,22.7605383 L44.0736705,23.9075595 C43.2470343,22.7233045 42.3352736,22.2557829 41.1766113,22.2557829 C39.5659012,22.2557829 38.4156438,23.4029417 38.4156438,24.9284263 C38.4156438,27.0936302 40.3081524,27.4205443 42.9544102,28.3094754 C46.5166648,29.4966211 48.172425,30.8530738 48.172425,34.2399042 C48.1725594,37.7958352 45.1913843,40.3853392 41.2999948,40.3796268 L41.2999948,40.3796268 Z M41.2999948,40.3796268" id="Shape" fill="#FFFFFF" sketch:type="MSShapeGroup"></path>
                <path d="M59.663129,30 C59.663129,46.5685433 46.4327687,60 30.1122903,60 C24.0594115,60 18.4315761,58.1525134 13.7461955,54.9827754 L47.6064168,5.81941103 C54.9183148,11.2806503 59.663129,20.0777973 59.663129,30 Z M59.663129,30" id="reflec" fill-opacity="0.08" fill="#000000" sketch:type="MSShapeGroup"></path>
            </g>
        </g>
    </g>
</svg>