<?xml version="1.0" encoding="UTF-8" standalone="no"?>
<svg width="60px" height="60px" viewBox="0 0 60 60" version="1.1" xmlns="http://www.w3.org/2000/svg" xmlns:xlink="http://www.w3.org/1999/xlink" xmlns:sketch="http://www.bohemiancoding.com/sketch/ns">
    <title>NeilOrangePeel</title>
    <description>Created with Sketch (http://www.bohemiancoding.com/sketch)</description>
    <defs></defs>
    <g id="Page-1" stroke="none" stroke-width="1" fill="none" fill-rule="evenodd" sketch:type="MSPage">
        <g id="NeilOrangePeel" sketch:type="MSArtboardGroup">
            <g sketch:type="MSLayerGroup">
                <path d="M0.673742064,30 C0.673742064,13.4314567 13.9041024,0 30.2245807,0 C46.545059,0 59.7754193,13.4314567 59.7754193,30 C59.7754193,46.5685433 46.545059,60 30.2245807,60 C13.9041024,60 0.673742064,46.5685433 0.673742064,30 Z M0.673742064,30" fill="#E18F00" sketch:type="MSShapeGroup"></path>
                <path d="M30.7713215,12.7924173 C30.548484,12.8026056 30.3255519,12.8108881 30.1028444,12.8235575 C29.9557042,12.8319239 29.8088596,12.8459717 29.6619676,12.8586291 C29.5602932,12.867391 29.4587487,12.877819 29.3571925,12.8881032 C29.2594064,12.8980038 29.1615847,12.9077246 29.0639759,12.9192194 C28.8837794,12.9404469 28.7036184,12.9619382 28.5236584,12.9851435 C28.3212195,13.0112494 28.1190643,13.0395369 27.9167437,13.0665058 C27.7781129,13.0849765 27.639352,13.1025723 27.5007094,13.1209951 C27.365825,13.1389264 27.2310233,13.157565 27.0961508,13.1756282 C26.9463042,13.1957171 26.7965404,13.216633 26.6465047,13.2352356 C25.977933,13.3181561 25.3162869,13.4368555 24.6682321,13.6263333 C24.1807077,13.7688732 23.7069874,13.9481269 23.2496002,14.1715497 C22.9466097,14.3195433 22.6434419,14.4673811 22.332663,14.5981266 C22.1930867,14.656847 22.0532031,14.7152318 21.9112985,14.7677553 C21.5230258,14.9114579 21.1730923,15.1210127 20.8652326,15.3994401 C20.3452901,15.8696828 19.7947496,16.3006227 19.2309724,16.7142785 C18.6514175,17.139513 18.0946369,17.5930588 17.5588576,18.073274 C17.2128006,18.383441 16.8855585,18.7129656 16.5881818,19.0719044 C16.2152022,19.5221061 15.8847337,20.0028247 15.5911744,20.5097332 C15.2032917,21.1795341 14.8890263,21.8837474 14.6348462,22.6160324 C14.4904834,23.0319296 14.3680084,23.454683 14.2515609,23.8792462 C14.0682562,24.5476088 13.9081039,25.2217128 13.7677121,25.9007071 C13.6870509,26.290786 13.6104553,26.6816081 13.543019,27.0742521 C13.5041126,27.3007554 13.4665062,27.5274864 13.4279779,27.7540615 C13.4085129,27.8369581 13.397888,27.8479015 13.3818858,27.8513295 C13.1055224,27.8920587 12.9420372,27.9225036 12.7785167,27.9513904 C12.4139519,28.0157802 12.0519162,28.0930912 11.6938752,28.1885613 C11.4711086,28.2479649 11.2472428,28.3029217 11.0220652,28.3518493 C10.8744996,28.3839124 10.7264494,28.4142136 10.5764138,28.4334994 C10.4828586,28.4455335 10.389729,28.4612954 10.2967293,28.477273 C10.2174509,28.4908893 10.1455472,28.5245465 10.0770355,28.5663664 C10.0365572,28.59107 10.0080273,28.6247272 9.9933606,28.6708621 C9.97480558,28.729187 9.95469052,28.7869964 9.93556821,28.8451415 C9.91564224,28.9057437 9.91520496,28.965411 9.94453844,29.023604 C9.99409335,29.1468222 10.002059,29.2289516 9.9709173,29.3124355 C9.90989846,29.4813211 9.90546653,29.5873031 9.93222358,29.6939204 C9.941702,29.7316769 9.94782398,29.768894 9.94614575,29.8073218 C9.9411229,29.9230965 9.96334165,30.0363182 9.97832749,30.1500073 C9.9958543,30.2829343 10.0173758,30.4150582 10.0144211,30.5499988 C10.0122347,30.6496401 10.0146221,30.7494013 10.0151539,30.8490905 C10.0156975,30.9526154 10.0175176,31.0559724 10.0254478,31.1593773 C10.032468,31.2510358 10.0319952,31.3432816 10.0342053,31.4352877 C10.0367226,31.5394837 10.0056636,31.6320772 9.93563912,31.7089806 C9.8456059,31.8078548 9.76825391,31.9167494 9.68902279,32.0242057 C9.61927008,32.1298281 9.60461516,32.1727627 9.60577337,32.2205277 C9.60706159,32.2742019 9.60723887,32.3278881 9.60759342,32.3815743 C9.60794798,32.4353085 9.60363423,32.4879758 9.59199302,32.5411347 C9.57310708,32.6274473 9.57018792,32.7160373 9.57573078,32.8043516 C9.57957179,32.8654813 9.58350735,32.9265629 9.59582221,32.9870453 C9.60339786,33.0242625 9.60524154,33.0632056 9.60528882,33.1013817 C9.60545428,33.2164013 9.60921255,33.3318644 9.60082143,33.4463446 C9.5910239,33.5801106 9.58650924,33.7143201 9.57304799,33.8476666 C9.56104041,33.9666656 9.55935036,34.0845259 9.57596715,34.2030694 C9.5823255,34.2484372 9.58201822,34.2948118 9.58380281,34.3407549 C9.58562286,34.3871775 9.58020999,34.4324733 9.56148951,34.4756956 C9.54136263,34.5221541 9.53405881,34.5712975 9.53707252,34.6217475 C9.54261539,34.7144248 9.53157692,34.8055079 9.50976,34.8950688 C9.49023586,34.9751726 9.48944402,35.0542695 9.51102458,35.1337261 C9.53402335,35.2567524 9.53399971,35.2567524 9.50648628,35.3588869 C9.48165564,35.4504255 9.46375064,35.4624237 9.43916819,35.4656719 C9.46578342,35.5676625 9.4841848,35.5848028 9.48904219,35.6145765 C9.49704331,35.663648 9.50478442,35.7127914 9.5138492,35.7616832 C9.5212712,35.8017291 9.54484908,35.8320302 9.57848449,35.8520351 C9.79847378,35.9463426 9.93130174,35.9732516 10.0687625,35.9734793 C10.170827,35.9736352 10.2725487,35.9681695 10.3736676,35.9516525 C10.4518942,35.9388872 10.530688,35.9296578 10.6092691,35.9191699 C10.7364597,35.9021854 10.8633193,35.883403 10.9894935,35.8593827 C11.093307,35.8396055 11.1974633,35.8190371 11.3042197,35.8254977 C11.4610392,35.9055775 11.5104996,35.9587962 11.5484605,36.0209087 C11.6046456,36.1700411 11.615235,36.2266519 11.6241461,36.2832627 C11.6342627,36.3475088 11.6402311,36.412426 11.648764,36.4769477 C11.7685089,36.5478941 11.8269277,36.5474985 11.8855001,36.5213327 C11.9932611,36.4732081 12.1087986,36.4508897 12.2234615,36.427193 C12.3972405,36.3912944 12.5714214,36.3573734 12.7454486,36.3226973 C12.9231986,36.2872901 13.1008304,36.2512476 13.2787577,36.2168112 C13.5048572,36.1730496 13.7312166,36.1306904 13.9574342,36.0875041 C14.07504,36.0872644 14.0820483,36.0917951 14.0847902,36.0982197 C14.2756115,36.5449215 14.4874224,36.9815788 14.6971178,37.4192909 C14.8044296,37.643301 14.9088932,37.8687375 15.0128486,38.0943898 C15.0450185,38.1641974 15.0832868,38.2295342 15.1265424,38.2927254 C15.5433804,38.9017443 16.0076696,39.471868 16.5026869,40.016557 C17.1230155,40.6991472 17.7718858,41.3529825 18.4409776,41.9862375 C18.7976004,42.3237689 19.1639498,42.6500932 19.5403213,42.9648629 C20.2474212,43.5562141 20.9935222,44.0907867 21.7844035,44.5612811 C22.3877726,44.9202199 23.0011047,45.2595492 23.6369747,45.555956 C24.2385119,45.8363732 24.8543968,46.0783746 25.4896404,46.2688114 C25.7904091,46.3589596 26.0945932,46.4357911 26.3991793,46.5110285 C26.8029578,46.6107777 27.2088991,46.7007461 27.6167196,46.7815571 C27.8910621,46.8359265 28.1659483,46.8876829 28.4424181,46.93021 C28.6702549,46.9652576 28.8978434,47.0021272 29.1260111,47.0349214 C29.2756213,47.0564247 29.4259524,47.0729417 29.5761299,47.0901898 C29.7563618,47.1109139 29.9366292,47.1314104 30.1171329,47.1493537 C30.2450089,47.162083 30.3732277,47.1712884 30.5013992,47.1804938 C30.6446628,47.19079 30.7880565,47.1992523 30.9313793,47.2085895 C30.9539762,47.2100518 32.4710207,47.2255859 32.4710207,47.2255859 C32.6412541,47.1994201 32.7354593,47.1918568 32.8295935,47.1835623 C33.1462935,47.1556824 33.4598142,47.1058558 33.7707113,47.0394762 C33.8741703,47.0173736 33.9759866,46.9874561 34.0788901,46.9625607 C34.1671979,46.9411893 34.2561674,46.9247802 34.3477134,46.924085 C34.4355366,46.9234018 34.5217051,46.9315165 34.6039973,46.9635676 C34.6733245,46.9905485 34.7422263,46.990992 34.8154536,46.9808157 C35.0251844,46.9516892 35.2341825,46.9178882 35.4436416,46.8871196 C35.5670738,46.8689845 35.6908252,46.8528271 35.8146829,46.8380241 C36.1532825,46.7975707 36.4853465,46.727775 36.8121158,46.6277741 C37.6449881,46.3728756 38.4630046,46.0763609 39.2634588,45.7311343 C40.0749278,45.3811492 40.8275053,44.9289818 41.5207422,44.3755429 C41.9012974,44.0717646 42.2723624,43.7569111 42.6230641,43.4178933 C42.9767559,43.0759989 43.3069881,42.7125413 43.6042702,42.3188306 C43.7445911,42.1330205 43.8776673,41.9420084 43.9994095,41.7431573 C44.1051731,41.5704241 44.2176615,41.4023536 44.3316626,41.2352061 C44.4090855,41.1217087 44.4852083,41.0072045 44.558412,40.8908904 C44.6399596,40.7613316 44.707644,40.6244252 44.7556507,40.4779538 C44.7879743,40.3793673 44.8124976,40.2793065 44.8206288,40.175446 C44.8233234,40.1410456 44.8276726,40.1067771 44.8308872,40.0724366 C44.8345864,40.0327743 44.850695,39.9987814 44.8764357,39.9692834 C45.3411385,39.4672653 45.6181402,38.9378468 45.7665803,38.3384528 C45.8586345,37.9667607 45.9399339,37.5924796 46.0175813,37.2174433 C46.1294078,36.677405 46.2411398,36.1373307 46.3510635,35.5968969 C46.4586827,35.0676941 46.5659709,34.5384194 46.6695244,34.0083776 C46.7268086,33.7151951 46.7784081,33.42079 46.8281758,33.1261692 C46.8568829,32.9562408 46.8768207,32.7847782 46.900694,32.6139988 C46.9864726,32.5395165 47.0167279,32.5382939 47.0469478,32.5380782 C47.1906487,32.5371313 47.3343379,32.5366398 47.478027,32.5361604 C47.5725749,32.5358367 47.6670991,32.5359806 47.7616352,32.5355611 C47.9172728,32.5244618 47.9772162,32.48957 48.0120098,32.417521 C48.0403151,32.3589324 48.0650748,32.2990254 48.0767515,32.2343119 C48.0884163,32.1697062 48.1085905,32.1084328 48.1436559,32.0523973 C48.199191,31.9636395 48.2749357,31.9054225 48.3786902,31.8884021 C48.4233995,31.8810665 48.4681797,31.8740666 48.5131018,31.8682772 C48.5992467,31.857166 48.6856044,31.8476969 48.7717021,31.836322 C48.8615107,31.8244437 48.9511894,31.8112589 49.0408799,31.7984097 C49.15299,31.7823362 49.2652066,31.766886 49.3771158,31.7493621 C49.4211278,31.7424701 49.4530141,31.7159446 49.4696073,31.6733576 C49.4955961,31.5895621 49.5049682,31.5602319 49.5178385,31.5326636 C49.5364172,31.4928574 49.5666252,31.4655529 49.60981,31.4534828 C49.653822,31.4411849 49.6981059,31.4329624 49.7439261,31.4328305 C49.9028375,31.4269813 49.9347356,31.4029609 49.954957,31.3618363 C49.973772,31.3236003 49.9856142,31.2834944 49.9869378,31.2406438 C49.9921498,31.0722257 50.0166022,31.0063495 50.0828094,30.9620605 C50.1487565,30.9179513 50.1890576,30.8537771 50.2156964,30.7804216 C50.2365561,30.7229717 50.2556784,30.6647547 50.2727324,30.6060463 C50.2860519,30.5601512 50.2837236,30.515155 50.2519555,30.4753128 C50.1860557,30.3712127 50.1649597,30.310994 50.1611305,30.2439432 C50.1585068,30.1981799 50.1492884,30.1528361 50.1438046,30.1072166 C50.136938,30.0501503 50.1073327,30.0074314 50.0630134,29.9742057 C49.9521324,29.9176308 49.8894117,29.8908417 49.8254028,29.8678401 C49.7204428,29.8555663 49.694513,29.8510475 49.6711479,29.8372993 C49.771085,29.738533 49.8644274,29.7311974 49.9577107,29.7599883 C50.0119221,29.776721 50.0661335,29.7934658 50.1201203,29.8108697 C50.28318,29.7634763 50.3390696,29.7310416 50.3916264,29.6937885 C50.4320693,29.6651535 50.4648183,29.628188 50.4847679,29.5803391 C50.5016683,29.5397658 50.5062893,29.4992764 50.4954163,29.4569532 C50.4650665,29.3629214 50.4677256,29.3274303 50.494329,29.2940966 C50.5355046,29.242496 50.5405157,29.1823493 50.5308245,29.1196375 C50.5031811,28.9950409 50.5039256,28.9503923 50.5169614,28.9048088 C50.5717165,28.7132693 50.6334681,28.524175 50.7111864,28.3409299 C50.7334879,28.2883824 50.7622541,28.2381123 50.7926276,28.1897599 C50.8330941,28.1253461 50.8330232,28.0609802 50.8067625,27.9922993 C50.7861156,27.9382775 50.7602331,27.8873601 50.727295,27.8403262 C50.6701881,27.7587961 50.6043828,27.6847094 50.53372,27.6151534 C50.4833497,27.5655545 50.42408,27.5353853 50.3520108,27.5323767 C50.2665868,27.5288168 50.2013488,27.4876083 50.1540512,27.4160387 C50.1330143,27.3842033 50.1110437,27.3529792 50.0908696,27.3205925 C50.0592079,27.269759 50.062647,27.2187218 50.0950061,27.1697941 C50.1526093,27.0989796 50.167477,27.0815877 50.1816592,27.0636563 C50.21312,26.9634876 50.21338,26.9481453 50.2136873,26.9328149 C50.2153419,26.8520879 50.2457863,26.7839703 50.3020068,26.7275752 C50.3342713,26.6952245 50.3676703,26.6640603 50.4001475,26.6319493 C50.4575617,26.5751826 50.5047529,26.5110445 50.5369583,26.4360708 C50.5582552,26.3864719 50.5720119,26.3354346 50.5754748,26.2809574 C50.5798712,26.2116531 50.5774721,26.1426126 50.5670009,26.0744471 C50.5560924,26.003309 50.5678282,25.9368575 50.5969371,25.8731388 C50.628717,25.8035949 50.6622933,25.734854 50.6966024,25.6665567 C50.7755617,25.5094655 50.8551947,25.35271 50.9350758,25.1960982 C50.9595401,25.1481534 50.9829407,25.1005562 50.9804706,25.0441132 C50.9792415,25.0162333 51.0099932,24.6954106 51.0099932,24.6954106 C50.9685339,24.5141313 50.8962403,24.4133513 50.8057107,24.3226398 C50.6180331,24.2898455 50.5121749,24.288527 50.406305,24.2873284 C50.2842436,24.2827257 50.257593,24.2692772 50.2344051,24.2479657 C50.1944941,24.211276 50.1646878,24.1671188 50.1434618,24.117424 C50.1239495,24.0717566 50.10673,24.0250583 50.0890968,23.9785998 C50.0644198,23.9136226 50.0326044,23.8532481 49.9843141,23.8026783 C49.9118668,23.6947306 49.8515453,23.6752171 49.7858936,23.6691401 C49.7257611,23.6635905 49.6650259,23.6601864 49.6047162,23.6619004 C49.5028408,23.6647891 49.4005164,23.6636024 49.2996456,23.6835115 C49.1714151,23.6912906 49.1109517,23.6928248 49.0513392,23.7049788 C48.8552588,23.7174085 48.6817398,23.7272492 48.5081971,23.7371857 C48.4440936,23.7408535 48.380002,23.7450007 48.3158749,23.7484288 C48.2554706,23.7516651 48.1950782,23.7553688 48.1346266,23.7568311 C48.040126,23.7591085 47.9455781,23.7588688 47.8511011,23.7612181 C47.7868913,23.7628003 47.7227878,23.7683019 47.6585898,23.7697642 C47.5225354,23.7728567 47.386481,23.7746666 47.250403,23.7763926 C47.1114294,23.7637951 47.0419604,23.728304 46.9838843,23.6690082 C46.8980703,23.57886 46.8706514,23.5712128 46.8384933,23.5732984 C46.7665424,23.577961 46.696896,23.5963119 46.626517,23.6096166 C46.4632564,23.6404811 46.3005868,23.6746178 46.1376453,23.7071843 C46.0523986,23.6653165 46.0462648,23.6471694 46.0414428,23.6287226 C45.9881651,23.4250411 45.934651,23.2214195 45.8822124,23.0175102 C45.7763542,22.6058082 45.6597294,22.1974743 45.5189831,21.7964279 C45.2159453,20.932966 44.8215979,20.1158067 44.3174922,19.3541555 C44.1868152,19.1567068 44.0501462,18.9635851 43.9053934,18.7765165 C43.7348409,18.5561022 43.5768395,18.3267702 43.4289076,18.0903064 C43.3357661,17.9414258 43.2448583,17.7910949 43.1537259,17.6409198 C42.9886808,17.3689169 42.8011451,17.1144858 42.5795485,16.8869757 C42.513164,16.8188341 42.4439904,16.7533415 42.3741196,16.6888438 C41.8975273,16.2488903 41.381875,15.8611726 40.8402693,15.5078433 C39.8856075,14.8850523 38.8711205,14.3862705 37.804254,13.9952806 C37.3811759,13.8402271 36.9512903,13.7070244 36.5191355,13.5810015 C36.1705611,13.4793585 35.8213958,13.3801008 35.4686377,13.2940519 C35.1524932,13.2169326 34.834115,13.151464 34.5125576,13.1031476 C34.3593783,13.0801341 34.2049225,13.065487 34.0508921,13.0486224 C33.9306509,13.0354615 33.8101969,13.0240627 33.6897429,13.0131313 C33.5805519,13.0032187 33.4712782,12.994229 33.3619454,12.9862222 C33.2111297,12.9751829 33.0601722,12.9661813 32.9093683,12.9549143 C32.7661282,12.9441986 32.6229946,12.9318049 32.4798372,12.9199625 C32.3856676,12.9121715 32.2915806,12.9030739 32.1973282,12.8963017 C32.0349067,12.8846272 31.8750499,12.8547096 31.7144958,12.8294787 C31.6286227,12.8159822 31.5422295,12.8059018 31.456061,12.7943351 C31.4373405,12.791818 30.9053904,12.7744141 30.9053904,12.7744141 C30.8243511,12.7912187 30.7977595,12.7912067 30.7713215,12.7924173 Z M19.8088136,26.767753 C19.927353,26.327272 20.0687967,25.8946541 20.241902,25.4729795 C20.4915557,24.8648476 20.8048165,24.2933934 21.1983366,23.76823 C21.3493886,23.5666581 21.5048135,23.368682 21.667755,23.1768188 C22.07372,22.6988091 22.5165468,22.2596707 23.0111268,21.8761242 C23.5428995,21.4637269 24.0863489,21.0677148 24.6467579,20.6960467 C25.2009621,20.3285138 25.7711095,19.9890046 26.3645393,19.6903085 C26.6457601,19.5487634 26.931862,19.4187491 27.2273596,19.3107055 C27.6408884,19.1595116 28.0639311,19.0464217 28.4992059,18.9808213 C28.6826288,18.9531691 28.8666072,18.9318576 29.0515665,18.9214776 C29.2933609,18.9078972 29.5355216,18.9078253 29.7773042,18.9215855 C29.9017529,18.9286573 30.0259533,18.9423216 30.1498465,18.9566691 C30.2850263,18.9723111 30.4197807,18.9917047 30.5545942,19.0103433 C30.6931541,19.0295092 30.8315604,19.0497419 30.9700257,19.0694832 C31.1010337,19.0881577 31.2319707,19.1072997 31.3630613,19.125255 C31.5016685,19.1442411 31.6405357,19.1611417 31.7790365,19.1807032 C31.9027406,19.1981671 32.0269765,19.2107765 32.1516025,19.2149597 C32.2953507,19.2197782 32.4386262,19.2303979 32.5816653,19.2436787 C32.7134769,19.2559166 32.843622,19.2768085 32.9688153,19.3253646 C33.3782667,19.4841698 33.7882499,19.6415127 34.1921467,19.8145934 C34.4149842,19.9100995 34.6366872,20.0081346 34.8527882,20.1186834 C35.0557589,20.2225198 35.2499957,20.3406438 35.4304521,20.4815177 C35.5083478,20.5423237 35.5876616,20.6012718 35.6662073,20.6612388 C36.4094127,21.2287375 37.1411542,21.811123 37.8670338,22.4011678 C37.9795812,22.4926584 38.0826148,22.5936901 38.1778127,22.70328 C38.2053025,22.7349355 38.2329696,22.7664712 38.2593839,22.7990497 C38.4467423,23.0302036 38.6436619,23.2529672 38.8377924,23.4781519 C39.0419449,23.7149753 39.2406727,23.9563055 39.4255847,24.2090345 C39.4343068,24.2209608 39.4448134,24.2315326 39.4545046,24.2427637 C39.5253918,24.2463836 39.5934427,24.245113 39.6605835,24.2342176 C39.7168277,24.2250961 39.7730837,24.2204814 39.8298006,24.2184797 C39.8562149,24.2175448 39.8829601,24.2167177 39.9088662,24.2119472 C39.9761843,24.1995654 40.0440815,24.1974319 40.1121442,24.195598 C40.1499397,24.1945792 40.1881016,24.1944833 40.2253298,24.1888138 C40.3230569,24.173915 40.4213867,24.1757489 40.5196101,24.1728362 C40.6027295,24.170391 40.6858017,24.1662918 40.7688856,24.1621206 C40.8254725,24.1592798 40.8819649,24.1546052 40.9385518,24.1515847 C41.0102782,24.1477491 41.0823591,24.1477371 41.1537191,24.1404855 C41.2139698,24.1343725 41.2740431,24.1288948 41.3345774,24.1272167 C41.3646082,24.1263897 41.3946271,24.1218229 41.424457,24.1174839 C41.4431893,24.1147631 41.4577024,24.0913061 41.4516513,24.0744535 C41.4348691,24.0276713 41.4180041,23.9808772 41.3998982,23.9346105 C41.2827297,23.6351952 41.1497245,23.3428637 41.0164474,23.0506281 C40.8831704,22.7584045 40.7487115,22.4666963 40.6197127,22.172531 C40.5014215,21.9028175 40.3816884,21.6338591 40.2528905,21.3691318 C40.0236356,20.8979183 39.7814512,20.4339564 39.5041304,19.9894242 C39.3626395,19.7626572 39.2266914,19.5323304 39.0884861,19.3034658 C39.0133914,19.179109 38.933983,19.0577966 38.8467981,18.9417702 C38.6712581,18.7081831 38.4683347,18.5036386 38.2275331,18.3390321 C38.1899148,18.3133097 38.1531239,18.2863527 38.1156829,18.2603666 C37.7441097,18.0024356 37.3624554,17.761465 36.9620687,17.5516825 C36.5308831,17.3257546 36.0833289,17.1423177 35.6150923,17.0114284 C35.1123221,16.8708902 34.6068573,16.7410317 34.099667,16.6181492 C33.6659995,16.5130781 33.2321902,16.4086423 32.7983336,16.3043984 C32.371639,16.2018804 31.9438808,16.1047322 31.5074714,16.0538268 C31.3647632,16.037178 31.2218186,16.0225788 31.0780349,16.0184316 C30.6919959,16.0072964 30.3068078,16.0280085 29.9216906,16.0499553 C29.8160097,16.0559723 29.7103643,16.0638473 29.6049789,16.0738558 C29.4130348,16.0920748 29.2211736,16.1114085 29.0295014,16.1323844 C28.8754356,16.149249 28.7213934,16.1669646 28.567895,16.1883959 C28.3881949,16.213495 28.2089676,16.242142 28.0297757,16.270849 C27.771459,16.3122134 27.5195362,16.3786529 27.2747517,16.4725168 C27.2182003,16.4941999 27.1613061,16.5149839 27.1043646,16.5355882 C26.9749286,16.5824063 26.8411551,16.604389 26.7039898,16.6059472 C26.6548367,16.6064986 26.6056364,16.6050722 26.5565069,16.6064746 C26.4695938,16.6089557 26.3825034,16.6100824 26.2958739,16.6168427 C26.1080072,16.6315018 25.9328927,16.6875852 25.7738632,16.7918532 C25.7484653,16.808502 25.7235401,16.8259539 25.6977167,16.8418836 C25.5804655,16.9142443 25.4569151,16.9693569 25.3194661,16.9895176 C25.2710221,16.9966255 25.2234763,17.0105534 25.1758596,17.0227074 C24.9582932,17.0781556 24.7534552,17.1663021 24.5555664,17.2721643 C24.4250431,17.3419839 24.2993299,17.420086 24.174633,17.4999021 C23.4681122,17.9522254 22.7623831,18.4058312 22.0546922,18.8562846 C21.7953946,19.0213466 21.5716707,19.2245607 21.3838632,19.4688155 C21.2999519,19.5779498 21.2089732,19.680312 21.1113643,19.7768249 C20.9542967,19.9321421 20.7958462,20.0858651 20.6256719,20.226691 C20.51706,20.3165755 20.4175602,20.416073 20.324856,20.522882 C20.1648573,20.7072298 20.0114061,20.8968875 19.866216,21.0934252 C19.4358459,21.6759906 19.0811613,22.3033723 18.7889611,22.9675278 C18.6102892,23.3736323 18.4486241,23.7869165 18.28742,24.2003925 C18.1179075,24.6352159 17.9524487,25.0717174 17.7707749,25.5015546 C17.5855674,25.9397701 17.4449156,26.3922492 17.3427212,26.8572659 C17.3254662,26.9358115 17.3100667,27.0148125 17.2951163,27.0938376 C17.2901644,27.1200274 17.2888407,27.1469724 17.286737,27.1736297 C17.285307,27.1916689 17.3050675,27.2085455 17.3244025,27.2068075 C17.5289214,27.1711965 17.6992967,27.1369759 17.8713384,27.1123323 C18.0096265,27.0925191 18.1477255,27.0714114 18.2860491,27.0518739 C18.3645829,27.0407866 18.4434476,27.0321925 18.5220287,27.0215488 C18.5818894,27.0134341 18.6415845,27.0040849 18.7012915,26.9948795 C18.7759135,26.9833727 18.8503935,26.9708591 18.9250864,26.9597959 C19.0483532,26.9415409 19.1718445,26.9247962 19.2950641,26.9061217 C19.4331867,26.8852057 19.5710848,26.8627196 19.7091365,26.8412763 C19.7393564,26.8365777 19.768938,26.8311719 19.7964633,26.8077869 C19.7999143,26.7966876 19.8048899,26.7823641 19.8088136,26.767753 Z M20.4988122,35.0941836 C20.363987,35.1119951 20.2293035,35.1304658 20.0936391,35.1405462 C20.0230473,35.1552053 19.9740242,35.1576745 19.9248711,35.1601317 C19.894734,35.1616419 19.8647741,35.1665203 19.8347316,35.1699124 C19.800978,35.173712 19.7673071,35.1793216 19.7334471,35.1810596 C19.6201788,35.1868489 19.508435,35.2100782 19.3947648,35.2109771 C19.2748544,35.2260917 19.1773756,35.2378142 19.0800031,35.2503398 C19.0275763,35.2570761 18.9753504,35.2653346 18.9229945,35.2725862 C18.8444488,35.2834937 18.7656786,35.2929388 18.6873339,35.3051527 C18.5679554,35.3237553 18.4489551,35.344851 18.3295884,35.3635974 C18.2587247,35.3747206 18.1873411,35.3824757 18.116442,35.3934071 C18.064287,35.4014618 18.0124748,35.4118898 17.9606271,35.4219343 C17.9464803,35.4246791 17.9340827,35.4449957 17.9384792,35.4572097 C17.9501441,35.4895484 17.9613007,35.5221629 17.9748329,35.5537106 C18.2963311,36.3028242 18.7041871,36.9999297 19.1989798,37.6447514 C19.3941975,37.8991585 19.6027701,38.1420589 19.8147347,38.3820226 C20.0922918,38.6962169 20.3723308,39.0081578 20.6489897,39.3231672 C20.9660442,39.6841556 21.2692948,40.0565909 21.5465564,40.4503735 C21.6880828,40.6513582 21.8581153,40.8254458 22.0471402,40.9806791 C22.2003078,41.1064503 22.3646674,41.215309 22.5347709,41.315993 C22.9983628,41.5904171 23.4615411,41.8655484 23.9241639,42.1416146 C24.3020836,42.367135 24.6787742,42.5947769 25.0563629,42.8208367 C25.4466684,43.0545077 25.8613554,43.2237528 26.3059787,43.3195945 C26.7496683,43.4152324 27.1947288,43.5020605 27.6430394,43.5722397 C27.9120045,43.6143592 28.1812768,43.6536619 28.4516602,43.6850778 C28.5342714,43.6946787 28.6167408,43.7055382 28.6993638,43.7149714 C28.8045247,43.7269935 28.9097092,43.7390756 29.0150355,43.7494317 C29.1316722,43.7609025 29.2485215,43.7701318 29.3652173,43.7809794 C29.5686016,43.7998576 29.7723641,43.8128027 29.9765402,43.816866 C30.1844983,43.8210253 30.3922791,43.8185561 30.6000008,43.8023388 C30.7207148,43.7929296 30.8411333,43.7815068 30.9610555,43.7660086 C31.1147313,43.7461475 31.2677452,43.7209884 31.4211137,43.6986342 C31.6607335,43.6637064 31.9011806,43.6377682 32.1433177,43.6294618 C32.2302308,43.6264892 32.3170494,43.6207238 32.4039389,43.6168523 C32.6085406,43.6077308 32.8096794,43.5745051 33.0093999,43.5301441 C33.2127961,43.4849561 33.4108148,43.4214293 33.6075098,43.3531559 C34.0369345,43.2041075 34.4725993,43.0779527 34.9172226,42.9843405 C35.1503895,42.935257 35.3818545,42.8792335 35.609124,42.8064053 C35.9565047,42.6950535 36.2894078,42.5507276 36.599064,42.3547053 C36.8878014,42.1719277 37.1827199,42.0000935 37.4810184,41.8340487 C37.5903631,41.7731947 37.6998613,41.7124606 37.807445,41.6485262 C38.210479,41.4090659 38.5825367,41.1279775 38.9162553,40.7956481 C39.0187688,40.6935376 39.122606,40.5927936 39.2254269,40.4909948 C39.5285001,40.1909562 39.8327079,39.8922001 40.1501997,39.6075997 C40.3264842,39.4495737 40.48029,39.270332 40.6173017,39.0762514 C40.778624,38.8477105 40.9107429,38.6025568 41.0217776,38.3455007 C41.2097978,37.9101858 41.3983027,37.4750747 41.5845502,37.0389807 C41.7467707,36.659186 41.908164,36.2790436 42.0536495,35.892117 C42.2801153,35.2898703 42.4728748,34.6769199 42.627827,34.0518275 C42.7190775,33.6837313 42.7944322,33.312159 42.8593511,32.9384053 C42.8698459,32.8780428 42.8790053,32.8173687 42.8868764,32.7565986 C42.8935302,32.7051898 42.882539,32.6920409 42.8344377,32.6929279 C42.6983361,32.695421 42.562258,32.6987053 42.4261682,32.7022652 C42.3997657,32.7029604 42.3734223,32.7065203 42.3470198,32.7082822 C42.2942502,32.7118182 42.2414807,32.7166126 42.1886639,32.718015 C42.0714954,32.7211314 41.9546579,32.7265732 41.8376903,32.7364258 C41.7135608,32.7468778 41.5887576,32.7485199 41.4646871,32.7635626 C41.4085375,32.7703588 41.3520097,32.773607 41.2957182,32.7815898 C41.2023049,32.7948226 41.108017,32.8017986 41.0142846,32.8128978 C40.9806965,32.8168892 40.9475338,32.824896 40.9143002,32.8317401 C40.8757365,32.8702518 40.8719901,32.8811592 40.8677236,32.891803 C40.7553771,33.1728794 40.62262,33.4438874 40.4752081,33.7076078 C39.9681241,34.6148554 39.4455225,35.5128376 38.9094006,36.4027532 C38.7849992,36.6092754 38.6453283,36.8046745 38.4928108,36.9907722 C38.301505,37.2241436 38.0939842,37.441825 37.8745267,37.6478438 C37.4801675,38.0180616 37.0673005,38.3659252 36.6393886,38.6954858 C36.1905107,39.0411798 35.7273798,39.3663894 35.2564249,39.6800923 C34.7223948,40.0358068 34.186592,40.3887525 33.6512619,40.7424533 C33.5974523,40.7780044 33.54252,40.8120092 33.4865358,40.8439405 C33.271203,40.966811 33.0444654,41.0601596 32.8025528,41.114505 C32.6655175,41.1452976 32.5268157,41.1619224 32.3869321,41.1680354 C32.3432156,41.1699532 32.3074646,41.1818794 32.2737229,41.2112336 C32.1659028,41.3049418 32.0406151,41.3661913 31.9056243,41.4090419 C31.8224931,41.4354355 31.7379555,41.4553207 31.6526851,41.4723291 C31.5488833,41.4930412 31.4446088,41.5114041 31.3411616,41.5337584 C31.2118556,41.5616982 31.082195,41.5889788 30.9544608,41.6233552 C30.8216801,41.6590621 30.6873039,41.6745483 30.5507413,41.6759027 C30.3314375,41.6780722 30.1121455,41.6802537 29.8928417,41.6811527 C29.5899812,41.6823992 29.2881962,41.66092 28.9873212,41.628785 C28.7090431,41.5990592 28.4330224,41.5528764 28.160039,41.4899248 C27.9978776,41.4525399 27.8369807,41.4100608 27.6810831,41.3502256 C27.4372086,41.2566134 27.1943033,41.1605919 26.9541399,41.0575106 C26.4766021,40.8525466 26.0126084,40.6205177 25.5689425,40.3475799 C25.439601,40.2680035 25.311855,40.1860418 25.1895218,40.0956299 C25.0578403,39.9983259 24.932387,39.8936145 24.8208205,39.7728295 C24.7015129,39.6436782 24.5711787,39.5271723 24.4311532,39.4219215 C24.324846,39.3420215 24.2183141,39.2623013 24.1095604,39.1859252 C23.8569876,39.0085174 23.624518,38.8071133 23.4046587,38.5899473 C23.119845,38.3086311 22.8543191,38.0095754 22.6013444,37.6988091 C22.329212,37.364526 22.0727509,37.0179929 21.8185943,36.669614 C21.4625743,36.1816197 21.1449998,35.6694374 20.8709054,35.1296388 C20.860777,35.1096338 20.8498213,35.0899644 20.8400356,35.0716016 C20.6789851,35.0746341 20.5886209,35.0823172 20.4988122,35.0941836 Z M30.4160106,38.8546745 C30.5906996,38.8679073 30.7632732,38.8503475 30.9342512,38.8131783 C31.1047801,38.776105 31.2693407,38.7198058 31.4312185,38.6550323 C31.7475757,38.5284581 32.0634247,38.4006012 32.379841,38.2742067 C32.8163686,38.0998075 33.2421768,37.9021311 33.6542992,37.6744292 C34.5624907,37.1726269 35.3680742,36.5389763 36.0559573,35.7537723 C36.1941863,35.5959979 36.3278652,35.4345797 36.4487446,35.2625897 C36.6162835,35.0242201 36.7553516,34.7705801 36.8578652,34.49618 C36.9006599,34.3816399 36.9498484,34.2692572 37.0016607,34.1585647 C37.0794618,33.992388 37.1620611,33.8285246 37.2427459,33.6637383 C37.2981983,33.5504567 37.354147,33.4374029 37.4092448,33.3239295 C37.424077,33.2933887 37.4087838,33.2709984 37.3742148,33.2733837 C37.3404139,33.275721 37.3066721,33.2803597 37.2731431,33.2856096 C37.1687504,33.3019228 37.0652087,33.3219278 36.9586296,33.3237377 C36.8605834,33.3254038 36.7626909,33.3374739 36.6647511,33.345169 C36.5222556,33.3622134 36.4134546,33.3745832 36.3047246,33.3873964 C36.2146914,33.3980162 36.1247409,33.4092113 36.0347313,33.4200349 C35.9972667,33.4245417 35.9598021,33.4290485 35.9222784,33.432944 C35.8922003,33.4360724 35.8615787,33.4358207 35.8320088,33.4414542 C35.7759419,33.4521339 35.7194023,33.4534164 35.6628035,33.4569763 C35.5421368,33.4645636 35.421151,33.4706406 35.3011697,33.4850001 C35.1437711,33.5038424 34.9871053,33.5285459 34.8315622,33.5610405 C34.7207639,33.5841739 34.6082874,33.5994923 34.496189,33.6156257 C34.3878017,33.6312317 34.2790126,33.6439851 34.1702707,33.6568822 C34.0840075,33.6671184 33.9975908,33.6759882 33.9111858,33.6849299 C33.8135179,33.6950463 33.7154599,33.7020342 33.6181701,33.7149793 C33.483333,33.7329227 33.3482359,33.7467308 33.2127133,33.7582975 C33.1110862,33.7669755 33.0094236,33.7755216 32.907891,33.7849668 C32.8402183,33.7912475 32.7728411,33.8008964 32.7048139,33.8039169 C32.6859753,33.804744 32.6672548,33.808184 32.6484634,33.8102696 C32.6034468,33.8152439 32.5584184,33.8201582 32.5133899,33.8250246 C32.4758071,33.8290999 32.438248,33.8331992 32.4006534,33.8370947 C32.370599,33.8402112 32.3405682,33.8450536 32.3104547,33.8456889 C32.1479033,33.8490809 31.9853282,33.8514063 31.8227649,33.8540912 C31.7887513,33.8546545 31.754525,33.8529645 31.7207359,33.8561168 C31.5740567,33.8697931 31.4274957,33.8848358 31.2808874,33.899459 C31.1609888,33.9145855 31.0636045,33.9271591 30.9659838,33.9375391 C30.8608348,33.9487342 30.7551657,33.9553746 30.650253,33.9684515 C30.5228143,33.9843332 30.3952337,33.9981893 30.2674641,34.0111224 C30.1848292,34.0194888 30.1023244,34.0295092 30.0196541,34.0379835 C29.9596043,34.0441444 29.8994719,34.0507008 29.8395167,34.0578806 C29.7569764,34.0677572 29.6743179,34.0759917 29.5916594,34.0845978 C29.4940387,34.0947741 29.3970326,34.1115188 29.2992937,34.120053 C29.175046,34.1308885 29.0504201,34.1384039 28.9258178,34.1435699 C28.7936753,34.1490356 28.6610128,34.1440734 28.529934,34.1673985 C28.442359,34.1657084 28.3560604,34.1814224 28.2714755,34.1990181 C28.0966092,34.2353962 27.9190719,34.2434629 27.742421,34.2574868 C27.6067094,34.2682624 27.4717541,34.2819267 27.3370352,34.3009727 C27.2547903,34.3125993 27.1721791,34.3237106 27.0893552,34.328493 C26.9685584,34.335469 26.8491917,34.3582068 26.728005,34.359765 C26.7130073,34.3599688 26.6981042,34.3642719 26.6830711,34.365854 C26.649282,34.3694139 26.6154694,34.3729379 26.5816094,34.3755988 C26.4535561,34.3856672 26.3254555,34.3951963 26.1974141,34.4054205 C26.1786227,34.4069307 26.1601031,34.4115694 26.1413472,34.4139547 C26.1188684,34.4167954 26.0962951,34.418905 26.0737218,34.4210984 C25.9684664,34.4312867 25.8628446,34.4386343 25.7580146,34.4522386 C25.6381752,34.4677847 25.5186666,34.4855243 25.3980708,34.49449 C25.3830259,34.4956167 25.3680991,34.4985413 25.3530778,34.5002313 C25.308073,34.5053255 25.2630683,34.5103237 25.2180398,34.5151422 C25.1917319,34.5179589 25.165353,34.5201884 25.1390451,34.5230651 C25.0940166,34.5279914 25.0490355,34.5332893 25.0040189,34.5382995 C24.9777227,34.5412242 24.9513793,34.5436813 24.925095,34.5467378 C24.8238224,34.5584963 24.7226562,34.5712256 24.621289,34.5820731 C24.5198864,34.5929206 24.4179875,34.5994411 24.3168803,34.6124821 C24.193259,34.6284238 24.0691294,34.6398826 23.9456144,34.656028 C23.8669033,34.6663122 23.787944,34.6736357 23.7092683,34.6836562 C23.6231234,34.6946236 23.5373212,34.7083837 23.4511526,34.7191833 C23.3087871,34.7369948 23.1662326,34.75332 23.0237962,34.7705921 C22.9725631,34.783681 22.9602837,34.8091997 22.9695375,34.8237509 C22.9818169,34.8430487 22.9942145,34.8623465 23.0076994,34.8807693 C23.1542368,35.0808549 23.2998642,35.2816358 23.4480325,35.4804749 C23.5871716,35.6671839 23.7348672,35.8468811 23.8917694,36.0186314 C24.1315901,36.2811531 24.391845,36.5202299 24.6855225,36.7197402 C24.783415,36.7862517 24.8738855,36.86065 24.9587423,36.943175 C25.0105309,36.993541 25.0634895,37.0433078 25.1202182,37.0877046 C25.3238625,37.2471211 25.5335697,37.3978836 25.7558282,37.5298636 C25.860209,37.5918563 25.9648972,37.6533215 26.0700226,37.7140076 C26.3623529,37.8827494 26.6614433,38.039457 26.9455951,38.2227859 C27.0417503,38.2848145 27.1466748,38.3280608 27.2561731,38.3607471 C27.4265247,38.4115806 27.5960964,38.465111 27.7662825,38.5165318 C28.0850153,38.6128529 28.4049062,38.7046912 28.7321246,38.7675228 C28.9888339,38.8168221 29.2470206,38.8529845 29.5088828,38.8526009 C29.6677114,38.8523492 29.8264927,38.8483458 29.96757,38.8462962 C30.1290223,38.8403031 30.2725224,38.843803 30.4160106,38.8546745 Z M29.553403,21.3188018 C29.1870536,21.3772345 28.8268262,21.462816 28.4732643,21.5768287 C28.1163934,21.6919083 27.7670744,21.8277119 27.4253311,21.982274 C26.9628974,22.1914212 26.5032174,22.4068133 26.0425919,22.6200837 C26.0117929,22.6343473 25.9819631,22.6515355 25.9535514,22.67027 C25.4962352,22.9717949 25.0642341,23.3068571 24.6585409,23.6767753 C24.1766067,24.1162134 23.7359663,24.595158 23.3290086,25.1062257 C23.0695928,25.4319987 22.8364023,25.7760266 22.6340225,26.1412462 C22.615503,26.1746517 22.5973616,26.208297 22.5801775,26.2424097 C22.5645417,26.273442 22.5793384,26.293423 22.6150421,26.2909658 C22.7938203,26.2619592 22.9385258,26.2345827 23.083515,26.2088004 C23.2359262,26.1816996 23.3885619,26.1559293 23.5411386,26.1297994 C23.6528114,26.1106694 23.7645552,26.0920428 23.8762281,26.0729608 C23.9841781,26.054514 24.0918209,26.0340536 24.2000546,26.0175486 C24.3754645,25.9908074 24.5512763,25.9666552 24.7268872,25.9412324 C24.7866887,25.9325664 24.8464194,25.9235768 24.9061382,25.9143474 C25.0329978,25.894738 25.1597747,25.8745292 25.2866934,25.8551955 C25.4098775,25.8364371 25.5332388,25.8188413 25.6564229,25.800059 C25.7833298,25.7807012 25.9099412,25.7594138 26.0369781,25.7410269 C26.1677615,25.7220887 26.2989349,25.7059433 26.4298482,25.687964 C26.4934435,25.6792261 26.5568615,25.6692296 26.6203268,25.6595927 C26.6949605,25.6482657 26.769476,25.6360757 26.8442043,25.625408 C26.9451105,25.6110126 27.0460995,25.5972285 27.147183,25.5841275 C27.2295579,25.5734478 27.3120863,25.5640866 27.3945675,25.5542819 C27.4770606,25.5444772 27.5596481,25.5353437 27.6420821,25.5250236 C27.7095065,25.5165733 27.7768246,25.5071761 27.8440955,25.4975033 C27.9188237,25.4867636 27.9933747,25.4746576 28.0681385,25.4641816 C28.1466605,25.4531783 28.2255134,25.4445482 28.3039291,25.4328377 C28.4308833,25.4138755 28.5575301,25.3928757 28.6844252,25.3734581 C28.744144,25.3643246 28.8040401,25.3563538 28.8639598,25.3487785 C28.9463701,25.3383505 29.0290523,25.33008 29.1112971,25.3185972 C29.2384876,25.3008576 29.3659736,25.2868697 29.4938142,25.2746918 C29.584072,25.2660857 29.6740815,25.2553341 29.7647057,25.250995 C29.9253425,25.2272384 30.0522258,25.2077608 30.1791445,25.188523 C30.2351405,25.1800367 30.2910419,25.1705437 30.3472743,25.164167 C30.42608,25.1552373 30.5042947,25.1422323 30.5831949,25.1335423 C30.6994415,25.120741 30.8150854,25.1020066 30.9316984,25.0915786 C30.9504898,25.0899005 30.9690921,25.0861009 30.9878244,25.0836077 C31.0739102,25.0721729 31.1599724,25.0606062 31.2461174,25.0496029 C31.3097836,25.0414643 31.3734734,25.0334695 31.4372814,25.0265774 C31.5349021,25.0160415 31.6328655,25.0084902 31.7302498,24.9960485 C31.8613877,24.9793038 31.9926556,24.9650522 32.124349,24.9533057 C32.2183651,24.9449154 32.3120029,24.9318385 32.4064445,24.9276673 C32.4852028,24.9185218 32.5302785,24.913991 32.5753779,24.9098917 C32.6017331,24.9074945 32.6286911,24.9086691 32.6544436,24.9034911 C32.7253781,24.8892275 32.7971636,24.8881607 32.86889,24.8847087 C32.8915342,24.883618 32.9144266,24.8828149 32.9366453,24.8787755 C33.0039634,24.8665017 33.0719079,24.8651113 33.1399706,24.8633972 C33.2042277,24.8617911 33.2687448,24.8615753 33.3325882,24.8551028 C33.4494967,24.8432365 33.5666415,24.8426731 33.6837982,24.8414745 C33.7899873,24.8403837 33.8947345,24.823615 33.9992808,24.8089559 C34.1188484,24.7921752 34.2368678,24.7647149 34.3522872,24.7271861 C34.3881208,24.7155355 34.4247108,24.7059585 34.4632509,24.7056588 C34.5615689,24.7049037 34.6590241,24.6954706 34.7568457,24.6834844 C34.8919074,24.6669434 35.0256454,24.642971 35.1599506,24.6223427 C35.27563,24.6045792 35.3908838,24.5840348 35.5066223,24.5667148 C35.6111568,24.5510848 35.7160458,24.53784 35.820864,24.5241758 C35.8920113,24.5148984 35.9630876,24.502265 36.0345422,24.4990527 C36.1479406,24.4939466 36.2593889,24.4686437 36.3732245,24.4693389 C36.3994497,24.4695067 36.425675,24.4628903 36.4519593,24.4599417 C36.4819782,24.4565736 36.5120445,24.453589 36.5421107,24.4508082 C36.6474016,24.4410634 36.7527279,24.4316423 36.8579952,24.4215978 C36.8975989,24.4105106 36.9047373,24.4062315 36.9092165,24.400658 C36.9133766,24.3954919 36.9168748,24.3872094 36.9160239,24.3809407 C36.9127502,24.3567645 36.8944197,24.3413143 36.8801548,24.3238983 C36.7009629,24.1051741 36.5056388,23.9021279 36.2943834,23.7154068 C36.1462032,23.5844456 35.9954585,23.4563011 35.8424327,23.3312251 C35.6511151,23.1748411 35.4558028,23.0234794 35.2631733,22.8687255 C35.1917542,22.8113356 35.1156077,22.7621682 35.0361165,22.7173398 C34.9238409,22.6540047 34.8126526,22.5886799 34.7014289,22.523427 C34.6128257,22.4714548 34.5306045,22.4106009 34.4539734,22.3414525 C34.4060258,22.2981823 34.3558327,22.2571775 34.3043041,22.2183542 C34.2058679,22.1441956 34.0971852,22.0918159 33.9749466,22.0729736 C33.9291027,22.0659017 33.8885062,22.0467957 33.8476733,22.0264911 C33.7119971,21.9590208 33.5764272,21.8912867 33.4399592,21.8254705 C33.3373393,21.7759675 33.2302283,21.7388942 33.1196428,21.7115057 C32.5360105,21.5669881 31.9496482,21.4348402 31.3619031,21.3088532 C31.3023852,21.2960999 31.24295,21.2865949 31.1822621,21.286499 C31.0197107,21.2862473 30.8571474,21.2843414 30.695045,21.3018413 C30.6046218,21.3116101 30.5145059,21.3084097 30.4236572,21.29773 C30.3074224,21.2840538 30.1901003,21.2795949 30.1121101,21.2739734 C29.8989637,21.2798946 29.7253383,21.2913774 29.553403,21.3188018 Z M29.553403,21.3188018" id="Path" fill="#FFFFFF" sketch:type="MSShapeGroup"></path>
                <path d="M59.7754193,30 C59.7754193,46.5685433 46.545059,60 30.2245807,60 C24.1717019,60 18.5438664,58.1525134 13.8584858,54.9827754 L47.7187071,5.81941103 C55.0306051,11.2806503 59.7754193,20.0777973 59.7754193,30 Z M59.7754193,30" id="reflec" fill-opacity="0.08" fill="#000000" sketch:type="MSShapeGroup"></path>
            </g>
        </g>
    </g>
</svg>