<?xml version="1.0" encoding="UTF-8" standalone="no"?>
<svg width="60px" height="60px" viewBox="0 0 60 60" version="1.1" xmlns="http://www.w3.org/2000/svg" xmlns:xlink="http://www.w3.org/1999/xlink" xmlns:sketch="http://www.bohemiancoding.com/sketch/ns">
    <title>Picasa</title>
    <description>Created with Sketch (http://www.bohemiancoding.com/sketch)</description>
    <defs></defs>
    <g id="Page-1" stroke="none" stroke-width="1" fill="none" fill-rule="evenodd" sketch:type="MSPage">
        <g id="Picasa" sketch:type="MSArtboardGroup">
            <g sketch:type="MSLayerGroup">
                <path d="M0.449161376,30 C0.449161376,13.4314567 13.6795217,0 30,0 C46.3204783,0 59.5508386,13.4314567 59.5508386,30 C59.5508386,46.5685433 46.3204783,60 30,60 C13.6795217,60 0.449161376,46.5685433 0.449161376,30 Z M0.449161376,30" fill="#993E9F" sketch:type="MSShapeGroup"></path>
                <path d="M16.310216,35.7338496 L22.4052266,29.912752 L22.4052266,43.2377266 C19.6495475,41.4866504 17.4914106,38.8439004 16.310216,35.7338496 Z M36.0808616,26.2230254 L24.8464007,15.515916 C26.5093522,14.8551074 28.2386973,14.5 29.9977235,14.5 C32.1120591,14.5 34.1527393,14.9737187 36.0808616,15.8898535 L36.0808616,26.2230254 Z M28.8591198,21.5426914 L15.7815456,34.0263066 C15.4368408,32.6863438 15.2459016,31.3337871 15.2459016,30 C15.2459016,24.1540176 18.3213303,18.8937656 23.2749132,16.2201367 L28.8591198,21.5426914 Z M23.9548134,36.737293 L43.2473331,36.737293 C40.7912896,42.0599082 35.6241177,45.5 29.9977235,45.5 C27.902868,45.5 25.872677,45.0389355 23.9548134,44.128916 L23.9548134,36.737293 Z M44.7540984,30.0000605 C44.7540984,31.7388457 44.4633383,33.4528672 43.9116723,35.1044043 L37.6351744,35.1044043 L37.6351744,16.7811035 C42.0252188,19.5856953 44.7542136,24.6151426 44.7540984,30.0000605 Z M44.7540984,30.0000605" id="Shape" fill="#FFFFFF" sketch:type="MSShapeGroup"></path>
                <path d="M59.5508386,30 C59.5508386,46.5685433 46.3204783,60 30,60 C23.9471212,60 18.3192858,58.1525134 13.6339051,54.9827754 L47.4941264,5.81941103 C54.8060245,11.2806503 59.5508386,20.0777973 59.5508386,30 Z M59.5508386,30" id="reflec" fill-opacity="0.08" fill="#000000" sketch:type="MSShapeGroup"></path>
            </g>
        </g>
    </g>
</svg>