<?xml version="1.0" encoding="UTF-8" standalone="no"?>
<svg width="60px" height="60px" viewBox="0 0 60 60" version="1.1" xmlns="http://www.w3.org/2000/svg" xmlns:xlink="http://www.w3.org/1999/xlink" xmlns:sketch="http://www.bohemiancoding.com/sketch/ns">
    <title>Reddit</title>
    <description>Created with Sketch (http://www.bohemiancoding.com/sketch)</description>
    <defs></defs>
    <g id="Page-1" stroke="none" stroke-width="1" fill="none" fill-rule="evenodd" sketch:type="MSPage">
        <g id="Reddit" sketch:type="MSArtboardGroup">
            <g sketch:type="MSLayerGroup">
                <path d="M0.673742064,30 C0.673742064,13.4314567 13.9041024,0 30.2245807,0 C46.545059,0 59.7754193,13.4314567 59.7754193,30 C59.7754193,46.5685433 46.545059,60 30.2245807,60 C13.9041024,60 0.673742064,46.5685433 0.673742064,30 Z M0.673742064,30" fill="#FFFFFF" sketch:type="MSShapeGroup"></path>
                <path d="M49.8967118,29.5906998 C49.8967118,26.9746388 47.8833075,24.8466676 45.408682,24.8466676 C44.2897483,24.8466676 43.2660251,25.2826913 42.4791368,26.0014644 C39.4317888,23.9107762 35.4872037,22.6903484 31.2656708,22.5171736 L33.4959306,14.8301438 L39.984378,16.3654866 C39.9842243,16.3840063 39.9818422,16.4018761 39.9818422,16.4203957 C39.9818422,18.5820759 41.6458343,20.3408727 43.6908218,20.3408727 C45.7358093,20.3408727 47.3998015,18.5821571 47.3998015,16.4203957 C47.3998015,14.2586344 45.735963,12.5 43.6908218,12.5 C42.1539306,12.5 40.8328957,13.4933185 40.2707777,14.9043848 L33.1671895,13.2234842 C32.8072496,13.1382776 32.446157,13.3600259 32.3381135,13.7328554 L29.7940974,22.5007658 C25.3434909,22.5762252 21.1638383,23.8102991 17.9698709,26.0016269 C17.1831363,25.282935 16.1591825,24.8468301 15.0403257,24.8468301 C12.5657002,24.8468301 10.5524495,26.9748825 10.5524495,29.5908623 C10.5524495,31.3065278 11.4185646,32.812223 12.7127807,33.6455253 C12.6466944,34.0909713 12.6118838,34.5415346 12.6118838,34.9965653 C12.6118838,38.3962993 14.4834331,41.5705487 17.8816534,43.9333456 C21.1888128,46.2331107 25.5721035,47.5 30.2245038,47.5 C34.87652,47.5 39.260118,46.232867 42.5672775,43.9333456 C45.9655746,41.570305 47.8369702,38.3962993 47.8369702,34.9965653 C47.8369702,34.5415346 47.8023133,34.091215 47.7360733,33.6455253 C49.0304431,32.8121417 49.8967118,31.3062841 49.8967118,29.5906998 L49.8967118,29.5906998 Z M43.6906681,13.9919679 C44.9573739,13.9919679 45.9880132,15.0812149 45.9880132,16.4203145 C45.9880132,17.7590892 44.9573739,18.8486612 43.6906681,18.8486612 C42.424116,18.8486612 41.3933231,17.7590892 41.3933231,16.4203145 C41.3932462,15.0812961 42.4238855,13.9919679 43.6906681,13.9919679 L43.6906681,13.9919679 Z M11.9637768,29.5906998 C11.9637768,27.7975442 13.3438283,26.3387167 15.040172,26.3387167 C15.6825157,26.3387167 16.27906,26.5485247 16.7728632,26.905515 C14.9660938,28.4145405 13.7119137,30.18544 13.0814041,32.0962116 C12.3994086,31.4993595 11.9637768,30.5979081 11.9637768,29.5906998 L11.9637768,29.5906998 Z M30.2245038,46.0077885 C21.2911698,46.0077885 14.0234416,41.0681629 14.0234416,34.9964028 C14.0234416,34.7354222 14.0378115,34.4768783 14.0641692,34.2202839 C14.1154245,33.7239089 14.2144772,33.2362252 14.3597134,32.7596694 C14.9023897,30.9796725 16.0789568,29.3555492 17.7217398,28.0016663 C18.0860599,27.7010471 18.4742018,27.4144801 18.8825538,27.1420465 C21.8073347,25.1909866 25.8122428,23.9855046 30.2245038,23.9855046 C34.6365344,23.9855046 38.6415961,25.1911491 41.5661465,27.1420465 C41.9744985,27.4144801 42.3627941,27.7011284 42.7270373,28.0016663 C44.3698972,29.3554679 45.5465412,30.9796725 46.0891406,32.7596694 C46.2344537,33.2362252 46.3335063,33.7239089 46.3846848,34.2202839 C46.411273,34.4766346 46.4253356,34.7354222 46.4253356,34.9964028 C46.4253356,41.0682442 39.1576842,46.0077885 30.2245038,46.0077885 L30.2245038,46.0077885 Z M47.3676036,32.0963741 C46.7372476,30.1856837 45.482837,28.4145405 43.6760677,26.9055963 C44.1698708,26.5486059 44.7663383,26.3387979 45.408682,26.3387979 C47.1051026,26.3387979 48.4851541,27.7975442 48.4851541,29.590781 C48.4851541,30.5979081 48.0497528,31.4993595 47.3676036,32.0963741 L47.3676036,32.0963741 Z M35.6017021,39.7679708 C34.2641456,40.9270726 32.6056863,41.4439166 30.2245038,41.4439166 C27.8431677,41.4439166 26.1847852,40.9270726 24.8469982,39.7679708 C24.5306291,39.4938314 24.0635679,39.5428922 23.8042943,39.8771392 C23.5447903,40.211711 23.5910507,40.7052431 23.9075734,40.9795449 C25.5067088,42.3653497 27.5138887,43.0105316 30.2245038,43.0105316 C32.9351189,43.0105316 34.9422221,42.3653497 36.5414343,40.9795449 C36.8578033,40.7052431 36.9042174,40.211711 36.6447133,39.8771392 C36.384825,39.5422424 35.9180712,39.4938314 35.6017021,39.7679708 L35.6017021,39.7679708 Z M35.6017021,39.7679708" fill="#333333" sketch:type="MSShapeGroup"></path>
                <path d="M27.0060999,32.7625124 C27.0060999,31.2042637 25.8110901,29.941192 24.336904,29.941192 C22.8624874,29.941192 21.6673239,31.2042637 21.6673239,32.7625124 C21.6673239,34.3211672 22.8625642,35.5844825 24.336904,35.5844825 C25.8110901,35.58432 27.0060999,34.3211672 27.0060999,32.7625124 L27.0060999,32.7625124 Z M27.0060999,32.7625124" id="Shape" fill="#FC3A06" sketch:type="MSShapeGroup"></path>
                <path d="M36.238513,29.941192 C34.7639427,29.941192 33.5687792,31.2042637 33.5687792,32.7625124 C33.5687792,34.3211672 34.7639427,35.5844825 36.238513,35.5844825 C37.7126991,35.5844825 38.9079394,34.3211672 38.9079394,32.7625124 C38.9079394,31.2042637 37.7126991,29.941192 36.238513,29.941192 L36.238513,29.941192 Z M36.238513,29.941192" id="Shape" fill="#FC3A06" sketch:type="MSShapeGroup"></path>
                <path d="M59.7754193,30 C59.7754193,46.5685433 46.545059,60 30.2245807,60 C24.1717019,60 18.5438664,58.1525134 13.8584858,54.9827754 L47.7187071,5.81941103 C55.0306051,11.2806503 59.7754193,20.0777973 59.7754193,30 Z M59.7754193,30" id="reflec" fill-opacity="0.08" fill="#000000" sketch:type="MSShapeGroup"></path>
            </g>
        </g>
    </g>
</svg>