<?xml version="1.0" encoding="UTF-8" standalone="no"?>
<svg width="60px" height="60px" viewBox="0 0 60 60" version="1.1" xmlns="http://www.w3.org/2000/svg" xmlns:xlink="http://www.w3.org/1999/xlink" xmlns:sketch="http://www.bohemiancoding.com/sketch/ns">
    <title>Safari</title>
    <description>Created with Sketch (http://www.bohemiancoding.com/sketch)</description>
    <defs></defs>
    <g id="Page-1" stroke="none" stroke-width="1" fill="none" fill-rule="evenodd" sketch:type="MSPage">
        <g id="Safari" sketch:type="MSArtboardGroup">
            <g sketch:type="MSLayerGroup">
                <path d="M0.883833675,30 C0.883833675,13.4314567 13.9008011,0 29.9580459,0 C46.0152907,0 59.0322581,13.4314567 59.0322581,30 C59.0322581,46.5685433 46.0152907,60 29.9580459,60 C13.9008011,60 0.883833675,46.5685433 0.883833675,30 Z M0.883833675,30" fill="#1F60AA" sketch:type="MSShapeGroup"></path>
                <path d="M28.4636192,12.8223598 C28.5889265,12.5635565 28.6609213,12.270159 28.6609213,11.958159 C28.6609213,10.9218033 27.8788513,10.08159 26.9142122,10.08159 C25.9495732,10.08159 25.1675031,10.9218033 25.1675031,11.958159 C25.1675031,12.5387531 25.4131056,13.0575021 25.7985967,13.4018117 C18.7668016,15.5827113 13.6240343,22.5485356 13.6240343,30.8054393 C13.6240343,40.8090209 21.1722478,48.91841 30.4835743,48.91841 C39.7949008,48.91841 47.3431143,40.8090209 47.3431143,30.8054393 C47.3431143,20.8018577 39.7949008,12.6924686 30.4835743,12.6924686 C29.7999276,12.6924686 29.1260016,12.7373431 28.4636192,12.8223598 Z M27.9774265,11.941841 C27.9774265,12.5394059 27.5014103,13.0240502 26.9142122,13.0240502 C26.3270142,13.0240502 25.850998,12.539569 25.850998,11.941841 C25.850998,11.344113 26.3270142,10.859795 26.9142122,10.859795 C27.5014103,10.859795 27.9774265,11.3442762 27.9774265,11.941841 Z M16.813677,30.8054393 C16.813677,22.6944184 22.9338419,16.1192469 30.4835743,16.1192469 C38.0331548,16.1192469 44.1534716,22.6944184 44.1534716,30.8054393 C44.1534716,38.9162971 38.0331548,45.4916318 30.4835743,45.4916318 C22.9338419,45.4916318 16.813677,38.9162971 16.813677,30.8054393 Z M16.813677,30.8054393" id="Shape" fill="#FFFFFF" sketch:type="MSShapeGroup"></path>
                <path d="M33.702987,28.9611799 C33.6650151,28.8916653 33.6230941,28.8136653 33.5788947,28.7372971 L37.8984304,22.0289707 L32.0908505,27.2902176 C31.751837,27.1108828 31.3829017,26.9868661 30.9942209,26.9282845 L29.3274048,22.816477 L28.9262692,27.264272 C28.5655358,27.4476862 28.237914,27.6929456 27.9540358,27.987159 L26.2939027,27.2193975 L27.359699,28.7865774 C27.109388,29.2327113 26.9403369,29.7369372 26.8724431,30.2757573 L23.085274,32.0475649 L27.1854838,32.4744435 C27.2459351,32.6121674 27.3138289,32.7453222 27.3882539,32.8735816 L23.0685664,39.5819079 L28.865666,34.3149498 C29.2589034,34.524636 29.6920873,34.6600753 30.1500288,34.7047866 L31.7914797,38.7537699 L32.1965643,34.262569 C32.5048965,34.0860084 32.7866482,33.8629414 33.0342253,33.6025063 L34.7251916,34.3843013 L33.632663,32.7776318 C33.8919354,32.3006569 34.0603789,31.7598787 34.1117169,31.1820586 L37.9198466,29.4001339 L33.702987,28.9611799 Z M30.4835743,27.3786611 C30.9163025,27.3786611 31.328374,27.4721632 31.7047518,27.6399121 L29.4334224,29.6974477 L27.6744104,32.4290795 C27.4319976,31.9457406 27.2939316,31.3930502 27.2939316,30.8054393 C27.2939316,28.9128787 28.7219802,27.3786611 30.4835743,27.3786611 Z M29.2497901,33.9659079 L31.5683566,31.8594184 L33.2925863,29.1817992 C33.5351511,29.6651381 33.673217,30.2179916 33.673217,30.8054393 C33.673217,32.698 32.2451684,34.2322176 30.4835743,34.2322176 C30.0461376,34.2322176 29.6293576,34.1372469 29.2497901,33.9659079 Z M29.2497901,33.9659079" id="Shape" fill="#FFFFFF" sketch:type="MSShapeGroup"></path>
                <path d="M59.0322581,30 C59.0322581,46.5685433 46.0152907,60 29.9580459,60 C24.0027941,60 18.4657302,58.1525134 13.8559203,54.9827754 L47.170009,5.81941103 C54.3639732,11.2806503 59.0322581,20.0777973 59.0322581,30 Z M59.0322581,30" id="reflec" fill-opacity="0.08" fill="#000000" sketch:type="MSShapeGroup"></path>
            </g>
        </g>
    </g>
</svg>