<?xml version="1.0" encoding="UTF-8" standalone="no"?>
<svg width="60px" height="60px" viewBox="0 0 60 60" version="1.1" xmlns="http://www.w3.org/2000/svg" xmlns:xlink="http://www.w3.org/1999/xlink" xmlns:sketch="http://www.bohemiancoding.com/sketch/ns">
    <title>Skype</title>
    <description>Created with Sketch (http://www.bohemiancoding.com/sketch)</description>
    <defs></defs>
    <g id="Page-1" stroke="none" stroke-width="1" fill="none" fill-rule="evenodd" sketch:type="MSPage">
        <g id="Skype" sketch:type="MSArtboardGroup">
            <g sketch:type="MSLayerGroup">
                <path d="M0.56145172,30 C0.56145172,13.4314567 13.791812,0 30.1122903,0 C46.4327687,0 59.663129,13.4314567 59.663129,30 C59.663129,46.5685433 46.4327687,60 30.1122903,60 C13.791812,60 0.56145172,46.5685433 0.56145172,30 Z M0.56145172,30" fill="#12A5F4" sketch:type="MSShapeGroup"></path>
                <path d="M45.4527125,30.5806278 C45.4527125,22.1349108 38.7692666,15.2873644 30.5264919,15.2873644 C29.7072426,15.2873644 28.9040559,15.3566795 28.122455,15.4887705 C26.7210843,14.5481778 25.0533179,14 23.2584484,14 C18.3367313,14 14.3518431,18.1071154 14.3518431,23.1748334 C14.3518431,25.0187456 14.87873,26.7317439 15.7860371,28.170032 C15.6638227,28.9558428 15.6013505,29.7605518 15.6013505,30.5803663 C15.6013505,39.0273912 22.281368,45.8742183 30.5264284,45.8742183 C31.4569721,45.8742183 32.3629459,45.7809699 33.2434611,45.6170985 C34.6116276,46.4913188 36.2232071,47 37.9508428,47 C42.8712902,47 46.8577656,42.8918383 46.8577656,37.8246435 C46.8575751,35.9091275 46.288913,34.1281873 45.3120866,32.6558955 C45.4013507,31.9758229 45.4527125,31.2844376 45.4527125,30.5806278 Z M22.9197376,39.5709799 C20.6468518,37.3624959 21.5598827,34.8435426 23.411619,34.7155126 C25.2623384,34.5875484 26.3735835,36.8874166 27.3613499,37.5271717 C28.3479088,38.1645583 32.101777,39.6167049 34.084618,37.2700591 C36.2437484,34.7155126 32.6487566,33.3936328 30.0136326,32.9934898 C26.2512487,32.4167629 21.5010349,30.3096634 21.8705814,26.1573082 C22.240255,22.0075847 25.2757476,19.8798924 28.4703072,19.5797523 C32.5424366,19.197044 35.1933847,20.2183889 37.2901719,22.0706128 C39.7146894,24.2107395 38.4028151,26.6032419 36.8580916,26.7957474 C35.319469,26.9871345 33.5913386,23.2756471 30.1985647,23.219856 C26.701568,23.1630123 24.3381226,26.9871345 28.6551758,28.0742049 C32.9744533,29.1600911 37.5999173,29.6062223 39.2656411,33.6939045 C40.9325088,37.7819816 36.6757015,42.1234211 31.9242167,42.3796784 C27.1766084,42.6356725 24.9549444,41.5482731 22.9197376,39.5709799 Z M22.9197376,39.5709799" id="Path" fill="#FFFFFF" sketch:type="MSShapeGroup"></path>
                <path d="M59.663129,30 C59.663129,46.5685433 46.4327687,60 30.1122903,60 C24.0594115,60 18.4315761,58.1525134 13.7461955,54.9827754 L47.6064168,5.81941103 C54.9183148,11.2806503 59.663129,20.0777973 59.663129,30 Z M59.663129,30" id="reflec" fill-opacity="0.08" fill="#000000" sketch:type="MSShapeGroup"></path>
            </g>
        </g>
    </g>
</svg>