<?xml version="1.0" encoding="UTF-8" standalone="no"?>
<svg width="60px" height="60px" viewBox="0 0 60 60" version="1.1" xmlns="http://www.w3.org/2000/svg" xmlns:xlink="http://www.w3.org/1999/xlink" xmlns:sketch="http://www.bohemiancoding.com/sketch/ns">
    <title>Soundcloud</title>
    <description>Created with Sketch (http://www.bohemiancoding.com/sketch)</description>
    <defs></defs>
    <g id="Page-1" stroke="none" stroke-width="1" fill="none" fill-rule="evenodd" sketch:type="MSPage">
        <g id="Soundcloud" sketch:type="MSArtboardGroup">
            <g sketch:type="MSLayerGroup">
                <path d="M0.786032408,30 C0.786032408,13.4314567 14.0163927,0 30.336871,0 C46.6573494,0 59.8877097,13.4314567 59.8877097,30 C59.8877097,46.5685433 46.6573494,60 30.336871,60 C14.0163927,60 0.786032408,46.5685433 0.786032408,30 Z M0.786032408,30" fill="#FD6312" sketch:type="MSShapeGroup"></path>
                <path d="M12.8268734,31.6673533 C12.7521312,31.6673533 12.6927854,31.730506 12.6831277,31.8207241 L12.4211802,33.9949809 L12.6831277,36.1319271 C12.6928554,36.2218394 12.7520612,36.2846098 12.8268734,36.2846098 C12.8993061,36.2846098 12.958302,36.2224511 12.9697793,36.1328446 L13.2803652,33.9949809 L12.9697793,31.8201124 C12.9587219,31.730506 12.8989562,31.6673533 12.8268734,31.6673533 L12.8268734,31.6673533 Z M14.9381297,30.3212683 C14.8621978,30.3212683 14.7993528,30.3879379 14.7889953,30.4792264 C14.7889953,30.479991 14.4366993,33.9946751 14.4366993,33.9946751 L14.7889953,37.4323679 C14.7989329,37.5245739 14.8617779,37.5910906 14.9381297,37.5910906 C15.0130118,37.5910906 15.0744572,37.526103 15.0867742,37.4333618 L15.4874986,33.9946751 L15.0872641,30.4792264 C15.0749471,30.3857972 15.0136417,30.3212683 14.9381297,30.3212683 L14.9381297,30.3212683 Z M16.9785629,29.4843805 C16.8675694,29.4843805 16.777081,29.5814032 16.7681231,29.7106904 L16.4522885,33.9960513 L16.7681231,38.1421857 C16.7765911,38.2705554 16.8675694,38.3675017 16.9785629,38.3675017 C17.0882967,38.3675017 17.1789251,38.2704025 17.1886528,38.1421857 L17.5478771,33.9960513 L17.1886528,29.7097729 C17.1789951,29.5813267 17.0884367,29.4843805 16.9785629,29.4843805 L16.9785629,29.4843805 Z M19.0066091,29.7615336 C18.87707,29.7615336 18.7738446,29.8731594 18.7657266,30.020949 L18.4679476,33.9961277 L18.7657266,38.176438 C18.7743345,38.3239217 18.87714,38.4354711 19.0066091,38.4354711 C19.1341886,38.4354711 19.237414,38.3238453 19.2470017,38.1768203 L19.585371,33.9961277 L19.2470017,30.019114 C19.2379039,29.872242 19.1345386,29.7615336 19.0066091,29.7615336 L19.0066091,29.7615336 Z M21.0349352,27.2364201 C20.8904896,27.2364201 20.7710281,27.3657072 20.7641698,27.5300112 L20.4834668,33.9977333 L20.7641698,38.1776613 C20.771448,38.3410479 20.9088953,38.4697999 21.0534808,38.4697999 C21.1972965,38.4697999 21.3433516,38.3404362 21.3433516,38.1766674 L21.3433516,38.1781201 L21.6419704,33.9977333 L21.3155682,27.5300112 C21.3068903,27.3657837 21.1787509,27.2364201 21.0349352,27.2364201 L21.0349352,27.2364201 Z M23.0631913,25.72519 C22.9006901,25.72519 22.7681417,25.868698 22.7610034,26.0518102 C22.7610034,26.0523454 22.4991259,33.9990331 22.4991259,33.9990331 L22.7615633,38.1525838 C22.7681417,38.3340904 22.9006901,38.4777513 23.0632613,38.4777513 C23.2243629,38.4777513 23.3572612,38.3340904 23.3649593,38.1510546 L23.6609887,33.9990331 L23.3649593,26.0518102 C23.3569112,25.8683922 23.2242929,25.72519 23.0631913,25.72519 L23.0631913,25.72519 Z M25.1034146,24.7047313 C24.9053618,24.7047313 24.7457999,24.8776748 24.7404112,25.099168 L24.514645,33.9998741 L24.7406911,38.0853789 C24.7462198,38.304349 24.9404235,38.4774455 25.1380563,38.4774455 C25.3353392,38.4774455 25.5356315,38.304349 25.5356315,38.0840792 L25.5356315,38.0837733 L25.7549591,34.0001034 L25.4834939,25.0990915 C25.4771954,24.87821 25.3002776,24.7047313 25.1034146,24.7047313 L25.1034146,24.7047313 Z M27.1445476,25.1828873 C26.9114332,25.1828873 26.7245078,25.3854194 26.7199589,25.6448347 L26.5303741,34.0016326 L26.7199589,38.0229143 C26.7245078,38.2789656 26.9158422,38.4814212 27.1493065,38.4814212 C27.382071,38.4814212 27.5779542,38.2792714 27.5779542,38.0201619 L27.5779542,38.0234495 L27.7859446,34.0020913 L27.5708859,25.6442231 C27.5652872,25.3854958 27.3773121,25.1828873 27.1445476,25.1828873 L27.1445476,25.1828873 Z M29.23061,22.6281853 C28.9659331,22.6281853 28.7487049,22.8655048 28.7447159,23.1571846 L28.5459633,34.0037733 L28.7452757,37.940036 C28.7487749,38.227893 28.9899374,38.4646773 29.2545442,38.4646773 C29.5185912,38.4646773 29.7637428,38.22774 29.7637428,37.9357544 L29.7637428,37.9404183 L29.9559869,34.0037733 L29.7277014,23.1563436 C29.7238523,22.8655048 29.494657,22.6281853 29.23061,22.6281853 L29.23061,22.6281853 Z M43.8448734,28.8693681 C43.2411275,28.8693681 42.6648849,29.0028604 42.1402901,29.2432381 C41.7895338,24.9038228 38.4586784,21.5 34.3957977,21.5 C33.4015449,21.5 32.436965,21.7136946 31.5811392,22.0754081 C31.2485785,22.2159343 31.1612394,22.3608185 31.1612394,22.6414122 L31.1612394,37.9229863 C31.1612394,38.2176479 31.3695797,38.4631482 31.6326469,38.4919721 C31.6438442,38.4933483 43.7680318,38.5 43.846623,38.5 C46.2804324,38.5 48.2525619,36.3440926 48.2525619,33.6848752 C48.2525619,31.0256577 46.2785428,28.8693681 43.8448734,28.8693681 L43.8448734,28.8693681 Z M43.8448734,28.8693681" id="Shape" fill="#FFFFFF" sketch:type="MSShapeGroup"></path>
                <path d="M59.8877097,30 C59.8877097,46.5685433 46.6573494,60 30.336871,60 C24.2839922,60 18.6561568,58.1525134 13.9707761,54.9827754 L47.8309975,5.81941103 C55.1428955,11.2806503 59.8877097,20.0777973 59.8877097,30 Z M59.8877097,30" id="reflec" fill-opacity="0.08" fill="#000000" sketch:type="MSShapeGroup"></path>
            </g>
        </g>
    </g>
</svg>