<?xml version="1.0" encoding="UTF-8" standalone="no"?>
<svg width="60px" height="60px" viewBox="0 0 60 60" version="1.1" xmlns="http://www.w3.org/2000/svg" xmlns:xlink="http://www.w3.org/1999/xlink" xmlns:sketch="http://www.bohemiancoding.com/sketch/ns">
    <title>Treehouse</title>
    <description>Created with Sketch (http://www.bohemiancoding.com/sketch)</description>
    <defs></defs>
    <g id="Page-1" stroke="none" stroke-width="1" fill="none" fill-rule="evenodd" sketch:type="MSPage">
        <g id="Treehouse" sketch:type="MSArtboardGroup">
            <g sketch:type="MSLayerGroup">
                <path d="M0.336871032,30 C0.336871032,13.4314567 13.5672313,0 29.8877097,0 C46.208188,0 59.4385483,13.4314567 59.4385483,30 C59.4385483,46.5685433 46.208188,60 29.8877097,60 C13.5672313,60 0.336871032,46.5685433 0.336871032,30 Z M0.336871032,30" fill="#80A34C" sketch:type="MSShapeGroup"></path>
                <path d="M41.1657448,19.5190146 C40.1037088,18.9007669 38.4077033,19.8950385 37.3776837,21.7398845 L35.5127065,25.0811611 C34.8311822,26.4699117 34.9246298,28.1247738 35.7873398,29.3998169 L35.8416883,29.4803349 C36.7059884,30.7602894 37.8653025,31.9360616 38.2483437,32.3602326 C38.4736153,32.6058052 38.6458393,32.9109107 38.7397929,33.2624517 C39.0546817,34.42215 38.3972239,35.6252328 37.2709381,35.9497608 C36.1446523,36.2741399 34.9761597,35.597178 34.6611263,34.4373308 C34.5819163,34.1462156 34.5642819,33.8524958 34.5998397,33.5705337 C34.6604036,33.0913694 34.5110175,32.3108948 33.843803,31.5447081 C33.1765885,30.7785214 31.8128171,32.2256141 31.3718861,33.7138589 L31.3515777,33.7808332 C30.9105743,35.2690036 30.6322551,36.5677109 30.7155124,36.6927297 C30.7650909,36.7671457 30.8094659,36.8490032 30.8528291,36.9269167 C31.4715491,38.1250137 31.0262817,39.6137049 29.8653054,40.2533101 C28.7011491,40.8904596 27.2559272,40.4351827 26.6370626,39.2366393 C26.0183426,38.037947 26.4605023,36.5498511 27.6245863,35.9127016 C27.6768389,35.8840515 27.7296697,35.8577082 27.7829341,35.833523 C27.8718286,35.793264 28.1240577,35.167649 28.3428971,34.4286986 C28.5619533,33.6895993 28.7393809,33.0906996 28.7393809,33.0906996 C28.762797,33.012042 28.7831054,32.9342773 28.801607,32.8571823 L29.9796396,28.5260247 L28.7195784,31.1889998 C28.5702646,30.6834178 28.3233837,30.6654091 27.7826451,31.0636833 C27.4564818,31.3039724 26.9172609,31.7770347 26.653902,31.971558 C26.1592729,32.335973 25.7455161,33.0437432 25.5264598,33.4773649 C25.397599,33.7326117 25.2170637,33.9653848 24.9862994,34.1579733 C24.0842011,34.9116581 22.7596011,34.7695981 22.0277033,33.8407381 C21.2958054,32.9120269 21.4337725,31.5481312 22.3357263,30.7945208 C22.600097,30.5735798 22.9009651,30.4296593 23.2124571,30.3598572 C23.7424272,30.2413125 25.5447446,29.1076598 26.6306304,28.3076138 C26.8250419,28.1644375 26.9881597,28.0289261 27.120851,27.9033119 L30.0202564,25.6360065 L27.4951473,27.0409054 C27.4951473,27.0409054 27.2382206,27.0141156 26.9232595,27.048347 C25.999046,27.1539432 25.0472969,27.2880408 24.8674844,27.5237161 C24.7611001,27.662874 24.6344796,27.7892323 24.4878399,27.8978052 C23.6451491,28.5228992 22.4697184,28.3261434 21.8626342,27.4583045 C21.2554054,26.5903912 21.4467092,25.3800156 22.2894,24.7550704 C22.6371725,24.4972935 23.0413171,24.3793442 23.438596,24.3907298 C24.1145554,24.4130546 25.8958417,24.7776928 27.3774163,24.5097954 L27.7595903,24.4400676 C29.2475971,24.1685982 31.029028,22.8349154 31.738883,21.4611968 C31.738883,21.4611968 32.4339221,20.204088 33.2912118,18.6534082 C34.1485738,17.1027285 34.0851913,15.4041098 33.1499202,14.8596826 L31.4561552,13.8736712 C30.6016118,13.3762005 29.2027163,13.3753075 28.3475225,13.8718108 L16.6884697,20.6405376 C15.8333482,21.1369664 15.1336113,22.3701877 15.1336113,23.3809797 L15.1336113,36.614072 C15.1336113,37.6261291 15.834649,38.861434 16.6874579,39.354663 L28.3533042,46.126292 C29.208498,46.624879 30.6081886,46.624879 31.4619369,46.1244316 L43.0878169,39.3565234 C43.9425048,38.8590527 44.641808,37.6249384 44.641808,36.614072 L44.641808,23.3809797 C44.641808,22.3701877 43.9425048,21.135999 43.0878169,20.6385283 C43.088901,20.6409097 42.2274195,20.1348811 41.1650221,19.5190146 L41.1657448,19.5190146 Z M41.1657448,19.5190146" id="Shape" fill="#FFFFFF" sketch:type="MSShapeGroup"></path>
                <path d="M59.4385483,30 C59.4385483,46.5685433 46.208188,60 29.8877097,60 C23.8348308,60 18.2069954,58.1525134 13.5216148,54.9827754 L47.3818361,5.81941103 C54.6937341,11.2806503 59.4385483,20.0777973 59.4385483,30 Z M59.4385483,30" id="reflec" fill-opacity="0.08" fill="#000000" sketch:type="MSShapeGroup"></path>
            </g>
        </g>
    </g>
</svg>