<?xml version="1.0" encoding="UTF-8" standalone="no"?>
<svg width="60px" height="60px" viewBox="0 0 60 60" version="1.1" xmlns="http://www.w3.org/2000/svg" xmlns:xlink="http://www.w3.org/1999/xlink" xmlns:sketch="http://www.bohemiancoding.com/sketch/ns">
    <title>Tumblr</title>
    <description>Created with Sketch (http://www.bohemiancoding.com/sketch)</description>
    <defs></defs>
    <g id="Page-1" stroke="none" stroke-width="1" fill="none" fill-rule="evenodd" sketch:type="MSPage">
        <g id="Tumblr" sketch:type="MSArtboardGroup">
            <g sketch:type="MSLayerGroup">
                <path d="M0.786032408,30 C0.786032408,13.4314567 14.0163927,0 30.336871,0 C46.6573494,0 59.8877097,13.4314567 59.8877097,30 C59.8877097,46.5685433 46.6573494,60 30.336871,60 C14.0163927,60 0.786032408,46.5685433 0.786032408,30 Z M0.786032408,30" fill="#4E83B7" sketch:type="MSShapeGroup"></path>
                <path d="M21.2685039,27.8611861 L24.016494,27.8611861 L24.016494,36.23046 C24.233605,43.073799 27.9394506,44.5003248 32.2604645,44.9717025 C34.7725133,44.8448806 37.8499494,43.9003412 39.4052382,42.6469034 L39.4052382,37.9043144 C37.4038376,39.8781339 32.0329581,41.8142983 31.0696692,36.23046 L30.9780689,27.7681935 L39.4052382,27.8611861 L39.4052382,22.1886782 L30.9780689,22.1886782 L31.1612677,15.0282975 L27.7720806,15.1212901 C28.0053688,21.2292752 24.8077938,22.0469118 21.2685039,22.281669 L21.2685039,27.8611861 Z M21.2685039,27.8611861" id="Path" fill="#FFFFFF" sketch:type="MSShapeGroup"></path>
                <path d="M59.8877097,30 C59.8877097,46.5685433 46.6573494,60 30.336871,60 C24.2839922,60 18.6561568,58.1525134 13.9707761,54.9827754 L47.8309975,5.81941103 C55.1428955,11.2806503 59.8877097,20.0777973 59.8877097,30 Z M59.8877097,30" id="reflec" fill-opacity="0.08" fill="#000000" sketch:type="MSShapeGroup"></path>
            </g>
        </g>
    </g>
</svg>