<?xml version="1.0" encoding="UTF-8" standalone="no"?>
<svg width="60px" height="60px" viewBox="0 0 60 60" version="1.1" xmlns="http://www.w3.org/2000/svg" xmlns:xlink="http://www.w3.org/1999/xlink" xmlns:sketch="http://www.bohemiancoding.com/sketch/ns">
    <title>Vimeo</title>
    <description>Created with Sketch (http://www.bohemiancoding.com/sketch)</description>
    <defs></defs>
    <g id="Page-1" stroke="none" stroke-width="1" fill="none" fill-rule="evenodd" sketch:type="MSPage">
        <g id="Vimeo" sketch:type="MSArtboardGroup">
            <g sketch:type="MSLayerGroup">
                <path d="M0.56145172,30 C0.56145172,13.4314567 13.791812,0 30.1122903,0 C46.4327687,0 59.663129,13.4314567 59.663129,30 C59.663129,46.5685433 46.4327687,60 30.1122903,60 C13.791812,60 0.56145172,46.5685433 0.56145172,30 Z M0.56145172,30" fill="#4EBBFF" sketch:type="MSShapeGroup"></path>
                <path d="M18.5987072,23.995984 C19.5231704,25.105669 23.0527391,38.5048145 24.230922,40.9765735 C25.2592531,43.144205 28.0958301,46.0099118 31.2064994,43.9634192 C34.3153578,41.916861 44.6536427,32.9563897 46.5042507,22.3746923 C48.3532417,11.7963435 34.0633844,14.0122992 32.5497327,23.2285739 C36.3328917,20.9227981 38.3522366,24.1654472 36.4163224,27.8367769 C34.4839007,31.5045612 32.7182109,33.8967428 31.7936183,33.8967428 C30.8708366,33.8967428 30.1609001,31.4422518 29.1035946,27.1522272 C28.0105886,22.7169672 28.0173148,14.7278395 23.473126,15.6335909 C19.1877016,16.4874725 13.5555515,23.3150454 13.5555515,23.3150454 L14.9005957,25.105669 C14.9005957,25.105669 17.6741793,22.8861677 18.5987072,23.995984 Z M18.5987072,23.995984" id="Path" fill="#FFFFFF" sketch:type="MSShapeGroup"></path>
                <path d="M59.663129,30 C59.663129,46.5685433 46.4327687,60 30.1122903,60 C24.0594115,60 18.4315761,58.1525134 13.7461955,54.9827754 L47.6064168,5.81941103 C54.9183148,11.2806503 59.663129,20.0777973 59.663129,30 Z M59.663129,30" id="reflec" fill-opacity="0.08" fill="#000000" sketch:type="MSShapeGroup"></path>
            </g>
        </g>
    </g>
</svg>