<?xml version="1.0" encoding="UTF-8" standalone="no"?>
<svg width="60px" height="60px" viewBox="0 0 60 60" version="1.1" xmlns="http://www.w3.org/2000/svg" xmlns:xlink="http://www.w3.org/1999/xlink" xmlns:sketch="http://www.bohemiancoding.com/sketch/ns">
    <title>Windows</title>
    <description>Created with Sketch (http://www.bohemiancoding.com/sketch)</description>
    <defs></defs>
    <g id="Page-1" stroke="none" stroke-width="1" fill="none" fill-rule="evenodd" sketch:type="MSPage">
        <g id="Windows" sketch:type="MSArtboardGroup">
            <g sketch:type="MSLayerGroup">
                <path d="M0,30 C0,13.4314567 13.2303603,0 29.5508386,0 C45.8713169,0 59.1016772,13.4314567 59.1016772,30 C59.1016772,46.5685433 45.8713169,60 29.5508386,60 C13.2303603,60 0,46.5685433 0,30 Z M0,30" fill="#0DADEA" sketch:type="MSShapeGroup"></path>
                <path d="M13.1847437,19.1277676 L25.2719601,17.4368663 L25.2719601,29.3085732 L13.1855626,29.3085732 L13.1847437,19.1277676 L13.1847437,19.1277676 Z M25.2719601,30.8278952 L25.2719601,42.565347 L13.1862471,40.8767955 L13.1855626,30.8284416 L25.2719601,30.8284416 L25.2719601,30.8278952 L25.2719601,30.8278952 Z M26.6090287,17.2502042 L42.692927,15 L42.692927,29.3085732 L26.6090287,29.3085732 L26.6090287,17.2502042 L26.6090287,17.2502042 Z M42.6929405,30.8278952 L42.6929405,45 L26.6090287,42.752009 L26.6090287,30.8278952 L42.6929405,30.8278952 L42.6929405,30.8278952 Z M42.6929405,30.8278952" fill="#FFFFFF" sketch:type="MSShapeGroup"></path>
                <path d="M59.1016772,30 C59.1016772,46.5685433 45.8713169,60 29.5508386,60 C23.4979598,60 17.8701244,58.1525134 13.1847437,54.9827754 L47.0449651,5.81941103 C54.3568631,11.2806503 59.1016772,20.0777973 59.1016772,30 Z M59.1016772,30" id="reflec" fill-opacity="0.08" fill="#000000" sketch:type="MSShapeGroup"></path>
            </g>
        </g>
    </g>
</svg>