<?xml version="1.0" encoding="UTF-8" standalone="no"?>
<svg width="60px" height="60px" viewBox="0 0 60 60" version="1.1" xmlns="http://www.w3.org/2000/svg" xmlns:xlink="http://www.w3.org/1999/xlink" xmlns:sketch="http://www.bohemiancoding.com/sketch/ns">
    <title>WordPress</title>
    <description>Created with Sketch (http://www.bohemiancoding.com/sketch)</description>
    <defs></defs>
    <g id="Page-1" stroke="none" stroke-width="1" fill="none" fill-rule="evenodd" sketch:type="MSPage">
        <g id="WordPress" sketch:type="MSArtboardGroup">
            <g sketch:type="MSLayerGroup">
                <path d="M0,30 C0,13.4314567 13.2303603,0 29.5508386,0 C45.8713169,0 59.1016772,13.4314567 59.1016772,30 C59.1016772,46.5685433 45.8713169,60 29.5508386,60 C13.2303603,60 0,46.5685433 0,30 Z M0,30" fill="#444444" sketch:type="MSShapeGroup"></path>
                <path d="M29.5508386,52.0223333 C17.5723947,52.0223333 7.85822468,42.1605117 7.85822468,30 C7.85822468,17.8394883 17.5723947,7.97766667 29.5508386,7.97766667 C41.5292825,7.97766667 51.2434526,17.8394883 51.2434526,30 C51.2434526,42.1605117 41.5292825,52.0223333 29.5508386,52.0223333 Z M29.5509302,11.0636149 C22.9904322,11.0636149 17.2206914,14.5042911 13.89554,19.7043801 C16.014473,19.6822911 18.2892543,19.6577173 20.5553677,19.5355204 C20.6530175,19.5303165 20.733406,19.6204538 20.733406,19.7244218 L20.733406,20.8579664 C20.733406,20.9619685 20.6533149,21.0469018 20.5553677,21.0469018 L18.3954966,21.0469018 C18.154001,21.0469018 18.052317,21.1949149 18.137037,21.4483054 L24.9112459,41.7067579 L29.0331684,29.072831 L26.292757,21.465436 C26.1933542,21.189519 26.0753017,21.046878 25.6536519,21.046878 L23.7581309,21.046878 C23.6601501,21.046878 23.5800598,20.9618432 23.5800598,20.8579425 L23.5800598,19.7243979 C23.5800598,19.6204973 23.6603819,19.5311325 23.7581309,19.5354966 C27.2854695,19.6950576 30.8345873,19.6939832 34.4047034,19.5354966 C34.5025187,19.531199 34.5827745,19.6204299 34.5827745,19.7243979 L34.5827745,20.8579425 C34.5827745,20.9619446 34.5026841,21.046878 34.4047034,21.046878 L32.5194967,21.046878 C32.1458285,21.046878 32.0254612,21.2222505 32.1286991,21.5309322 L38.797052,41.4724387 L41.245505,33.9064675 C44.2058175,24.7592538 38.7127335,23.7912766 38.8493038,19.2434722 C38.9167919,16.9940423 40.5411258,16.0120648 42.1685338,16.0558412 C38.8472124,12.9565747 34.4167261,11.063562 29.5509302,11.0636149 Z M38.5031029,46.6150647 L44.3215762,29.8879553 C45.2222462,27.2988551 46.0588046,23.8004004 45.956552,20.9831963 C47.389853,23.6641742 48.2037501,26.7358219 48.2037501,29.9999139 C48.2037501,37.1629705 44.2833764,43.3977684 38.5031029,46.6150647 Z M24.1263581,48.1214331 L29.8726817,31.4034475 L35.7961794,47.8466954 C33.843451,48.5514752 31.7415181,48.9363254 29.5508638,48.9363254 C27.6640025,48.9363254 25.8431174,48.6506059 24.1263581,48.1214331 Z M12.5740341,22.1470209 L21.569563,47.1181374 C15.2616393,44.0810834 10.8979859,37.5572055 10.8979859,29.9999574 C10.8979859,27.1986901 11.498236,24.5394985 12.5740341,22.1470209 Z M29.5508386,50.7130658 C18.2845684,50.7130658 9.14784784,41.4374706 9.14784784,29.9999574 C9.14784784,18.5624442 18.2845684,9.28684897 29.5508386,9.28684897 C40.8171089,9.28684897 49.9538294,18.5624442 49.9538294,29.9999574 C49.9538294,41.4374706 40.8171089,50.7130658 29.5508386,50.7130658 Z M29.5508386,50.7130658" id="Path" fill="#FFFFFF" sketch:type="MSShapeGroup"></path>
                <path d="M59.1016772,30 C59.1016772,46.5685433 45.8713169,60 29.5508386,60 C23.4979598,60 17.8701244,58.1525134 13.1847437,54.9827754 L47.0449651,5.81941103 C54.3568631,11.2806503 59.1016772,20.0777973 59.1016772,30 Z M59.1016772,30" id="reflec" fill-opacity="0.08" fill="#000000" sketch:type="MSShapeGroup"></path>
            </g>
        </g>
    </g>
</svg>