<?xml version="1.0" encoding="UTF-8" standalone="no"?>
<svg width="60px" height="60px" viewBox="0 0 60 60" version="1.1" xmlns="http://www.w3.org/2000/svg" xmlns:xlink="http://www.w3.org/1999/xlink" xmlns:sketch="http://www.bohemiancoding.com/sketch/ns">
    <title>Yahoo!</title>
    <description>Created with Sketch (http://www.bohemiancoding.com/sketch)</description>
    <defs></defs>
    <g id="Page-1" stroke="none" stroke-width="1" fill="none" fill-rule="evenodd" sketch:type="MSPage">
        <g id="Yahoo!" sketch:type="MSArtboardGroup">
            <g sketch:type="MSLayerGroup">
                <path d="M0.883833675,30 C0.883833675,13.4314567 13.9008011,0 29.9580459,0 C46.0152907,0 59.0322581,13.4314567 59.0322581,30 C59.0322581,46.5685433 46.0152907,60 29.9580459,60 C13.9008011,60 0.883833675,46.5685433 0.883833675,30 Z M0.883833675,30" fill="#6A026E" sketch:type="MSShapeGroup"></path>
                <path d="M45.4650926,22.0273795 L32.2259104,22.0273795 L32.7358272,24.2580938 L36.3494361,24.2580938 L30.2689359,30.1877366 C29.0284117,28.3365938 26.1203377,24.4775938 24.091652,21.2959509 L28.620637,21.2959509 L28.620637,19.0652366 L13.5483871,19.0652366 L13.5483871,21.2959509 L18.0247795,21.2959509 C19.7613281,22.7587366 26.4070502,31.7319509 26.6827148,32.624808 C26.792994,33.4611652 26.8950699,38.4067366 26.5697234,38.778808 C25.9164504,39.5258795 22.9367975,39.3292366 22.2172379,39.3856652 L21.9692918,40.9166652 C23.2812626,40.9584509 27.5537015,40.8014509 28.8824093,40.8014509 C31.4982138,40.8014509 36.082173,40.789808 36.7299553,40.8433795 L36.8099357,39.236308 C36.1482611,39.1172366 32.5402092,39.2216652 32.0412739,39.1027366 C31.9309948,38.322808 31.8096018,33.1235223 31.9200132,32.5876652 C32.4188823,31.0341652 40.0019437,24.6952366 40.8316501,24.4542366 C41.0189327,24.4125223 41.2973759,24.3314509 41.6143208,24.2583795 L44.0564705,24.2583795 L45.4650926,22.0273795 Z M42.6783455,38.3376652 L42.6893933,40.7423795 L43.7175624,40.8376652 L44.8255135,40.9269509 L45.1507939,38.5727366 L43.982047,38.5102366 L42.6783455,38.3376652 Z M43.0283676,36.7573795 L45.0572518,36.9329509 L47.4193548,27.0786652 C47.0252741,27.0639509 43.4391192,26.6978795 42.9731288,26.5996652 L43.0283676,36.7573795 Z M43.0283676,36.7573795" id="Shape" fill="#FFFFFF" sketch:type="MSShapeGroup"></path>
                <path d="M59.0322581,30 C59.0322581,46.5685433 46.0152907,60 29.9580459,60 C24.0027941,60 18.4657302,58.1525134 13.8559203,54.9827754 L47.170009,5.81941103 C54.3639732,11.2806503 59.0322581,20.0777973 59.0322581,30 Z M59.0322581,30" id="reflec" fill-opacity="0.08" fill="#000000" sketch:type="MSShapeGroup"></path>
            </g>
        </g>
    </g>
</svg>