<?xml version="1.0" encoding="UTF-8" standalone="no"?>
<svg width="60px" height="60px" viewBox="0 0 60 60" version="1.1" xmlns="http://www.w3.org/2000/svg" xmlns:xlink="http://www.w3.org/1999/xlink" xmlns:sketch="http://www.bohemiancoding.com/sketch/ns">
    <title>YouTube</title>
    <description>Created with Sketch (http://www.bohemiancoding.com/sketch)</description>
    <defs></defs>
    <g id="Page-1" stroke="none" stroke-width="1" fill="none" fill-rule="evenodd" sketch:type="MSPage">
        <g id="YouTube" sketch:type="MSArtboardGroup">
            <g id="Youtube" sketch:type="MSLayerGroup">
                <path d="M0.449161376,30 C0.449161376,13.4314567 13.6795217,0 30,0 C46.3204783,0 59.5508386,13.4314567 59.5508386,30 C59.5508386,46.5685433 46.3204783,60 30,60 C13.6795217,60 0.449161376,46.5685433 0.449161376,30 Z M0.449161376,30" id="YouTube" fill="#CD332D" sketch:type="MSShapeGroup"></path>
                <path d="M43.3055802,30.4283125 C44.7231802,31.8623516 44.7385158,38.9418535 44.7385158,38.9827559 C44.7385158,38.9827559 44.7270316,46.0991133 43.3055802,47.5381387 C41.8938624,48.9691426 29.9943279,49 29.9943279,49 C29.9943279,49 18.096474,48.9691426 16.6810449,47.5382109 C15.2654757,46.1040996 15.2615542,39.0364492 15.2615542,38.9827559 C15.2615542,38.941998 15.2654057,31.8623516 16.6810449,30.4283125 C18.0966141,28.9964414 29.9943279,28.9773633 29.9943279,28.9784473 C29.9943279,28.9773633 41.8938624,28.9964414 43.3055802,30.4283125 Z M22.0366792,44.8838945 L20.0983683,44.8838945 L20.0983683,34.5990508 L18.0945133,34.5990508 L18.0945133,32.8515234 L24.0404642,32.8515234 L24.0405342,34.5990508 L22.0366792,34.5990508 L22.0366792,44.8838945 Z M27.9883722,43.9077305 C27.6682848,44.2699258 27.3403545,44.5435957 26.9951979,44.7307637 C26.651862,44.9219063 26.3200803,45.0133223 25.9960714,45.0133223 C25.596785,45.0133223 25.3016968,44.8839668 25.0973618,44.6173789 C24.898699,44.3515137 24.7964615,43.9586055 24.7964615,43.4281035 L24.7964615,36.0061348 L26.5149618,36.0061348 L26.5149618,42.8150742 C26.5149618,43.0260176 26.5515852,43.1772695 26.6211207,43.2707812 C26.6963283,43.3663164 26.8139714,43.4121328 26.9740501,43.4121328 C27.0994661,43.4121328 27.2614356,43.3494063 27.4542863,43.2250371 C27.6490977,43.099584 27.8245821,42.942334 27.9884422,42.7503242 L27.9884422,36.0062793 L29.7068725,36.0062793 L29.7068025,44.8839668 L27.9883722,44.8839668 L27.9883722,43.9077305 Z M34.370373,44.9962676 C34.0328492,44.9962676 33.7338395,44.9337578 33.4715233,44.8043301 C33.2093471,44.6750469 32.9604058,44.4759551 32.7368138,44.2033691 L32.7368138,44.8839668 L30.9991965,44.8839668 L30.9991965,32.8515234 L32.7368138,32.8515234 L32.7368138,36.7256113 C32.9701394,36.4568555 33.2150892,36.248875 33.473554,36.1096914 C33.7357302,35.9684121 34.0001472,35.8986758 34.2661047,35.8986758 C34.8119549,35.8986758 35.226647,36.0877949 35.5120717,36.4640098 C35.8013478,36.8431152 35.9441302,37.3973926 35.9441302,38.1238789 L35.9441302,43.0498652 C35.9439901,43.677709 35.8088406,44.1594316 35.5390316,44.4948887 C35.2709733,44.8311406 34.8795297,44.9962676 34.370373,44.9962676 Z M38.6170105,42.3303887 C38.6170105,42.7981641 38.6731011,43.1215527 38.7847921,43.3036621 C38.9004745,43.483748 39.0933252,43.5724902 39.3672657,43.5724902 C39.6525504,43.5724902 39.8512832,43.4957441 39.965075,43.342541 C40.076976,43.1892656 40.1367079,42.8529414 40.1367079,42.3303887 L40.1367079,41.9254121 L41.9052766,41.9254121 L41.9052766,42.3812637 C41.9052766,43.2918828 41.691068,43.9774668 41.2572589,44.4401836 C40.8291919,44.8979863 40.1848856,45.1257676 39.3286816,45.1257676 C38.5590993,45.1257676 37.9515565,44.8838945 37.5099045,44.3942949 C37.0681124,43.9078027 36.8443804,43.2368887 36.8443804,42.3811914 L36.8443804,38.3945859 C36.8443804,37.6273418 37.0893302,36.9963906 37.5753785,36.5127168 C38.0612867,36.0281035 38.6861959,35.7863027 39.4577389,35.7863027 C40.2445475,35.7863027 40.8501996,36.0111211 41.2725245,36.4599629 C41.6948494,36.9077207 41.9052066,37.5526191 41.9052066,38.3945859 L41.9052066,40.6575117 L38.6170105,40.657584 L38.6170105,42.3303887 Z M33.9923043,37.5386719 C34.1136588,37.6938262 34.1735308,37.9216797 34.1735308,38.221293 L34.1735308,42.8050293 C34.1735308,43.0905508 34.1214317,43.2915938 34.0232556,43.4160352 C33.9249396,43.5434395 33.770533,43.606166 33.5603158,43.606166 C33.4138221,43.606166 33.2769219,43.5722012 33.1456237,43.5096191 C33.012645,43.447832 32.8756047,43.3393613 32.7368138,43.1961309 L32.7368138,37.6651367 C32.8543869,37.5427188 32.9720301,37.4521699 33.0915639,37.3943574 C33.2112378,37.334666 33.3326624,37.3077832 33.4560476,37.3077832 C33.6874125,37.3077832 33.8668883,37.3853965 33.9923043,37.5386719 Z M38.7945256,37.5844883 C38.6749918,37.7395703 38.6171506,38.0083262 38.6171506,38.379627 L38.6171506,39.2762266 L40.136918,39.2762266 L40.136918,38.379627 C40.136918,38.0083984 40.0752254,37.7397871 39.9555515,37.5844883 C39.8398691,37.4182051 39.6451276,37.3396523 39.3847021,37.3396523 C39.1109017,37.3396523 38.9141995,37.4182051 38.7945256,37.5844883 Z M38.7945256,37.5844883" id="Path" fill="#FFFFFF" sketch:type="MSShapeGroup"></path>
                <path d="M19.197838,12 L21.7917294,20.0030566 L21.7917294,25.2545273 L23.9712088,25.2545273 L23.9712088,19.7552578 L26.5072589,12 L24.2912261,12 L22.9451924,17.2982266 L22.8082222,17.2982266 L21.392583,12 L19.197838,12 Z M29.5467938,15.2294063 C30.3471173,15.2294063 31.0048686,15.4661484 31.5178767,15.9399219 C32.0269634,16.4126113 32.2835376,17.0226055 32.2835376,17.7680254 L32.2835376,22.8193926 C32.2835376,23.6552891 32.0328456,24.3101602 31.5333524,24.7868965 C31.027977,25.2625488 30.3394845,25.501459 29.4581413,25.501459 C28.6134214,25.501459 27.9345925,25.2545996 27.4253657,24.7651445 C26.9200603,24.2734492 26.6636263,23.6117129 26.6636263,22.7808027 L26.6634862,17.713248 C26.6634862,16.9539531 26.9238417,16.3508965 27.4465134,15.9030664 C27.9672944,15.4542246 28.6692319,15.2294063 29.5467938,15.2294063 Z M29.4541498,23.8074805 C29.716536,23.8074805 29.9228317,23.7319629 30.079059,23.5836016 C30.2334656,23.4322773 30.3106339,23.2263926 30.3106339,22.9655859 L30.3106339,17.6385254 C30.3106339,17.4246914 30.2314349,17.2524824 30.0733169,17.1200918 C29.9151989,16.9887852 29.7088332,16.9240352 29.4541498,16.9240352 C29.2169728,16.9240352 29.0260828,16.9887852 28.8775583,17.1200918 C28.7309946,17.2524824 28.655787,17.4245469 28.655787,17.6385254 L28.655787,22.9656582 C28.6557169,23.2333301 28.7270731,23.4392871 28.8639733,23.5875762 C29.0009436,23.7348535 29.1977157,23.8074805 29.4541498,23.8074805 Z M37.4406491,25.2545996 L37.4406491,24.1748789 C37.0876496,24.5719063 36.7155331,24.8775176 36.3277309,25.0844141 C35.9420294,25.2923945 35.5678122,25.3960234 35.2051491,25.3960234 C34.7539737,25.3960234 34.4202312,25.2496855 34.1927878,24.9591055 C33.967095,24.6675137 33.8533033,24.2316797 33.8533033,23.6484238 L33.8533033,15.4761211 L35.7857321,15.4761211 L35.7857321,22.9725957 C35.7857321,23.2044961 35.8301984,23.3716465 35.9111481,23.4751309 C35.9902071,23.5787598 36.1232559,23.6313691 36.3046224,23.6313691 C36.445374,23.6313691 36.6267405,23.5617773 36.8445905,23.4254121 C37.0605497,23.2881074 37.2611732,23.112791 37.440509,22.8979453 L37.440509,15.4761211 L39.3769993,15.4761211 L39.3769993,25.2545996 L37.4406491,25.2545996 Z M37.4406491,25.2545996" id="Path" fill="#FFFFFF" sketch:type="MSShapeGroup"></path>
                <path d="M59.5508386,30 C59.5508386,46.5685433 46.3204783,60 30,60 C23.9471212,60 18.3192858,58.1525134 13.6339051,54.9827754 L47.4941264,5.81941103 C54.8060245,11.2806503 59.5508386,20.0777973 59.5508386,30 Z M59.5508386,30" id="reflec" fill-opacity="0.08" fill="#000000" sketch:type="MSShapeGroup"></path>
            </g>
        </g>
    </g>
</svg>