<?xml version="1.0" encoding="UTF-8" standalone="no"?>
<svg width="50px" height="50px" viewBox="0 0 50 50" version="1.1" xmlns="http://www.w3.org/2000/svg" xmlns:xlink="http://www.w3.org/1999/xlink" xmlns:sketch="http://www.bohemiancoding.com/sketch/ns">
    <title>Android</title>
    <description>Created with Sketch (http://www.bohemiancoding.com/sketch)</description>
    <defs></defs>
    <g id="Page-1" stroke="none" stroke-width="1" fill="none" fill-rule="evenodd" sketch:type="MSPage">
        <g id="Android" sketch:type="MSArtboardGroup" fill="#000000">
            <path d="M0,25 C0,38.8071194 11.1928806,50 25,50 C38.8071194,50 50,38.8071194 50,25 C50,11.1928806 38.8071194,0 25,0 C11.1928806,0 0,11.1928806 0,25 Z M3,25 C3,37.1502651 12.8497349,47 25,47 C37.1502651,47 47,37.1502651 47,25 C47,12.8497349 37.1502651,3 25,3 C12.8497349,3 3,12.8497349 3,25 Z M21.3246556,14.8506886 L20.2186758,12.7731333 C20.0847942,12.5216445 20.1720408,12.2047824 20.4135672,12.0653785 C20.6550936,11.9259746 20.9594035,12.0168199 21.0932851,12.2683087 L22.2271727,14.3982882 C23.0774227,14.0453669 24.014941,13.8498102 24.9999815,13.8498102 C25.9850197,13.8498102 26.9225369,14.0453673 27.7727778,14.398283 L28.906678,12.2683087 C29.0405595,12.0168199 29.3448695,11.9259746 29.5863589,12.0653785 C29.8279222,12.2047824 29.9151688,12.5216445 29.7812872,12.7731333 L28.6752945,14.8506846 C29.622865,15.4136214 30.4202899,16.1877701 30.9964182,17.1047333 C31.0042232,17.1171563 31.0118845,17.129439 31.0194206,17.1416087 C31.6422599,18.1473635 31.9999966,19.3224614 31.9999966,20.5778671 C31.9999966,20.5953088 31.9999276,20.6127351 31.9997898,20.6301437 C31.9999275,20.6394044 31.9999966,20.6486824 31.9999966,20.6579772 L31.9999966,20.7196951 L17.9999664,20.7196951 L17.9999664,20.6579387 C17.9999664,20.6486486 18.0000355,20.6393753 18.000173,20.6301193 C18.0000354,20.6127188 17.9999664,20.5953007 17.9999664,20.5778671 C17.9999664,18.1577521 19.3293945,16.0360839 21.3246556,14.8506886 Z M30.3076861,33.473364 L29.4614939,33.473364 L29.4614939,37.077665 C29.4614939,38.1393357 28.6349608,39 27.615347,39 C26.5957332,39 25.7692001,38.1393357 25.7692001,37.077665 L25.7692001,33.473364 L24.2307259,33.473364 L24.2307259,37.077665 C24.2307259,38.1393357 23.4041559,39 22.3845791,39 C21.3650023,39 20.5384322,38.1393357 20.5384322,37.077665 L20.5384322,33.473364 L19.6922769,33.473364 C18.7576556,33.473364 17.9999664,32.6844217 17.9999664,31.7112492 L17.9999664,20.9967329 L31.9999966,20.9967329 L31.9999966,31.7112492 C31.9999966,32.6844217 31.2423074,33.473364 30.3076861,33.473364 Z M17.6922937,29.3082921 C17.6922937,30.3699627 16.8657606,31.2305886 15.8461469,31.2305886 C14.8265331,31.2305886 14,30.3699627 14,29.3082921 L14,22.5001635 C14,21.4385314 14.8265331,20.5778671 15.8461469,20.5778671 C16.8657237,20.5778671 17.6922937,21.4385314 17.6922937,22.5001635 L17.6922937,29.3082921 Z M21.7691968,16.973566 C21.5992739,16.973566 21.4615241,17.1169976 21.4615241,17.2939295 C21.4615241,17.4708614 21.5992739,17.614293 21.7691968,17.614293 C21.9391197,17.614293 22.0768695,17.4708614 22.0768695,17.2939295 C22.0768695,17.1169976 21.9391197,16.973566 21.7691968,16.973566 Z M36,29.3082921 C36,30.3699627 35.1734299,31.2305886 34.1538162,31.2305886 C33.1342394,31.2305886 32.3076693,30.3699627 32.3076693,29.3082921 L32.3076693,22.5001635 C32.3076693,21.4385314 33.1342394,20.5778671 34.1538162,20.5778671 C35.1734299,20.5778671 36,21.4385314 36,22.5001635 L36,29.3082921 Z M28.2307663,16.973566 C28.0608433,16.973566 27.9230936,17.1169976 27.9230936,17.2939295 C27.9230936,17.4708614 28.0608433,17.614293 28.2307663,17.614293 C28.4006892,17.614293 28.5384389,17.4708614 28.5384389,17.2939295 C28.5384389,17.1169976 28.4006892,16.973566 28.2307663,16.973566 Z M28.2307663,16.973566" id="Oval-1" sketch:type="MSShapeGroup"></path>
        </g>
    </g>
</svg>