<?xml version="1.0" encoding="UTF-8" standalone="no"?>
<svg width="50px" height="50px" viewBox="0 0 50 50" version="1.1" xmlns="http://www.w3.org/2000/svg" xmlns:xlink="http://www.w3.org/1999/xlink" xmlns:sketch="http://www.bohemiancoding.com/sketch/ns">
    <title>Apple</title>
    <description>Created with Sketch (http://www.bohemiancoding.com/sketch)</description>
    <defs></defs>
    <g id="Page-1" stroke="none" stroke-width="1" fill="none" fill-rule="evenodd" sketch:type="MSPage">
        <g id="Apple" sketch:type="MSArtboardGroup" fill="#000000">
            <path d="M50,25 C50,11.1928806 38.8071194,0 25,0 C11.1928806,0 0,11.1928806 0,25 C0,38.8071194 11.1928806,50 25,50 C38.8071194,50 50,38.8071194 50,25 Z M47,25 C47,12.8497349 37.1502651,3 25,3 C12.8497349,3 3,12.8497349 3,25 C3,37.1502651 12.8497349,47 25,47 C37.1502651,47 47,37.1502651 47,25 Z M34.3555408,19.5235592 C32.9127276,17.3746396 30.6652758,17.0802557 29.8643312,17.0462226 C27.9516297,16.8491041 26.1321863,18.1924107 25.16142,18.1924107 C24.1931481,18.1924107 22.6952147,17.0753729 21.1089165,17.1047186 C19.0241386,17.1362614 17.1018427,18.3385529 16.0283677,20.2389868 C13.8622769,24.0646104 15.4736647,29.732172 17.5848273,32.8348486 C18.6164225,34.3534476 19.8465268,36.0593509 21.4616084,35.9984136 C23.0169166,35.9352302 23.6050564,34.9740513 25.4854725,34.9740513 C27.3658886,34.9740513 27.8943509,35.9984136 29.5403746,35.9669683 C31.2139823,35.9353278 32.2743609,34.4191701 33.2988082,32.8957859 C34.4834828,31.1338769 34.9712646,29.4280714 35,29.340474 C34.9628215,29.3232377 31.7364001,28.0651847 31.7040668,24.2835063 C31.6730288,21.1174022 34.2407912,19.5989984 34.3555408,19.5235592 Z M29.8893727,11 C28.654615,11.0511717 27.1578809,11.8371558 26.2720254,12.893305 C25.4770773,13.8302164 24.7813358,15.3255733 24.967756,16.7613602 C26.3461905,16.8708813 27.7532645,16.048374 28.61144,14.9922247 C29.4686081,13.9336829 30.0472014,12.4650836 29.8893727,11 Z M29.8893727,11" id="Oval-1" sketch:type="MSShapeGroup"></path>
        </g>
    </g>
</svg>