<?xml version="1.0" encoding="UTF-8" standalone="no"?>
<svg width="50px" height="50px" viewBox="0 0 50 50" version="1.1" xmlns="http://www.w3.org/2000/svg" xmlns:xlink="http://www.w3.org/1999/xlink" xmlns:sketch="http://www.bohemiancoding.com/sketch/ns">
    <title>Blogger</title>
    <description>Created with Sketch (http://www.bohemiancoding.com/sketch)</description>
    <defs></defs>
    <g id="Page-1" stroke="none" stroke-width="1" fill="none" fill-rule="evenodd" sketch:type="MSPage">
        <g id="Blogger" sketch:type="MSArtboardGroup" fill="#000000">
            <path d="M50,25 C50,11.1928806 38.8071194,0 25,0 C11.1928806,0 0,11.1928806 0,25 C0,38.8071194 11.1928806,50 25,50 C38.8071194,50 50,38.8071194 50,25 Z M47,25 C47,12.8497349 37.1502651,3 25,3 C12.8497349,3 3,12.8497349 3,25 C3,37.1502651 12.8497349,47 25,47 C37.1502651,47 47,37.1502651 47,25 Z M14,28.8986406 C14,32.8228477 17.2049102,36 21.1539531,36 L28.8544258,36 C32.8063906,36 36,32.8228477 36,28.8986406 L36,23.8630898 C36,23.0788672 35.3675,22.4423281 34.5776484,22.4423281 L33.3700977,22.4423281 C32.5888398,22.4423281 31.9736563,21.8570938 31.9220508,21.121082 C31.9136289,17.1796445 28.7112969,14 24.7595898,14 L21.1539531,14 C17.2049102,14 14.002793,17.1796875 14,21.1041523 L14,28.8986406 Z M27,21.5001179 C27,22.3263074 26.3641346,23 25.5840879,23 L21.4159121,23 C20.6359096,23 20,22.3264017 20,21.5001179 C19.9999116,20.6705805 20.6358212,20 21.4159121,20 L25.5840879,20 C26.3641346,20 27,20.6705805 27,21.5001179 Z M31,28.4932201 C31,29.3206654 30.3988164,30 29.6624116,30 L21.3288673,30 C20.5925066,30 20,29.3206654 20,28.4932201 C20,27.6657749 20.5925947,27 21.3288673,27 L29.6624116,27 C30.3988164,27 31,27.665725 31,28.4932201 Z M31,28.4932201" id="Oval-1" sketch:type="MSShapeGroup"></path>
        </g>
    </g>
</svg>