<?xml version="1.0" encoding="UTF-8" standalone="no"?>
<svg width="50px" height="50px" viewBox="0 0 50 50" version="1.1" xmlns="http://www.w3.org/2000/svg" xmlns:xlink="http://www.w3.org/1999/xlink" xmlns:sketch="http://www.bohemiancoding.com/sketch/ns">
    <title>Chrome</title>
    <description>Created with Sketch (http://www.bohemiancoding.com/sketch)</description>
    <defs></defs>
    <g id="Page-1" stroke="none" stroke-width="1" fill="none" fill-rule="evenodd" sketch:type="MSPage">
        <g id="Chrome" sketch:type="MSArtboardGroup" fill="#000000">
            <path d="M25,0 C11.1928806,0 0,11.1928806 0,25 C0,38.8071194 11.1928806,50 25,50 C38.8071194,50 50,38.8071194 50,25 C50,11.1928806 38.8071194,0 25,0 Z M25,3 C12.8497349,3 3,12.8497349 3,25 C3,37.1502651 12.8497349,47 25,47 C37.1502651,47 47,37.1502651 47,25 C47,12.8497349 37.1502651,3 25,3 Z M24.5761747,20.9327856 C26.7678529,20.9327856 28.5510766,22.7909511 28.5510766,25.0751839 C28.5511199,27.3590108 26.7678961,29.2173566 24.5761747,29.2173566 C22.3844965,29.2173566 20.6014459,27.3590108 20.6014459,25.0751839 C20.6014459,22.7909511 22.3844965,20.9327856 24.5761747,20.9327856 Z M21.7489764,29.0200994 C21.0147536,28.3887768 20.4675372,27.5579253 20.1659559,26.6153377 L15.7839409,18.7029499 C14.2102663,21.2252645 13.6518866,24.2328061 14.2120403,27.1907021 C14.7825785,30.2031136 16.4443909,32.8034811 18.8916127,34.5132964 C20.1664751,35.4038486 21.5788015,35.9978357 23.0903857,36.2794306 L26.7050776,29.9093891 C26.1488613,30.1202809 25.5663378,30.2267865 24.9692761,30.2267865 C23.797782,30.2267865 22.6540231,29.798149 21.7489764,29.0200994 Z M16.200482,17.7782177 L19.9008454,24.4576753 C20.1409854,22.517579 21.4296072,20.8025332 23.3380067,20.1769822 C23.7984265,20.026197 24.2774519,19.9459346 24.7598521,19.9388553 L34.7965379,19.9388553 C32.0608019,14.2026165 25.3807548,11.863688 19.8765285,14.7146728 C18.4519572,15.452546 17.2002001,16.4987533 16.200482,17.7782177 Z M35.9693178,25.8710896 C36.0900368,24.2051481 35.8530986,22.4994361 35.2838153,20.9327856 L28.0462971,20.9327856 C29.2640019,21.9373286 29.9784942,23.4724603 29.9713549,25.0992175 C29.9661627,26.2704628 29.5808136,27.4215073 28.8825902,28.3456525 L24.2689158,36.4761016 C24.5065463,36.4919738 24.7459507,36.5 24.9821534,36.5 C27.7554897,36.5 30.409405,35.4162768 32.4542732,33.448765 C34.509872,31.4711528 35.7582109,28.7799264 35.9693178,25.8710896 Z M35.9693178,25.8710896" id="Oval-1" sketch:type="MSShapeGroup"></path>
        </g>
    </g>
</svg>