<?xml version="1.0" encoding="UTF-8" standalone="no"?>
<svg width="50px" height="50px" viewBox="0 0 50 50" version="1.1" xmlns="http://www.w3.org/2000/svg" xmlns:xlink="http://www.w3.org/1999/xlink" xmlns:sketch="http://www.bohemiancoding.com/sketch/ns">
    <title>CSS3</title>
    <description>Created with Sketch (http://www.bohemiancoding.com/sketch)</description>
    <defs></defs>
    <g id="Page-1" stroke="none" stroke-width="1" fill="none" fill-rule="evenodd" sketch:type="MSPage">
        <g id="CSS3" sketch:type="MSArtboardGroup" fill="#000000">
            <path d="M50,25 C50,11.1928806 38.8071194,0 25,0 C11.1928806,0 0,11.1928806 0,25 C0,38.8071194 11.1928806,50 25,50 C38.8071194,50 50,38.8071194 50,25 Z M47,25 C47,12.8497349 37.1502651,3 25,3 C12.8497349,3 3,12.8497349 3,25 C3,37.1502651 12.8497349,47 25,47 C37.1502651,47 47,37.1502651 47,25 Z M17.2739609,15 L16.5357578,18.8949486 L31.5694063,18.8949486 L31.0992422,21.4108545 L16.0561406,21.4108545 L15.3279922,25.3051687 L30.3603086,25.3051687 L29.5219883,29.7469589 L23.4631367,31.8634153 L18.2123555,29.7469589 L18.5717461,27.8203496 L14.878625,27.8203496 L14,32.4952123 L22.684543,36 L32.6964336,32.4952123 L34.0251133,25.4631633 L34.2938398,24.0529022 L36,15 L17.2739609,15 L17.2739609,15 Z M17.2739609,15" id="Oval-1" sketch:type="MSShapeGroup"></path>
        </g>
    </g>
</svg>