<?xml version="1.0" encoding="UTF-8" standalone="no"?>
<svg width="50px" height="50px" viewBox="0 0 50 50" version="1.1" xmlns="http://www.w3.org/2000/svg" xmlns:xlink="http://www.w3.org/1999/xlink" xmlns:sketch="http://www.bohemiancoding.com/sketch/ns">
    <title>Dribbble</title>
    <description>Created with Sketch (http://www.bohemiancoding.com/sketch)</description>
    <defs></defs>
    <g id="Page-1" stroke="none" stroke-width="1" fill="none" fill-rule="evenodd" sketch:type="MSPage">
        <g id="Dribbble" sketch:type="MSArtboardGroup" fill="#000000">
            <path d="M50,25 C50,11.1928806 38.8071194,0 25,0 C11.1928806,0 0,11.1928806 0,25 C0,38.8071194 11.1928806,50 25,50 C38.8071194,50 50,38.8071194 50,25 Z M47,25 C47,12.8497349 37.1502651,3 25,3 C12.8497349,3 3,12.8497349 3,25 C3,37.1502651 12.8497349,47 25,47 C37.1502651,47 47,37.1502651 47,25 Z M38.7244903,27.8178301 C38.5464711,28.7188146 38.2827977,29.6033609 37.9373803,30.4489482 C37.5998888,31.2795768 37.1812875,32.0800135 36.6921442,32.8264778 C36.2102929,33.5682298 35.6552049,34.2641189 35.0454271,34.8984738 C34.4343282,35.530089 33.7619346,36.1049372 33.0480084,36.6074567 C32.3268431,37.1118941 31.554951,37.5459754 30.7546309,37.8980843 C29.9391984,38.2549056 29.0854566,38.5283297 28.2186104,38.7128773 C27.3287258,38.9029591 26.4136892,39 25.4993923,39 C24.5844086,39 23.6694248,38.9029591 22.7808084,38.7128773 C21.9126412,38.5283297 21.0589522,38.2549056 20.2441538,37.8980843 C19.4438865,37.5459754 18.6712546,37.1118941 17.9500893,36.6074567 C17.2361632,36.104992 16.5637695,35.530089 15.9539917,34.8984738 C15.3435798,34.2641189 14.7884918,33.5682298 14.3059535,32.8264778 C13.8194523,32.0800135 13.400164,31.279522 13.0613516,30.4489482 C12.7158813,29.6033609 12.4515738,28.7187598 12.2729205,27.8178301 C12.0923121,26.8949278 12,25.9481351 12,25.0000274 C12,24.0512073 12.0922593,23.1023873 12.2729733,22.1815124 C12.4516266,21.2805278 12.7159341,20.3946118 13.0614044,19.5503942 C13.4002168,18.719163 13.8195051,17.9180139 14.3060064,17.1714948 C14.7885446,16.4291401 15.3436326,15.7345661 15.9540445,15.0994988 C16.5638224,14.4678288 17.236216,13.8943505 17.9501422,13.3925981 C18.6713075,12.8860237 19.4439393,12.4519972 20.2442066,12.0992307 C21.0590051,11.7416424 21.9126412,11.4675607 22.7808612,11.284383 C23.6694776,11.0957258 24.5844614,11 25.4994452,11 C26.413742,11 27.3287258,11.0957258 28.2186632,11.284383 C29.0855094,11.4676155 29.9391984,11.7416972 30.7546837,12.0992307 C31.554951,12.4519424 32.3268959,12.8860237 33.0480612,13.3925981 C33.7619874,13.8943505 34.4344339,14.4678288 35.0454799,15.0994988 C35.6552577,15.7345661 36.2103458,16.4291401 36.692197,17.1714948 C37.1812875,17.9180139 37.5998888,18.7192178 37.9373803,19.5503942 C38.2827977,20.3946118 38.5464711,21.2805278 38.7244903,22.1815124 C38.9070538,23.1023873 39,24.0512073 39,25.0000274 C39,25.9481351 38.9070538,26.8949278 38.7244903,27.8178301 Z M14.2175516,22.5349911 C14.5214894,22.5377308 19.3258411,22.6006348 24.8612392,21.0754871 C22.8658285,17.3991108 20.7339311,14.3988975 20.5803242,14.1862403 C17.365305,15.7605934 14.9657712,18.8326422 14.2175516,22.5349911 Z M13.9796114,24.6186035 C13.9762825,24.7470964 13.9703644,24.8714797 13.9703644,25.0000274 C13.9703644,28.0713639 15.0877267,30.8713584 16.9242993,32.9885049 C16.9203363,32.9823131 20.0753817,27.1779409 26.2970177,25.0916437 C26.4472956,25.0396986 26.6002685,24.9931781 26.7518675,24.9480823 C26.4625137,24.2686316 26.1466868,23.5877562 25.8164345,22.9164698 C19.8802422,24.7593703 14.1839451,24.6267679 13.9796114,24.6186035 Z M25.4993923,13.0453659 C24.5626383,13.0453659 23.6535727,13.1629547 22.7827635,13.3803241 C22.9554458,13.6209812 25.1210025,16.6000438 27.0926879,20.3542831 C31.4428766,18.6631083 33.0849438,16.0708942 33.1133191,16.0271682 C31.0835621,14.1711719 28.4183998,13.0453659 25.4993923,13.0453659 Z M27.4611966,26.9550921 C20.6588814,29.4141748 18.4374931,34.3699319 18.4134588,34.4240302 C20.3707065,36.0024168 22.825617,36.9546889 25.4993923,36.9546889 C27.095964,36.9546889 28.6167625,36.6175937 30.0004403,36.0072387 C29.8297131,34.9626928 29.1599615,31.3013849 27.5376566,26.9291195 C27.5119762,26.9379414 27.4862958,26.9455578 27.4611966,26.9550921 Z M36.8819996,26.894873 C36.6446936,26.8155855 33.4191591,25.7566835 29.6978764,26.3753672 C31.2101148,30.6847834 31.8245426,34.1943656 31.941901,34.9148573 C34.5306034,33.103354 36.369131,30.2268117 36.8819996,26.894873 Z M28.7460101,23.8693447 C28.8310831,24.0785497 28.9141481,24.2836452 28.9952052,24.4886859 C32.9557491,23.971865 36.8576402,24.8413976 37.0244573,24.8769044 C36.9980899,22.0427729 36.0204375,19.4416821 34.4027825,17.4053025 C34.3810123,17.4373573 32.5319166,20.207982 27.9800361,22.135759 C28.2476197,22.7058949 28.5067489,23.2861677 28.7460101,23.8693447 Z M28.7460101,23.8693447" id="Oval-1" sketch:type="MSShapeGroup"></path>
        </g>
    </g>
</svg>