<?xml version="1.0" encoding="UTF-8" standalone="no"?>
<svg width="50px" height="50px" viewBox="0 0 50 50" version="1.1" xmlns="http://www.w3.org/2000/svg" xmlns:xlink="http://www.w3.org/1999/xlink" xmlns:sketch="http://www.bohemiancoding.com/sketch/ns">
    <title>Dropbox</title>
    <description>Created with Sketch (http://www.bohemiancoding.com/sketch)</description>
    <defs></defs>
    <g id="Page-1" stroke="none" stroke-width="1" fill="none" fill-rule="evenodd" sketch:type="MSPage">
        <g id="Dropbox" sketch:type="MSArtboardGroup" fill="#000000">
            <path d="M0,25 C0,38.8071194 11.1928806,50 25,50 C38.8071194,50 50,38.8071194 50,25 C50,11.1928806 38.8071194,0 25,0 C11.1928806,0 0,11.1928806 0,25 Z M3,25 C3,37.1502651 12.8497349,47 25,47 C37.1502651,47 47,37.1502651 47,25 C47,12.8497349 37.1502651,3 25,3 C12.8497349,3 3,12.8497349 3,25 Z M24.749645,38 L16.5946861,32.4152044 L16.5946861,31.1108455 L19.0337546,32.5928161 L19.3052615,32.7572235 L19.5558368,32.5607325 L24.8244943,28.4151481 L30.0913437,32.5607325 L30.343782,32.7585159 L30.6159464,32.5909619 L33.0893711,31.0692661 L33.0893711,32.4530192 L24.749645,38 Z M19.5024658,12 L11,17.6791922 L16.8552329,22.246752 L11,26.814986 L16.8257534,30.3534541 L19.5025205,31.9790424 L25.0556164,27.6098841 L30.6069041,31.9790424 L33.3204384,30.3093462 L39,26.814986 L33.5765479,22.0484067 L39,17.4140389 L30.7364384,12 L25.0555616,16.8850245 L19.5024658,12 Z M16.9566027,22.1667396 L25.0728219,17.1381535 L33.0931507,21.8632095 L24.999726,27.3628796 L16.9566027,22.1667396 Z M16.9566027,22.1667396" id="Oval-1" sketch:type="MSShapeGroup"></path>
        </g>
    </g>
</svg>