<?xml version="1.0" encoding="UTF-8" standalone="no"?>
<svg width="50px" height="50px" viewBox="0 0 50 50" version="1.1" xmlns="http://www.w3.org/2000/svg" xmlns:xlink="http://www.w3.org/1999/xlink" xmlns:sketch="http://www.bohemiancoding.com/sketch/ns">
    <title>Flickr</title>
    <description>Created with Sketch (http://www.bohemiancoding.com/sketch)</description>
    <defs></defs>
    <g id="Page-1" stroke="none" stroke-width="1" fill="none" fill-rule="evenodd" sketch:type="MSPage">
        <g id="Flickr" sketch:type="MSArtboardGroup" fill="#000000">
            <path d="M0,25 C0,38.8071194 11.1928806,50 25,50 C38.8071194,50 50,38.8071194 50,25 C50,11.1928806 38.8071194,0 25,0 C11.1928806,0 0,11.1928806 0,25 Z M3,25 C3,37.1502651 12.8497349,47 25,47 C37.1502651,47 47,37.1502651 47,25 C47,12.8497349 37.1502651,3 25,3 C12.8497349,3 3,12.8497349 3,25 Z M11,24.3933898 C11,27.9245881 13.8664452,30.7868324 17.4026552,30.7868852 C20.9389182,30.7868852 23.8053634,27.9245881 23.8053634,24.3933898 C23.8053634,20.8622443 20.9389711,17.9999472 17.4026552,18 C13.8664452,18 11,20.8622443 11,24.3933898 Z M33.4026552,30.7868852 C36.9389711,30.7868852 39.8053634,27.9245881 39.8053634,24.3933898 C39.8053634,20.8622971 36.9389182,18 33.4026552,18 C29.8663923,18 27,20.8622971 27,24.3933898 C27,27.9245881 29.8664452,30.7868852 33.4026552,30.7868852 Z M33.394864,19.9672131 C35.8394032,19.9672131 37.8210935,21.9489034 37.8210935,24.3934426 C37.8210935,26.8379818 35.8394032,28.8196721 33.394864,28.8196721 C30.9503248,28.8196721 28.9686345,26.8379818 28.9686345,24.3934426 C28.9686345,21.9489034 30.9503248,19.9672131 33.394864,19.9672131 Z M33.394864,19.9672131" id="Oval-1" sketch:type="MSShapeGroup"></path>
        </g>
    </g>
</svg>