<?xml version="1.0" encoding="UTF-8" standalone="no"?>
<svg width="50px" height="50px" viewBox="0 0 50 50" version="1.1" xmlns="http://www.w3.org/2000/svg" xmlns:xlink="http://www.w3.org/1999/xlink" xmlns:sketch="http://www.bohemiancoding.com/sketch/ns">
    <title>Forrst</title>
    <description>Created with Sketch (http://www.bohemiancoding.com/sketch)</description>
    <defs></defs>
    <g id="Page-1" stroke="none" stroke-width="1" fill="none" fill-rule="evenodd" sketch:type="MSPage">
        <g id="Forrst" sketch:type="MSArtboardGroup" fill="#000000">
            <path d="M25,50 C38.8071194,50 50,38.8071194 50,25 C50,11.1928806 38.8071194,0 25,0 C11.1928806,0 0,11.1928806 0,25 C0,38.8071194 11.1928806,50 25,50 Z M25,47 C37.1502651,47 47,37.1502651 47,25 C47,12.8497349 37.1502651,3 25,3 C12.8497349,3 3,12.8497349 3,25 C3,37.1502651 12.8497349,47 25,47 Z M23.8381808,31.2730939 L21.1446592,29.3825656 L21.56697,28.7418571 L23.8381808,30.3311057 L23.8381808,25.8137573 L26.2526387,25.8137573 L26.2526387,28.7036027 L28.4704414,27.5051937 L28.8477037,28.2157534 L26.2526903,29.62118 L26.2526903,31.7002329 L30.4094901,29.5684481 L30.7417038,30.2559706 L26.2527419,32.5577867 L26.2527419,37 L36,37 L25,10 L14,37 L23.8381808,37 L23.8381808,31.2730939 Z M23.8381808,31.2730939" id="Oval-1" sketch:type="MSShapeGroup"></path>
        </g>
    </g>
</svg>