<?xml version="1.0" encoding="UTF-8" standalone="no"?>
<svg xmlns:rdf="http://www.w3.org/1999/02/22-rdf-syntax-ns#" xmlns="http://www.w3.org/2000/svg" height="50px" width="50px" version="1.1" xmlns:cc="http://creativecommons.org/ns#" xmlns:dc="http://purl.org/dc/elements/1.1/" viewBox="0 0 50 50">
<metadata>
<rdf:RDF>
<cc:Work rdf:about="">
<dc:format>image/svg+xml</dc:format>
<dc:type rdf:resource="http://purl.org/dc/dcmitype/StillImage"/>
<dc:title>Android</dc:title>
</cc:Work>
</rdf:RDF>
</metadata>
<title>Android</title>
<description>Created with Sketch (http://www.bohemiancoding.com/sketch)</description>
<path fill-rule="evenodd" fill="#000" d="M25,0c-13.807,0-25,11.193-25,25s11.193,25,25,25,25-11.193,25-25-11.193-25-25-25zm0,3c12.15,0,22,9.85,22,22s-9.85,22-22,22-22-9.85-22-22,9.85-22,22-22zm8.094,9.156c-1.104,0.016-3.064,1.02-4.188,1.75-2.095-0.602-6.527-0.543-8.187,0.156-3.064-2.155-4.688-1.812-4.688-1.812s-1.021,1.832-0.25,4.531c-1.008,1.263-1.75,2.164-1.75,4.531,0,1.334,0.14,2.52,0.5,3.563-0.044,0,0.486,1.125,0.5,1.125,1.151,2.054,3.35,3.303,7.094,3.656-0.534,0.399-1.161,1.188-1.25,2.063-0.672,0.427-2.043,0.544-3.094,0.219-1.472-0.457-2.014-3.315-4.219-2.907-0.477,0.089-0.381,0.394,0.032,0.657,0.672,0.427,1.324,0.955,1.812,2.093,0.375,0.874,1.135,2.469,3.625,2.469,0.988,0,1.688-0.125,1.688-0.125v3.063c0,0.999-1.344,1.3-1.344,1.781,0,0.19,0.447,0.219,0.813,0.219,0.721,0,2.218-0.586,2.218-1.626v-4.124c0-1.062,0.594-1.376,0.594-1.376s0.085,5.678-0.125,6.438c-0.247,0.893-0.687,0.758-0.687,1.156,0,0.593,1.806,0.145,2.406-1.156,0.463-1.013,0.25-6.594,0.25-6.594h0.468s0.048,2.555,0.032,3.719c-0.018,1.205-0.103,2.719,0.625,3.437,0.478,0.473,2.031,1.32,2.031,0.563,0-0.44-0.844-0.808-0.844-2v-5.469c0.679,0,0.563,1.782,0.563,1.782l0.062,3.374s-0.149,1.177,1.344,1.688c0.527,0.181,1.666,0.272,1.719-0.031,0.053-0.305-1.363-0.774-1.375-1.719-0.008-0.576,0-0.901,0-3.406,0-2.506-0.339-3.45-1.531-4.188,3.681-0.372,5.982-1.259,7.093-3.656,0.087,0.003,0.454-1.125,0.407-1.125,0.249-0.905,0.379-1.982,0.406-3.25-0.007-3.438-1.71-4.648-2.032-5.219,0.475-2.602-0.055-3.781-0.312-4.187-0.119-0.042-0.249-0.065-0.406-0.063z"/>
</svg>
