<?xml version="1.0" encoding="UTF-8" standalone="no"?>
<svg width="50px" height="50px" viewBox="0 0 50 50" version="1.1" xmlns="http://www.w3.org/2000/svg" xmlns:xlink="http://www.w3.org/1999/xlink" xmlns:sketch="http://www.bohemiancoding.com/sketch/ns">
    <title>Google +</title>
    <description>Created with Sketch (http://www.bohemiancoding.com/sketch)</description>
    <defs></defs>
    <g id="Page-1" stroke="none" stroke-width="1" fill="none" fill-rule="evenodd" sketch:type="MSPage">
        <g id="Google-+" sketch:type="MSArtboardGroup" fill="#000000">
            <path d="M25,0 C11.1928806,0 0,11.1928806 0,25 C0,38.8071194 11.1928806,50 25,50 C38.8071194,50 50,38.8071194 50,25 C50,11.1928806 38.8071194,0 25,0 Z M25,3 C12.8497349,3 3,12.8497349 3,25 C3,37.1502651 12.8497349,47 25,47 C37.1502651,47 47,37.1502651 47,25 C47,12.8497349 37.1502651,3 25,3 Z M38.2449877,22.1097512 L38.2449877,27.3881872 L36.0036768,27.3881872 L36.0036768,22.1097512 L30.7739796,22.1097512 L30.7739796,19.9128403 L36.0036768,19.9128403 L36.0036768,14.6807808 L38.2449877,14.6807808 L38.2449877,19.9128403 L42.2375586,19.9128403 C42.5324436,20.6254301 42.7875249,21.3586918 43,22.1097512 L38.2449877,22.1097512 Z M11.7255525,37.2757943 C14.6396541,35.4919506 18.5644269,35.2563486 20.6868362,35.1217189 C20.0299,34.2802832 19.2718967,33.3883614 19.2718967,31.9242632 C19.2718967,31.1333137 19.5077199,30.6621097 19.7435432,30.1067621 C19.2213631,30.1572483 18.7160276,30.2077344 18.2443811,30.2077344 C13.2752481,30.2077344 10.4622136,26.5054173 10.4622136,22.8535864 C10.4622136,20.699511 11.4560402,18.3064679 13.4605378,16.5747932 C16.1388163,14.3752803 19.3224302,14 21.849108,14 L31.501017,14 L28.5026927,15.6845543 L25.6054356,15.6845543 C26.6834848,16.5747932 28.9238057,18.4478291 28.9238057,22.0121507 C28.9238057,25.4788658 26.952997,27.1112511 24.9990329,28.6594927 C24.3757857,29.2653264 23.6851605,29.9216463 23.6851605,30.9481978 C23.6851605,31.9747494 24.3757857,32.5469257 24.8979658,32.9676435 L26.5824176,34.2802832 C28.6542934,35.996812 30.5240349,37.5955399 30.5240349,40.8266529 C30.5240349,42.9574523 29.5287217,45.0961123 27.5894278,46.7373863 C26.5459915,46.9073414 25.4755787,46.9970613 24.3847411,47 C26.3539444,46.1370063 27.37411,44.55802 27.37411,42.6609828 C27.37411,40.2713054 25.8412588,39.0091518 22.2702209,36.468016 C21.8996415,36.4343586 21.6638183,36.4343586 21.1921718,36.4343586 C20.7710588,36.4343586 18.2443811,36.5185022 16.2735724,37.174822 C15.2460568,37.5450537 12.2477325,38.6725775 12.2477325,42.0046629 C12.2477325,42.3667791 12.2863178,42.7178526 12.3616005,43.0559755 C7.42272978,39.3956824 9.56224074,39.9122538 9,39.9122529 C9.5622407,38.9676509 10.4340377,38.0389613 11.7255525,37.2757943 Z M18.9013173,15.5448759 C17.688512,15.5448759 16.3746395,16.1540754 15.6166362,17.0914348 C14.8249438,18.0742317 14.5891206,19.3363852 14.5891206,20.5480526 C14.5891206,23.6950221 16.4083286,28.8950947 20.451013,28.8950947 C21.6132847,28.8950947 22.8766236,28.3229185 23.6346269,27.582455 C24.7126761,26.5054173 24.7968987,25.0076618 24.7968987,24.1662261 C24.7968987,20.7836546 22.792401,15.5448759 18.9013173,15.5448759 Z M18.9013173,15.5448759" id="Oval-1" sketch:type="MSShapeGroup"></path>
        </g>
    </g>
</svg>