<?xml version="1.0" encoding="UTF-8" standalone="no"?>
<svg width="50px" height="50px" viewBox="0 0 50 50" version="1.1" xmlns="http://www.w3.org/2000/svg" xmlns:xlink="http://www.w3.org/1999/xlink" xmlns:sketch="http://www.bohemiancoding.com/sketch/ns">
    <title>IE</title>
    <description>Created with Sketch (http://www.bohemiancoding.com/sketch)</description>
    <defs></defs>
    <g id="Page-1" stroke="none" stroke-width="1" fill="none" fill-rule="evenodd" sketch:type="MSPage">
        <g id="IE" sketch:type="MSArtboardGroup" fill="#000000">
            <path d="M50,25 C50,11.1928806 38.8071194,0 25,0 C11.1928806,0 0,11.1928806 0,25 C0,38.8071194 11.1928806,50 25,50 C38.8071194,50 50,38.8071194 50,25 Z M47,25 C47,12.8497349 37.1502651,3 25,3 C12.8497349,3 3,12.8497349 3,25 C3,37.1502651 12.8497349,47 25,47 C37.1502651,47 47,37.1502651 47,25 Z M29.7728302,14.1010154 C28.297788,14.394923 26.9331357,14.8667825 25.6743633,15.4649305 C25.4887403,15.4542847 25.3019897,15.4484399 25.1138043,15.4484399 C20.4160343,15.4484399 16.4837159,18.7849595 15.4772925,23.2577619 C17.9533257,20.4292141 19.6861492,19.2879215 20.7238344,18.8311957 C20.5581984,18.9819069 20.3960472,19.134288 20.2365611,19.2878171 C20.1834673,19.3388543 20.1323211,19.3906222 20.0799448,19.4419725 C19.9747823,19.5449863 19.8698248,19.6481045 19.7673273,19.7521619 C19.7063413,19.8140537 19.6469952,19.8764673 19.5869316,19.9387766 C19.4960163,20.0330233 19.405306,20.1271655 19.3165431,20.2219341 C19.2535071,20.2892531 19.1920086,20.3567809 19.1301001,20.4242043 C19.0471795,20.5145892 18.9647715,20.6050786 18.8839009,20.695881 C18.82107,20.7664355 18.7592639,20.83699 18.6975604,20.9077533 C18.6208922,20.9956334 18.5449416,21.0835134 18.4700159,21.1716022 C18.4079023,21.2446616 18.3463013,21.3177211 18.2854178,21.3908849 C18.214387,21.47626 18.1442787,21.5616352 18.0748878,21.6470103 C18.0134918,21.7225746 17.9523008,21.7980346 17.8922372,21.8734945 C17.8272538,21.9551124 17.7637053,22.0366258 17.7002593,22.1180349 C17.6387608,22.1969391 17.5772622,22.2757389 17.5171987,22.3545387 C17.460005,22.4295811 17.4044514,22.5043105 17.3484877,22.5791442 C17.2853492,22.6636844 17.2216983,22.7482246 17.1601997,22.8323473 C17.1162283,22.8925692 17.0739993,22.9521648 17.0308478,23.0121779 C16.6402297,23.554905 16.2833332,24.0871951 15.9609784,24.5985067 C15.873753,24.7369022 15.7918575,24.8695572 15.7116019,25.0010642 C15.6181242,25.1545933 15.5405335,25.284326 15.4648903,25.4127019 C15.2534379,25.7718411 15.0648424,26.1049921 14.895004,26.418417 C14.0046078,28.0615235 13.5711457,29.2094958 13.5523886,29.2776498 C10.740676,39.513484 19.5161058,35.1909753 20.740644,34.5457562 C22.0591724,35.2090314 23.5435419,35.5823651 25.1138043,35.5823651 C29.4125513,35.5823651 33.0699712,32.7882596 34.4313436,28.8863644 L29.236768,28.8863644 C28.4681389,30.2086356 26.9883819,31.1042398 25.2883576,31.1042398 C22.7975647,31.1042398 20.7784656,29.1825682 20.7784656,26.8119986 L34.9186169,26.8119986 C34.9722232,26.387419 35,25.9546984 35,25.5154025 C35,23.7444421 34.5503433,22.0806702 33.7618297,20.6349285 C37.1228267,12.8892726 30.1604759,14.0237812 29.7728302,14.1010154 Z M28.6866637,16.1266402 C29.6015568,15.6766985 31.867265,14.7250473 33.1531992,15.6089619 C34.0045438,16.1940636 34.6873825,17.1129424 33.5147081,20.2074265 C32.3900025,18.3655984 30.6978705,16.9207961 28.6866637,16.1266402 Z M20.0797398,34.180981 C19.0892035,34.7361282 16.4595265,35.9860706 15.0607425,34.5251952 C14.3673466,33.801072 14.2447595,32.0374174 15.7748429,28.8236377 C16.5470594,31.0844094 18.0880075,32.9787359 20.0797398,34.180981 Z M29.6919596,24.0591194 L20.7566336,24.0591194 C20.8356592,21.7551383 22.804842,19.9103878 25.2242966,19.9103878 C27.6436487,19.9103878 29.612934,21.7551383 29.6919596,24.0591194 Z M29.6919596,24.0591194" id="Oval-1" sketch:type="MSShapeGroup"></path>
        </g>
    </g>
</svg>