<?xml version="1.0" encoding="UTF-8" standalone="no"?>
<svg width="50px" height="50px" viewBox="0 0 50 50" version="1.1" xmlns="http://www.w3.org/2000/svg" xmlns:xlink="http://www.w3.org/1999/xlink" xmlns:sketch="http://www.bohemiancoding.com/sketch/ns">
    <title>jQuery</title>
    <description>Created with Sketch (http://www.bohemiancoding.com/sketch)</description>
    <defs></defs>
    <g id="Page-1" stroke="none" stroke-width="1" fill="none" fill-rule="evenodd" sketch:type="MSPage">
        <g id="jQuery" sketch:type="MSArtboardGroup" fill="#000000">
            <path d="M25,50 C38.8071194,50 50,38.8071194 50,25 C50,11.1928806 38.8071194,0 25,0 C11.1928806,0 0,11.1928806 0,25 C0,38.8071194 11.1928806,50 25,50 Z M25,47 C37.1502651,47 47,37.1502651 47,25 C47,12.8497349 37.1502651,3 25,3 C12.8497349,3 3,12.8497349 3,25 C3,37.1502651 12.8497349,47 25,47 Z M22.3755706,14.125956 C21.353537,15.9180142 21.2263245,18.1263315 21.8162436,20.0935731 C22.3791397,21.9904237 23.5630569,23.6631348 25.0567199,24.8873021 C25.0884619,24.9137913 25.1208258,24.9396243 25.1531898,24.9661214 C25.2935314,25.0772518 25.4357494,25.1870828 25.5820157,25.2917457 C25.6498564,25.339556 25.7189411,25.3867179 25.7880285,25.4332341 C25.820395,25.4552009 25.8515149,25.4784511 25.8838789,25.49978 C25.9887616,25.5689087 26.0945697,25.6360977 26.2019355,25.7013495 C26.2227866,25.7142554 26.2442751,25.725899 26.2647973,25.7381778 C26.3513197,25.7905079 26.4390759,25.8421923 26.5274567,25.8919396 C26.5672928,25.9132607 26.6074374,25.9345976 26.6472709,25.9559001 C26.7160447,25.9927257 26.784821,26.030197 26.8548414,26.0657285 C26.9908236,26.1355055 27.1286898,26.2020488 27.2687281,26.2653636 C27.2986039,26.2795926 27.3294178,26.2918449 27.3599131,26.3054203 C27.4716307,26.3545219 27.5842864,26.4016838 27.6981861,26.4469087 C27.7448698,26.4656443 27.7924814,26.483721 27.840093,26.5018216 C27.9440325,26.5412326 28.0489076,26.5787038 28.1544022,26.6142407 C28.1995256,26.6297558 28.2440296,26.6452497 28.2894641,26.6594602 C28.4379126,26.7079188 28.5872815,26.7531437 28.7388377,26.7944918 C32.15114,27.713808 35.3487873,26.5361094 37,24.0675043 C37,24.0675043 35.1682934,30.4085638 27.2339575,29.044091 C27.0799004,29.0176018 26.9339553,28.9575181 26.786139,28.9097105 C26.7391494,28.894849 26.6930878,28.8786987 26.6460982,28.8631916 C26.5421588,28.8270143 26.4391524,28.7908318 26.3364544,28.7514235 C26.2885292,28.7333362 26.2399845,28.7152462 26.1920593,28.6965106 C26.0787944,28.6512857 25.9661387,28.6034755 25.8547296,28.5543738 C25.8245453,28.5414388 25.7937186,28.5291866 25.7638607,28.5156112 C25.6244368,28.452299 25.4878198,28.3857505 25.3524469,28.3166244 C25.2559948,28.2681473 25.1906423,28.2319648 25.1252898,28.1964332 C25.0916792,28.1783433 25.0580711,28.1615341 25.0250851,28.1421634 C24.9304686,28.0891849 24.8361784,28.0342694 24.7431272,27.9787109 C24.7281829,27.9696871 24.7132667,27.9612719 24.6980037,27.9515865 C24.5900184,27.8863347 24.4839044,27.8184974 24.3790293,27.748723 C24.3472874,27.728696 24.3173988,27.7060915 24.2859781,27.6847625 C24.2203171,27.640186 24.1543425,27.5968982 24.089612,27.550382 C23.9302829,27.4360364 23.7871217,27.326208 23.6467699,27.2144372 C23.615339,27.189242 23.5845428,27.1633773 23.5534102,27.1388464 C23.413349,27.023863 23.2755007,26.9069241 23.1419964,26.7854627 C23.0035413,26.6587325 22.8868424,26.5450247 22.7720095,26.4293798 C22.7415091,26.3983681 22.710996,26.368002 22.681138,26.3363446 C22.5628941,26.2148859 22.4471283,26.09149 22.3363387,25.9648604 C22.0307483,25.6896477 21.7755611,25.2819624 21.545276,24.9395608 C21.2925846,24.5635514 21.0666563,24.1688064 20.8656198,23.7617827 C19.6668756,21.3340891 19.5834864,18.2613128 21.1201824,15.9658535 L22.3755706,14.125956 Z M16.1826178,16.4531467 C14.3116513,20.2074185 15.1526048,24.7788604 17.4934926,28.0933211 C17.578131,28.2139913 17.6645539,28.3328091 17.7530162,28.4518915 C17.7802943,28.4878808 17.8078272,28.5236056 17.8353602,28.5585364 C17.9088044,28.6554536 17.9841146,28.7517172 18.060047,28.8466894 C18.0874346,28.8802839 18.1142028,28.9132327 18.1418938,28.9474728 C18.2436638,29.0721521 18.3476032,29.195548 18.454036,29.3163637 C18.5697917,29.4475052 18.6724896,29.5599243 18.7770511,29.6710441 C18.8094151,29.7052869 18.8424036,29.7388814 18.8753897,29.7731242 C18.9575501,29.8596971 19.0412604,29.9443303 19.1262175,30.0283178 C19.1588925,30.0612666 19.191259,30.093575 19.2245586,30.1265211 C19.3393838,30.2376382 19.4554632,30.3481176 19.5737173,30.4560089 C19.7193615,30.5865047 19.8301485,30.682771 19.9421796,30.7783862 C19.9813912,30.8113376 20.0212247,30.8442891 20.0610583,30.8772352 C20.1492657,30.9508017 20.238238,31.0225158 20.3277201,31.0937006 C20.3708041,31.1278375 20.4143979,31.1622391 20.4587566,31.1963761 C20.5563966,31.2712657 20.6548015,31.3450968 20.754226,31.418134 C20.7878774,31.4419505 20.820764,31.4676194 20.8549253,31.4917005 C20.9579189,31.565267 21.0624422,31.636981 21.1674754,31.707372 C21.2069902,31.7346286 21.2459953,31.7629438 21.28602,31.7894065 C21.430823,31.8844079 21.5771556,31.978086 21.7252727,32.0685887 C21.763258,32.0913466 21.8014982,32.1125168 21.8392286,32.1344809 C21.9506351,32.2016963 22.0625514,32.2675886 22.1765073,32.3308346 C22.2384565,32.3665593 22.3019352,32.3988439 22.3643943,32.4329809 C22.4577004,32.4827309 22.5512615,32.533804 22.6458423,32.5817016 C22.681319,32.5997915 22.7161762,32.6165927 22.7510284,32.6340317 C22.8714621,32.694118 22.9925179,32.752262 23.1148203,32.8097603 C23.1437631,32.8226768 23.1717702,32.8362336 23.201024,32.8491739 C23.3432521,32.9137775 23.4873285,32.9758009 23.6323482,33.0352389 C23.6696885,33.0507434 23.7070339,33.0656023 23.7443793,33.0811094 C23.8766395,33.1340852 24.0095268,33.1857697 24.1439641,33.2348713 C24.3561846,33.3117562 24.5071264,33.3627949 24.6593021,33.4112483 C24.6982026,33.4235429 24.7371005,33.4357951 24.7766256,33.4480738 C24.9325437,33.4958841 25.0875135,33.5475685 25.2471588,33.5850398 C29.4635255,34.5805688 33.9136675,33.6863922 36.4206963,30.2959833 C36.4206963,30.2959833 33.4356647,38.6516263 23.1592427,36.7063223 C22.9974356,36.6753106 22.8424455,36.616521 22.6855994,36.5674193 C22.6485675,36.5564373 22.6115357,36.5441586 22.5748149,36.5331765 C22.4207833,36.4834292 22.2676669,36.4323931 22.1161107,36.3774749 C21.926276,36.3083754 21.7887183,36.2547512 21.6530369,36.2004787 C21.6175602,36.1862709 21.5820835,36.1720419 21.5469178,36.1571963 C21.4003303,36.0971099 21.2550123,36.0344408 21.1109283,35.9691916 C21.0844762,35.9569234 21.0586513,35.9446447 21.0318832,35.932366 C20.9061493,35.8742194 20.7816672,35.8141357 20.6581233,35.752758 C20.6260703,35.7359594 20.5937063,35.7204443 20.5616508,35.704302 C20.4275245,35.6358296 20.3497235,35.5925445 20.271303,35.549905 C20.2106184,35.5176019 20.1490006,35.4859445 20.088938,35.4523501 C19.9778476,35.3896809 19.8683046,35.3257205 19.7593837,35.2604686 C19.7189307,35.2365621 19.6781615,35.2133225 19.6380195,35.1894002 C19.4899024,35.0989505 19.3433148,35.0052697 19.1989198,34.9102975 C19.1581506,34.8831625 19.118006,34.8540985 19.0775504,34.8263126 C18.983556,34.7629952 18.8892658,34.699683 18.7971476,34.6337854 C18.7327383,34.5872613 18.6985031,34.5614257 18.663029,34.5349311 C18.565937,34.4645084 18.4697756,34.3927944 18.3742388,34.3197916 C18.3281798,34.283609 18.2824343,34.2474318 18.2366862,34.2112519 C18.1501766,34.1427689 18.0642865,34.0729919 17.9793295,34.0025719 C17.9366968,33.9670403 17.8937479,33.9321518 17.8514262,33.8966176 C17.7474944,33.8074487 17.6441769,33.716999 17.5427256,33.6259036 C17.5234296,33.608462 17.5031954,33.591674 17.483596,33.5735735 C17.3631623,33.4643802 17.2501956,33.3571346 17.138478,33.2479492 C17.1045564,33.2156461 17.0709458,33.1814033 17.0370267,33.1478088 C16.9533113,33.0644697 16.8705339,32.9804795 16.7890007,32.8952006 C16.7553926,32.8609578 16.7220905,32.8260693 16.689418,32.7911808 C16.5842217,32.6787591 16.4802823,32.5663452 16.378831,32.451346 C16.2568625,32.3124721 16.1551027,32.1910133 16.0552065,32.0689062 C16.0271994,32.0346634 15.9991872,31.9997802 15.9714961,31.9648917 C15.8971189,31.8718698 15.8239883,31.7788347 15.7520992,31.6851539 C15.7222234,31.6457455 15.6923578,31.6063345 15.6627854,31.5669262 C15.5821852,31.4590296 15.5025181,31.3498442 15.4253391,31.2393701 C15.4110322,31.2186948 15.3954811,31.1986598 15.3814597,31.1779924 C15.2846967,31.0391079 15.1981845,30.9086042 15.113536,30.7774521 C15.087395,30.737398 15.0625057,30.69605 15.0369816,30.6547019 C14.9756774,30.5577953 14.9156148,30.460886 14.8571098,30.3626854 C14.826923,30.3122923 14.7979802,30.2618993 14.7687265,30.2115089 C14.715825,30.1197625 14.664165,30.0280214 14.6137491,29.9356346 C14.5851199,29.8833045 14.5567966,29.8322631 14.5291056,29.7786417 C14.5135418,29.7502127 14.4967467,29.7211275 14.4818024,29.691423 C14.4553504,29.6416757 14.4313942,29.5899913 14.4058701,29.5395982 C14.3660366,29.4601306 14.3255835,29.3806682 14.2869915,29.2999091 C12.6637655,25.9314644 12.3992451,21.8069786 14.5241267,18.6367399 L16.1826178,16.4531467 Z M27.3459172,13 C26.0926577,15.3501577 27.2857526,18.2359217 29.2064314,19.7485331 C29.5432003,20.0126315 29.9064824,20.2433867 30.2876099,20.4333893 C30.4882436,20.5334186 30.6947408,20.6218042 30.9042972,20.6993401 C31.0677104,20.7594105 31.2540678,20.8229212 31.4235994,20.8657908 C33.5698955,21.4065309 35.3192072,21.0331149 36.360157,19.4773957 C36.0437829,19.9501793 34.8555318,23.1624144 30.4744771,22.2837714 C30.3780047,22.2650357 30.2852671,22.2295016 30.1919074,22.1991355 C30.1626511,22.1901197 30.1340168,22.1797727 30.1050817,22.1707225 C30.0387961,22.1474644 29.9734436,22.1248757 29.908091,22.0996567 C28.322779,21.4963058 26.9643843,20.2235529 26.3015284,18.6012798 C25.6729101,17.0727908 25.7619079,15.3541668 26.6678187,13.9702968 L27.3459172,13 Z M27.3459172,13" id="Oval-1" sketch:type="MSShapeGroup"></path>
        </g>
    </g>
</svg>