<?xml version="1.0" encoding="UTF-8" standalone="no"?>
<svg width="50px" height="50px" viewBox="0 0 50 50" version="1.1" xmlns="http://www.w3.org/2000/svg" xmlns:xlink="http://www.w3.org/1999/xlink" xmlns:sketch="http://www.bohemiancoding.com/sketch/ns">
    <title>LastFM</title>
    <description>Created with Sketch (http://www.bohemiancoding.com/sketch)</description>
    <defs></defs>
    <g id="Page-1" stroke="none" stroke-width="1" fill="none" fill-rule="evenodd" sketch:type="MSPage">
        <g id="LastFM" sketch:type="MSArtboardGroup" fill="#000000">
            <path d="M50,25 C50,11.1928806 38.8071194,0 25,0 C11.1928806,0 0,11.1928806 0,25 C0,38.8071194 11.1928806,50 25,50 C38.8071194,50 50,38.8071194 50,25 Z M47,25 C47,12.8497349 37.1502651,3 25,3 C12.8497349,3 3,12.8497349 3,25 C3,37.1502651 12.8497349,47 25,47 C37.1502651,47 47,37.1502651 47,25 Z M27.8598393,29.8771688 L27.5509084,29.1784509 L24.8884371,22.9941205 C24.0054492,20.8049789 21.814386,19.326144 19.3421732,19.326144 C15.9970898,19.326144 13.2832667,22.0909854 13.2832667,25.5012814 C13.2832667,28.9114661 15.9970351,31.6763075 19.3421732,31.6763075 C21.6756433,31.6763075 23.7046668,30.3321906 24.7174286,28.3612835 L25.7941203,30.8916218 C24.2652706,32.7906013 21.9420271,34 19.3422279,34 C14.7345693,34 11,30.1974725 11,25.5012257 C11,20.8072075 14.7345693,17 19.3421185,17 C22.8192727,17 25.6267212,18.8920151 27.0530861,22.244145 C27.1612584,22.5042212 28.5613733,25.8400825 29.7827687,28.6791915 C30.5392638,30.4364885 31.1843601,31.6019284 33.2760011,31.6739675 C35.3313841,31.7458951 36.741999,30.4714216 36.741999,28.8601529 C36.741999,27.2862129 35.666401,26.9078545 33.8503861,26.2927086 C30.5860765,25.1969678 28.9010387,24.0966027 28.9010387,21.4594594 C28.9010387,18.8872236 30.6191079,17.1717127 33.4103688,17.1717127 C35.2286806,17.1717127 36.5414045,17.9959001 37.4506971,19.6394834 L35.6663464,20.5680244 C34.9940156,19.6093417 34.2524502,19.2308718 33.3100715,19.2308718 C32.0000273,19.2308718 31.0644846,20.1595243 31.0644846,21.3944403 C31.0644846,23.1472244 32.603725,23.4118692 34.7560147,24.1314801 C37.6533151,25.0925028 39,26.1905836 39,28.9323034 C39.0001094,31.8109142 36.5754202,33.9071793 33.4104235,33.902555 C30.4938183,33.8909106 28.9398123,32.4377601 27.8598393,29.8771688 Z M27.8598393,29.8771688" id="Oval-1" sketch:type="MSShapeGroup"></path>
        </g>
    </g>
</svg>