<?xml version="1.0" encoding="UTF-8" standalone="no"?>
<svg width="50px" height="50px" viewBox="0 0 50 50" version="1.1" xmlns="http://www.w3.org/2000/svg" xmlns:xlink="http://www.w3.org/1999/xlink" xmlns:sketch="http://www.bohemiancoding.com/sketch/ns">
    <title>Neil Orange Peel</title>
    <description>Created with Sketch (http://www.bohemiancoding.com/sketch)</description>
    <defs></defs>
    <g id="Page-1" stroke="none" stroke-width="1" fill="none" fill-rule="evenodd" sketch:type="MSPage">
        <g id="Neil-Orange-Peel" sketch:type="MSArtboardGroup" fill="#000000">
            <path d="M25,50 C38.8071194,50 50,38.8071194 50,25 C50,11.1928806 38.8071194,0 25,0 C11.1928806,0 0,11.1928806 0,25 C0,38.8071194 11.1928806,50 25,50 Z M25,47 C37.1502651,47 47,37.1502651 47,25 C47,12.8497349 37.1502651,3 25,3 C12.8497349,3 3,12.8497349 3,25 C3,37.1502651 12.8497349,47 25,47 Z M24.9121478,13.0342352 C24.8059626,13.0400635 24.6999907,13.0498498 24.5939847,13.0586674 C24.5206103,13.0647713 24.4473297,13.0720358 24.3740407,13.0792002 C24.3034723,13.0860973 24.2328784,13.0928692 24.162438,13.1008769 C24.0323974,13.1156648 23.9023824,13.1306365 23.7725125,13.1468021 C23.6264205,13.1649885 23.4805331,13.1846946 23.3345264,13.2034822 C23.2344821,13.2163497 23.134344,13.2286075 23.0342911,13.2414416 C22.9369505,13.2539332 22.8396695,13.2669175 22.7423374,13.2795011 C22.6341991,13.2934957 22.5261206,13.3080666 22.4178458,13.3210258 C21.9353644,13.3787914 21.4578809,13.4614819 20.9902057,13.5934794 C20.6383789,13.6927782 20.2965139,13.8176531 19.9664358,13.9732979 C19.7477797,14.076396 19.5289957,14.1793854 19.304719,14.2704677 C19.2039923,14.3113746 19.1030439,14.3520476 19.0006371,14.3886375 C18.7204362,14.4887462 18.4679032,14.6347301 18.2457332,14.8286933 C17.8705115,15.1562822 17.4732085,15.4564914 17.0663531,15.7446598 C16.6481115,16.0408943 16.2463052,16.3568517 15.8596548,16.6913879 C15.6099193,16.907462 15.3737618,17.1370215 15.1591569,17.3870719 C14.8899925,17.7006996 14.6515066,18.0355865 14.4396566,18.3887183 C14.1597371,18.8553271 13.9329444,19.345909 13.7495128,19.8560466 C13.6453319,20.1457765 13.5569467,20.4402826 13.4729111,20.7360495 C13.3406275,21.2016564 13.225052,21.6712629 13.1237368,22.1442763 C13.0655269,22.4160201 13.0102509,22.6882817 12.9615849,22.9618125 C12.9335076,23.1196033 12.9063686,23.2775527 12.8785643,23.4353936 C12.8645171,23.4931425 12.8568496,23.5007661 12.8453015,23.5031542 C12.645861,23.5315277 12.5278804,23.5527368 12.4098741,23.5728604 C12.1467823,23.6177168 11.8855156,23.6715746 11.6271318,23.7380827 C11.46637,23.7794656 11.3048151,23.8177505 11.1423134,23.8518354 C11.0358212,23.8741718 10.9289793,23.8952807 10.8207046,23.9087159 C10.7531896,23.9170994 10.6859817,23.9280797 10.6188675,23.9392103 C10.5616555,23.9486959 10.5097655,23.9721429 10.4603233,24.0012762 C10.4311117,24.0184856 10.4105229,24.0419325 10.3999385,24.0740719 C10.3865481,24.1147032 10.3720318,24.1549754 10.358232,24.1954815 C10.3438522,24.2376993 10.3435367,24.2792659 10.3647055,24.3198053 C10.4004673,24.4056438 10.4062158,24.4628583 10.383742,24.5210164 C10.3397072,24.6386685 10.3365088,24.7124996 10.3558183,24.7867733 C10.3626585,24.8130759 10.3670765,24.8390028 10.3658654,24.865773 C10.3622406,24.9464261 10.378275,25.0253006 10.3890897,25.1045008 C10.4017381,25.1971028 10.4172693,25.2891454 10.415137,25.3831502 C10.4135592,25.4525641 10.415282,25.5220615 10.4156658,25.5915088 C10.4160582,25.6636282 10.4173716,25.7356306 10.4230945,25.8076665 C10.4281607,25.8715192 10.4278195,25.9357812 10.4294145,25.9998761 C10.4312311,26.0724631 10.4088171,26.1369672 10.3582832,26.1905411 C10.2933098,26.2594206 10.237488,26.3352807 10.1803101,26.4101389 C10.1299723,26.4837195 10.1193965,26.5136294 10.1202323,26.5469043 C10.1211619,26.5842958 10.1212899,26.6216956 10.1215457,26.6590955 C10.1218016,26.6965287 10.1186886,26.7332188 10.1102876,26.7702513 C10.0966583,26.83038 10.0945517,26.8920952 10.0985518,26.9536183 C10.1013237,26.9962035 10.1041638,27.0387553 10.1130509,27.0808897 C10.118518,27.1068166 10.1198485,27.1339459 10.1198826,27.1605407 C10.120002,27.2406678 10.1227142,27.3211038 10.1166587,27.400855 C10.1095882,27.4940415 10.1063301,27.587537 10.0966157,27.6804313 C10.0879503,27.7633305 10.0867307,27.8454365 10.0987223,27.9280184 C10.1033109,27.9596234 10.1030891,27.9919297 10.104377,28.0239354 C10.1056905,28.0562751 10.1017842,28.0878299 10.0882744,28.1179402 C10.0737496,28.150305 10.0684788,28.1845402 10.0706536,28.2196855 C10.0746537,28.2842481 10.0666877,28.3477 10.0509433,28.4100916 C10.0368535,28.4658949 10.0362821,28.5209969 10.0518559,28.5763493 C10.0684532,28.6620542 10.0684361,28.6620542 10.0485808,28.7332049 C10.0306615,28.7969742 10.0177402,28.8053326 10,28.8075955 C10.0192071,28.878646 10.0324867,28.8905866 10.0359921,28.9113281 C10.0417662,28.9455132 10.0473526,28.9797484 10.0538943,29.0138082 C10.0592505,29.0417057 10.0762657,29.0628146 10.100539,29.0767508 C10.2592965,29.142449 10.3551531,29.1611948 10.454353,29.1613535 C10.5280089,29.161462 10.6014173,29.1576544 10.6743908,29.1461481 C10.7308438,29.1372553 10.7877062,29.1308257 10.844415,29.1235194 C10.9362033,29.1116874 11.0277528,29.0986029 11.1188077,29.0818694 C11.1937258,29.0680918 11.2688912,29.0537632 11.345933,29.0582638 C11.4591034,29.1140505 11.4947969,29.1511247 11.5221918,29.1943946 C11.5627384,29.2982859 11.5703803,29.3377231 11.5768111,29.3771604 C11.5841119,29.4219166 11.588419,29.4671405 11.5945769,29.5120888 C11.6809919,29.5615127 11.7231504,29.5612371 11.7654198,29.543009 C11.8431866,29.5094836 11.9265654,29.4939358 12.009313,29.4774277 C12.1347224,29.4524194 12.2604217,29.4287887 12.3860102,29.404632 C12.5142852,29.379966 12.642475,29.3548574 12.770878,29.3308678 C12.9340449,29.3003817 13.0973995,29.2708727 13.2606517,29.2407875 C13.3455231,29.2406205 13.3505807,29.2437768 13.3525594,29.2482524 C13.4902675,29.5594419 13.6431229,29.863634 13.7944517,30.168561 C13.8718944,30.324615 13.9472816,30.4816626 14.022302,30.6388606 C14.0455177,30.6874912 14.0731344,30.7330073 14.1043503,30.7770287 C14.4051656,31.2012945 14.7402245,31.5984644 15.0974586,31.9779155 C15.545125,32.4534339 16.0133887,32.9089205 16.4962454,33.3500701 C16.7536058,33.5852073 17.0179855,33.8125373 17.2895978,34.0318178 C17.7998835,34.4437757 18.3383147,34.8161793 18.909062,35.1439436 C19.3444894,35.3939941 19.7871066,35.6303839 20.2459885,35.8368721 C20.6800939,36.0322214 21.1245533,36.2008088 21.5829832,36.3334744 C21.8000359,36.396275 22.0195534,36.4497988 22.2393609,36.5022121 C22.5307518,36.5717011 22.8237034,36.6343766 23.1180111,36.6906726 C23.3159931,36.7285484 23.5143674,36.7646039 23.7138846,36.7942298 C23.8783053,36.8186454 24.0425468,36.8443301 24.2072063,36.8671758 C24.315174,36.8821558 24.423662,36.8936622 24.5320391,36.9056779 C24.6621052,36.9201151 24.7921969,36.9343937 24.9224593,36.9468937 C25.0147423,36.9557615 25.1072726,36.9621743 25.1997688,36.9685871 C25.3031565,36.9757598 25.406638,36.981655 25.5100683,36.9881596 C25.5263756,36.9891783 26.6211658,37 26.6211658,37 C26.7440165,36.9817719 26.8120005,36.976503 26.8799335,36.9707247 C27.1084831,36.9513025 27.3347385,36.9165914 27.5591005,36.8703489 C27.6337627,36.8549514 27.7072394,36.8341097 27.7815008,36.8167666 C27.845229,36.8018785 27.9094347,36.7904473 27.9754998,36.789963 C28.0388783,36.789487 28.1010627,36.79514 28.1604496,36.817468 C28.2104803,36.836264 28.2602039,36.8365729 28.3130492,36.8294837 C28.4644035,36.8091931 28.6152291,36.785646 28.7663873,36.7642114 C28.8554634,36.7515778 28.9447698,36.7403219 29.034153,36.7300096 C29.2785067,36.7018282 29.518144,36.6532059 29.7539603,36.5835415 C30.3550109,36.4059694 30.9453407,36.199406 31.5229964,35.958908 C32.1086011,35.7150951 32.6517062,35.400098 33.1519875,35.0145513 C33.426619,34.8029278 33.6944017,34.5835888 33.9474891,34.3474161 C34.2027343,34.1092395 34.4410496,33.856041 34.6555863,33.5817671 C34.7568502,33.4523247 34.8528859,33.3192584 34.9407424,33.1807312 C35.0170678,33.0603987 35.0982461,32.9433143 35.1805162,32.8268729 C35.2363892,32.7478064 35.291324,32.6680384 35.3441522,32.5870096 C35.4030018,32.4967539 35.451847,32.4013797 35.4864915,32.2993422 C35.5098181,32.230663 35.5275156,32.1609569 35.5333835,32.0886037 C35.5353281,32.0646391 35.5384667,32.0407663 35.5407866,32.0168434 C35.5434562,31.9892131 35.5550811,31.9655324 35.5736571,31.9449829 C35.9090145,31.595258 36.1089155,31.2264449 36.2160389,30.8088842 C36.2824707,30.5499493 36.3411412,30.2892108 36.3971762,30.0279462 C36.477877,29.6517349 36.5585094,29.2754986 36.637837,28.8990118 C36.7155014,28.5303489 36.792927,28.161636 36.8676575,27.7923887 C36.9089972,27.5881466 36.9462345,27.3830527 36.9821498,27.1778086 C37.0028666,27.0594301 37.0172549,26.9399827 37.0344833,26.8210112 C37.0963863,26.769124 37.1182203,26.7682723 37.1400288,26.768122 C37.243732,26.7674624 37.3474267,26.76712 37.4511214,26.766786 C37.5193528,26.7665606 37.5875672,26.7666608 37.6557901,26.7663685 C37.7681076,26.7586364 37.8113663,26.7343294 37.8364754,26.6841373 C37.8569022,26.6433223 37.8747703,26.6015887 37.8831969,26.5565068 C37.891615,26.5115001 37.9061738,26.4688147 37.9314792,26.4297782 C37.9715566,26.3679461 38.0262185,26.32739 38.1010939,26.3155329 C38.1333589,26.3104227 38.165675,26.3055462 38.1980934,26.3015132 C38.2602608,26.2937727 38.3225817,26.2871761 38.3847149,26.2792519 C38.4495262,26.2709771 38.5142437,26.261792 38.5789698,26.2528408 C38.6598752,26.2416433 38.7408573,26.2308801 38.8216178,26.2186724 C38.8533795,26.2138711 38.8763905,26.1953924 38.8883651,26.1657247 C38.9071203,26.1073496 38.9138837,26.086917 38.9231717,26.0677119 C38.9365792,26.0399814 38.9583791,26.02096 38.9895438,26.0125515 C39.0213055,26.0039844 39.0532634,25.9982562 39.0863301,25.9981644 C39.2010101,25.9940896 39.2240296,25.9773561 39.2386226,25.9487071 C39.2522007,25.9220704 39.2607467,25.8941312 39.2617019,25.8642798 C39.2654632,25.7469533 39.2831095,25.7010614 39.3308886,25.670208 C39.37848,25.6394798 39.4075636,25.5947737 39.4267878,25.5436714 C39.4418414,25.5036497 39.4556412,25.4630935 39.4679484,25.422195 C39.4775605,25.3902227 39.4758803,25.3588766 39.4529546,25.331121 C39.4053973,25.2586009 39.3901731,25.2166503 39.3874098,25.1699401 C39.3855163,25.1380596 39.3788638,25.1064714 39.3749064,25.0746912 C39.3699511,25.0349366 39.3485861,25.005177 39.3166026,24.9820307 C39.2365842,24.9426185 39.1913212,24.9239561 39.1451285,24.9079324 C39.0693831,24.899382 39.0506706,24.896234 39.033809,24.8866565 C39.1059296,24.8178521 39.173291,24.8127419 39.2406099,24.8327987 C39.2797321,24.8444554 39.3188542,24.8561204 39.3578144,24.8682446 C39.475488,24.8352286 39.5158213,24.8126333 39.5537494,24.7866814 C39.5829354,24.7667331 39.6065691,24.7409816 39.6209659,24.7076482 C39.6331623,24.6793833 39.6364971,24.6511769 39.6286505,24.6216929 C39.6067482,24.5561868 39.6086672,24.5314623 39.6278658,24.5082408 C39.6575806,24.4722939 39.6611969,24.4303933 39.6542032,24.3867059 C39.634254,24.2999072 39.6347913,24.2688033 39.6441987,24.237048 C39.6837132,24.1036143 39.7282769,23.971884 39.7843631,23.8442285 C39.8004572,23.8076219 39.8212166,23.7726018 39.843136,23.7389178 C39.872339,23.6940446 39.8722878,23.6492049 39.8533366,23.6013591 C39.8384365,23.5637255 39.8197582,23.5282545 39.795988,23.4954889 C39.7547763,23.4386919 39.7072872,23.3870803 39.6562927,23.3386249 C39.6199425,23.3040725 39.5771699,23.2830554 39.5251605,23.2809595 C39.4635134,23.2784796 39.4164337,23.2497721 39.3823009,23.199914 C39.3671194,23.1777363 39.3512642,23.1559844 39.3367053,23.1334226 C39.3138563,23.09801 39.3163382,23.0624556 39.3396904,23.0283707 C39.3812604,22.9790386 39.3919898,22.9669227 39.4022245,22.954431 C39.4249285,22.8846497 39.4251162,22.8739616 39.4253379,22.8632819 C39.426532,22.8070444 39.4485025,22.7595911 39.4890746,22.7203041 C39.5123586,22.6977673 39.5364613,22.6760572 39.5598988,22.6536874 C39.6013323,22.6141416 39.6353883,22.5694605 39.6586297,22.517231 C39.6739988,22.4826785 39.6839265,22.447124 39.6864254,22.4091731 C39.6895982,22.3608931 39.6878668,22.3127969 39.6803102,22.2653102 C39.672438,22.2157526 39.6809072,22.16946 39.701914,22.1250711 C39.7248483,22.0766242 39.7490789,22.0287367 39.7738384,21.9811581 C39.8308202,21.8717224 39.8882881,21.7625205 39.9459351,21.6534189 C39.96359,21.6200187 39.9804773,21.5868606 39.9786947,21.5475403 C39.9778077,21.5281181 40,21.3046208 40,21.3046208 C39.9700805,21.1783347 39.9179091,21.1081275 39.8525775,21.0449344 C39.7171381,21.0220887 39.6407445,21.0211701 39.5643424,21.0203351 C39.4762556,21.0171287 39.4570229,21.00776 39.4402891,20.9929136 C39.4114869,20.9673541 39.389977,20.9365925 39.374659,20.9019733 C39.3605778,20.8701596 39.3481511,20.8376278 39.335426,20.805263 C39.3176176,20.7599974 39.2946577,20.7179383 39.2598085,20.6827094 C39.2075262,20.6075089 39.1639945,20.593915 39.1166163,20.5896816 C39.0732211,20.5858155 39.029391,20.5834441 38.9858679,20.5846381 C38.9123485,20.5866505 38.838505,20.5858239 38.7657106,20.5996933 C38.6731718,20.6051125 38.6295378,20.6061813 38.5865179,20.6146482 C38.4450144,20.6233072 38.3197927,20.6301626 38.1945539,20.6370848 C38.148293,20.6396399 38.1020407,20.642529 38.0557627,20.6449171 C38.0121713,20.6471716 37.9685885,20.6497518 37.9249631,20.6507705 C37.8567658,20.652357 37.7885343,20.65219 37.7203541,20.6538266 C37.6740164,20.6549288 37.6277555,20.6587615 37.5814264,20.6597802 C37.4832414,20.6619345 37.3850564,20.6631954 37.2868543,20.6643978 C37.1865626,20.6556219 37.1364296,20.6308974 37.0945184,20.5895897 C37.0325899,20.526789 37.0128028,20.5214617 36.9895956,20.5229146 C36.9376714,20.5261628 36.8874105,20.5389467 36.8366207,20.5482152 C36.7188021,20.5697166 36.6014099,20.5934975 36.4838216,20.6161846 C36.4223025,20.5870179 36.417876,20.5743759 36.4143961,20.5615252 C36.3759477,20.4196329 36.3373288,20.2777823 36.2994859,20.1357314 C36.2230923,19.848924 36.1389288,19.564463 36.0373578,19.2850789 C35.8186676,18.6835583 35.5340829,18.114294 35.17029,17.5836988 C35.0759856,17.4461485 34.9773571,17.3116125 34.8728948,17.1812934 C34.7498139,17.0277444 34.6357906,16.867983 34.529034,16.7032533 C34.4618176,16.5995374 34.396213,16.4948111 34.3304465,16.3901934 C34.21134,16.2007059 34.076003,16.0234595 33.9160856,15.8649672 C33.8681786,15.8174972 33.8182588,15.7718726 33.7678358,15.726941 C33.4238982,15.4204526 33.0517726,15.1503537 32.6609174,14.9042111 C31.9719762,14.4703511 31.2398616,14.1228807 30.4699468,13.8505022 C30.1646282,13.742486 29.854397,13.649692 29.5425282,13.5618996 C29.290976,13.4910912 29.0389974,13.4219445 28.784426,13.3619995 C28.5562771,13.3082753 28.3265164,13.2626674 28.0944613,13.2290083 C27.9839179,13.2129762 27.8724533,13.2027725 27.7612958,13.191024 C27.6745225,13.1818556 27.5875956,13.1739147 27.5006688,13.1662995 C27.42187,13.159394 27.3430116,13.1531315 27.2641105,13.1475536 C27.1552728,13.1398633 27.0463328,13.1335924 26.9375037,13.1257433 C26.8341331,13.1182784 26.7308393,13.1096444 26.6275284,13.1013946 C26.5595699,13.0959671 26.4916711,13.0896294 26.4236529,13.0849116 C26.3064398,13.0767787 26.1910775,13.055937 26.0752121,13.0383601 C26.0132409,13.028958 25.9508944,13.0219356 25.88871,13.0138778 C25.8752002,13.0121243 25.4913131,13 25.4913131,13 C25.4328303,13.0117068 25.4136402,13.0116984 25.394561,13.0125418 C25.2337481,13.0196393 25.0728669,13.0254092 24.9121478,13.0342352 Z M17.7959005,21.8463049 C17.9760656,21.422657 18.2021333,21.0245603 18.486121,20.6587114 C18.5951292,20.5182887 18.7072932,20.380371 18.8248815,20.2467118 C19.1178502,19.913712 19.4374206,19.6077914 19.7943391,19.3405983 C20.1780982,19.0533067 20.5702839,18.7774295 20.9747086,18.5185114 C21.3746556,18.2624739 21.7861081,18.0259589 22.2143627,17.8178758 C22.4173085,17.7192701 22.6237768,17.6286972 22.8370256,17.5534299 C23.1354527,17.4481024 23.4407457,17.3693197 23.7548661,17.3236199 C23.8872351,17.3043564 24.0200049,17.28951 24.1534826,17.2822788 C24.3279759,17.2728182 24.5027337,17.2727681 24.6772185,17.282354 C24.7670281,17.2872805 24.8566586,17.2967996 24.9460673,17.3067946 C25.0436212,17.3176914 25.140868,17.3312018 25.2381575,17.3441861 C25.3381507,17.3575378 25.4380329,17.3716327 25.5379579,17.3853852 C25.632501,17.3983946 25.726993,17.4117296 25.8215959,17.424238 C25.9216231,17.4374644 26.021838,17.449238 26.1217885,17.4628653 C26.2110608,17.4750313 26.3007169,17.4838155 26.3906545,17.4867297 C26.4943918,17.4900864 26.597788,17.4974845 26.7010136,17.5067364 C26.7961367,17.5152618 26.8900573,17.5298159 26.9804042,17.563642 C27.2758889,17.6742717 27.5717574,17.7838827 27.8632335,17.9044574 C28.0240465,17.9709906 28.1840406,18.0392856 28.3399921,18.116298 C28.4864679,18.1886345 28.6266408,18.2709242 28.756869,18.3690622 C28.8130831,18.411422 28.8703208,18.4524875 28.927004,18.4942628 C29.4633457,18.8896041 29.9914142,19.295316 30.5152524,19.7063637 C30.5964734,19.7700996 30.6708286,19.8404821 30.7395291,19.9168266 C30.7593674,19.9388791 30.7793336,19.960848 30.7983958,19.9835435 C30.9336049,20.1445741 31.0757138,20.2997597 31.21581,20.456632 C31.3631387,20.6216121 31.5065526,20.7897319 31.6399962,20.9657926 C31.6462906,20.9741009 31.6538728,20.9814657 31.6608665,20.9892897 C31.712023,20.9918114 31.7611326,20.9909263 31.8095854,20.9833361 C31.8501746,20.9769817 31.8907723,20.9737669 31.9317026,20.9723725 C31.9507648,20.9717212 31.9700657,20.971145 31.9887611,20.9678217 C32.0373419,20.9591961 32.0863406,20.9577098 32.1354587,20.9564322 C32.1627342,20.9557225 32.1902741,20.9556557 32.2171402,20.9517061 C32.2876659,20.941327 32.3586266,20.9426046 32.4295105,20.9405755 C32.4894945,20.9388721 32.5494443,20.9360164 32.6094027,20.9331106 C32.6502392,20.9311316 32.6910075,20.9278751 32.731844,20.9257709 C32.783606,20.9230989 32.835624,20.9230905 32.8871216,20.9180387 C32.9306021,20.9137802 32.9739546,20.9099642 33.0176398,20.9087952 C33.0393118,20.9082191 33.0609753,20.9050377 33.0825023,20.902015 C33.0960207,20.9001195 33.1064942,20.8837785 33.1021274,20.8720383 C33.0900163,20.8394481 33.0778455,20.8068495 33.0647792,20.7746184 C32.9802234,20.5660342 32.8842389,20.362385 32.7880581,20.1588025 C32.6918774,19.9552285 32.5948438,19.7520134 32.5017506,19.5470866 C32.4163845,19.3591939 32.329978,19.1718272 32.2370297,18.9874081 C32.0715856,18.6591428 31.8968108,18.3359293 31.6966795,18.0262511 C31.5945712,17.8682766 31.4964629,17.7078222 31.3967256,17.5483864 C31.3425328,17.4617547 31.285227,17.3772439 31.2223091,17.2964155 C31.0956289,17.1336898 30.9491872,16.9911963 30.7754103,16.8765251 C30.7482627,16.8586059 30.7217122,16.8398267 30.6946925,16.8217238 C30.426543,16.6420391 30.1511184,16.4741698 29.8621754,16.3280273 C29.551006,16.1706373 29.228024,16.0428483 28.8901164,15.9516658 C28.5272873,15.8537615 28.1625136,15.7632971 27.7964947,15.6776924 C27.4835342,15.6044959 27.1704714,15.531742 26.8573744,15.4591217 C26.549446,15.3877037 26.24075,15.3200266 25.9258108,15.284564 C25.822824,15.2729658 25.7196667,15.2627954 25.6159037,15.2599063 C25.3373148,15.2521491 25.05934,15.266578 24.7814164,15.2818669 C24.7051507,15.2860586 24.6289106,15.2915446 24.5528582,15.2985169 C24.4143399,15.311209 24.2758812,15.3246776 24.1375591,15.3392902 C24.026376,15.3510387 23.9152099,15.36338 23.8044362,15.3783099 C23.6747539,15.3957949 23.5454127,15.4157515 23.4160971,15.4357499 C23.2296803,15.4645659 23.0478777,15.5108502 22.8712266,15.5762394 C22.8304156,15.5913446 22.7893574,15.6058236 22.748265,15.6201773 C22.6548562,15.6527926 22.5583173,15.6681066 22.4593305,15.6691921 C22.4238587,15.6695762 22.3883528,15.6685825 22.352898,15.6695595 C22.2901763,15.671288 22.2273266,15.6720729 22.1648096,15.6767823 C22.0292338,15.6869944 21.9028606,15.7260642 21.7880954,15.7987013 C21.7697667,15.8102995 21.7517792,15.8224572 21.7331435,15.8335544 C21.648528,15.8839636 21.5593666,15.9223571 21.4601752,15.9364019 C21.4252151,15.9413535 21.3909032,15.9510562 21.3565402,15.9595232 C21.1995311,15.9981505 21.0517078,16.0595567 20.9088994,16.1333043 C20.8147059,16.1819433 20.7239837,16.2363522 20.633995,16.2919551 C20.1241272,16.6070608 19.6148308,16.9230599 19.1041186,17.2368629 C18.9169939,17.3518514 18.7555413,17.4934181 18.6200081,17.6635753 C18.5594527,17.7396025 18.4937971,17.8109118 18.4233566,17.8781464 C18.3100072,17.9863463 18.1956599,18.0934356 18.0728518,18.1915403 C17.994471,18.2541573 17.9226659,18.323471 17.855765,18.3978783 C17.7403004,18.5263019 17.6295608,18.6584247 17.5247829,18.7953404 C17.214202,19.2011776 16.9582404,19.6382357 16.7473712,20.1009117 C16.6184308,20.3838196 16.5017636,20.6717291 16.3854291,20.9597723 C16.2630987,21.2626868 16.1436937,21.5667704 16.012587,21.8662114 C15.8789302,22.171489 15.7774274,22.4867032 15.7036778,22.8106516 C15.6912255,22.8653694 15.6801123,22.9204046 15.6693232,22.9754564 C15.6657496,22.9937013 15.6647944,23.0124722 15.6632762,23.0310427 C15.6622442,23.0436095 15.6765046,23.0553664 15.6904579,23.0541556 C15.838051,23.0293476 15.961004,23.0055082 16.0851596,22.9883406 C16.1849566,22.9745379 16.2846171,22.9598335 16.3844397,22.9462229 C16.4411144,22.9384991 16.498028,22.9325122 16.5547368,22.9250973 C16.5979358,22.9194443 16.6410154,22.9129313 16.6841036,22.9065185 C16.7379552,22.8985024 16.7917045,22.889785 16.8456074,22.8820779 C16.9345641,22.8693608 17.0236828,22.8576957 17.1126054,22.8446864 C17.212283,22.8301156 17.3117985,22.8144509 17.411425,22.7995126 C17.4332334,22.7962394 17.4545813,22.7924735 17.4744452,22.7761826 C17.4769356,22.7684505 17.4805263,22.7584722 17.4833579,22.7482935 C17.5689031,22.4414377 17.6709773,22.1400595 17.7959005,21.8463049 Z M17.6889051,28.5811005 C17.6379618,28.5913126 17.6025838,28.5930327 17.567112,28.5947445 C17.5453632,28.5957966 17.5237424,28.5991951 17.5020619,28.6015581 C17.4777033,28.6042051 17.4534043,28.6081129 17.428969,28.6093237 C17.3472277,28.6133567 17.2665867,28.6295391 17.1845555,28.6301654 C17.098021,28.6406948 17.0276744,28.6488611 16.9574045,28.6575869 C16.9195702,28.6622796 16.8818809,28.6680328 16.8440977,28.6730846 C16.7874145,28.6806831 16.7305692,28.687263 16.6740309,28.6957717 C16.5878802,28.7087309 16.5020025,28.723427 16.4158603,28.7364865 C16.3647208,28.7442353 16.3132061,28.7496378 16.2620411,28.7572531 C16.2244029,28.7628643 16.1870121,28.7701288 16.1495957,28.7771262 C16.1393866,28.7790383 16.1304397,28.7931917 16.1336125,28.8017003 C16.1420305,28.8242288 16.1500818,28.8469492 16.1598475,28.8689266 C16.3918599,29.3907877 16.6861932,29.8764179 17.0432653,30.3256253 C17.1841461,30.502855 17.3346646,30.6720687 17.4876309,30.8392366 C17.6879328,31.0581163 17.8900257,31.2754262 18.0896794,31.4948738 C18.3184849,31.7463521 18.5373287,32.0058047 18.7374173,32.2801287 C18.8395513,32.4201423 18.9622569,32.5414183 19.0986686,32.6495597 C19.2092035,32.7371768 19.3278153,32.8130119 19.4505722,32.8831523 C19.7851279,33.0743265 20.1193851,33.2659935 20.4532414,33.4583117 C20.725971,33.6154178 20.9978135,33.7740019 21.2703042,33.9314837 C21.551972,34.0942678 21.851235,34.2121705 22.1721018,34.2789374 C22.4922948,34.3455624 22.8134772,34.4060502 23.137005,34.4549397 C23.3311063,34.4842817 23.5254294,34.5116615 23.7205542,34.533547 C23.7801714,34.5402354 23.8396863,34.5478005 23.899312,34.554372 C23.9752024,34.5627471 24.0511099,34.571164 24.1271197,34.5783784 C24.2112917,34.5863694 24.2956172,34.5927989 24.3798318,34.6003557 C24.5266061,34.613507 24.6736534,34.6225251 24.8209991,34.6253557 C24.9710741,34.6282532 25.1210212,34.6265331 25.2709257,34.6152355 C25.3580401,34.6086807 25.4449414,34.6007231 25.5314844,34.5899265 C25.642386,34.5760905 25.7528101,34.5585637 25.86349,34.5429909 C26.036414,34.5186589 26.209935,34.5005894 26.3846757,34.4948028 C26.4473974,34.492732 26.5100509,34.4887156 26.5727556,34.4860185 C26.7204084,34.4796642 26.8655622,34.4565178 27.0096926,34.4256143 C27.1564754,34.3941347 27.2993776,34.3498794 27.4413245,34.3023176 C27.7512231,34.1984847 28.065625,34.1106005 28.3864918,34.0453867 C28.554759,34.0111932 28.721798,33.9721651 28.8858093,33.9214303 C29.1365001,33.8438583 29.3767429,33.7433154 29.6002094,33.6067588 C29.8085796,33.479429 30.0214105,33.3597227 30.2366806,33.2440495 C30.3155902,33.2016564 30.3946107,33.1593467 30.4722496,33.1148076 C30.7631031,32.9479904 31.0316022,32.7521734 31.2724336,32.5206601 C31.3464135,32.4495261 31.4213486,32.3793439 31.4955503,32.308427 C31.7142661,32.0994087 31.9338007,31.8912838 32.1629219,31.6930203 C32.2901393,31.5829333 32.4011348,31.4580668 32.5000107,31.3228628 C32.6164305,31.1636525 32.7117754,30.9928691 32.7919047,30.813794 C32.9275914,30.5105371 33.0636278,30.2074221 33.1980352,29.9036224 C33.3151032,29.6390429 33.4315743,29.3742212 33.5365654,29.1046734 C33.6999967,28.6851254 33.8391035,28.2581208 33.9509263,27.8226576 C34.0167781,27.5662277 34.0711585,27.3073763 34.1180079,27.0470052 C34.1255816,27.0049544 34.1321916,26.9626864 34.1378718,26.9203517 C34.1426736,26.8845384 34.1347417,26.8753784 34.100029,26.8759963 C34.0018098,26.8777331 33.9036078,26.880021 33.8053972,26.8825009 C33.7863435,26.8829853 33.7673326,26.8854652 33.7482789,26.8866927 C33.7101973,26.8891559 33.6721156,26.892496 33.6339998,26.8934729 C33.549444,26.8956439 33.4651271,26.8994348 33.3807163,26.9062986 C33.2911369,26.9135798 33.2010715,26.9147238 33.1115348,26.9252031 C33.0710138,26.9299376 33.03022,26.9322004 32.9895967,26.9377615 C32.9221841,26.94698 32.8541403,26.9518397 32.7864973,26.9595719 C32.7622581,26.9623524 32.738326,26.9679303 32.7143426,26.9726981 C32.6865127,26.9995268 32.6838091,27.0071254 32.6807301,27.0145402 C32.5996541,27.2103488 32.5038487,27.3991433 32.3974674,27.582861 C32.0315252,28.2148842 31.6543845,28.8404529 31.2674868,29.460402 C31.1777113,29.6042733 31.0769164,29.7403957 30.9668506,29.8700385 C30.8287929,30.0326139 30.6790334,30.1842591 30.5206598,30.3277796 C30.2360665,30.5856875 29.9381169,30.8280225 29.6293101,31.057607 C29.3053729,31.2984306 28.9711498,31.524984 28.6312805,31.7435214 C28.2458924,31.9913257 27.8592249,32.2372011 27.4728986,32.4836026 C27.4340664,32.5083688 27.394424,32.5320579 27.3540224,32.5543024 C27.1986254,32.6398987 27.0349979,32.7049289 26.8604193,32.742788 C26.7615263,32.7642393 26.6614309,32.7758208 26.5604825,32.7800793 C26.528934,32.7814153 26.503134,32.7897236 26.4787839,32.8101729 C26.4009745,32.8754535 26.3105593,32.9181222 26.2131419,32.9479737 C26.1531494,32.9663605 26.092142,32.9802132 26.0306058,32.9920619 C25.9556962,33.0064908 25.8804455,33.019283 25.8057918,33.0348559 C25.7124768,33.0543198 25.6189059,33.0733245 25.5267253,33.0972725 C25.4309028,33.1221472 25.3339288,33.1329355 25.2353771,33.1338791 C25.0771143,33.1353904 24.91886,33.1369101 24.7605973,33.1375364 C24.542035,33.1384048 24.3242488,33.1234415 24.1071194,33.101055 C23.9062972,33.0803469 23.7071041,33.0481742 23.5101029,33.0043198 C23.3930775,32.978276 23.2769647,32.9486834 23.1644596,32.907 C22.9884652,32.8417861 22.8131701,32.7748939 22.6398538,32.7030835 C22.2952339,32.5602978 21.9603882,32.3986576 21.6402123,32.2085187 C21.5468717,32.1530828 21.4546825,32.0959852 21.3663996,32.0330008 C21.2713703,31.9652151 21.1808357,31.8922691 21.1003226,31.8081257 C21.0142231,31.718154 20.9201661,31.6369915 20.8191154,31.5636698 C20.7423977,31.5080084 20.6655179,31.4524722 20.5870347,31.3992658 C20.404763,31.2756767 20.236999,31.1353709 20.0783354,30.9840848 C19.8727967,30.7881093 19.6811773,30.5797756 19.4986156,30.363284 C19.3022285,30.1304096 19.1171508,29.8890015 18.9337362,29.6463074 C18.6768108,29.306352 18.44763,28.9495462 18.2498271,28.573502 C18.2425178,28.5595657 18.2346115,28.5458633 18.2275495,28.533071 C18.1113258,28.5351836 18.0461136,28.540536 17.9813023,28.5488025 C17.8840043,28.5612107 17.7868086,28.5740781 17.6889051,28.5811005 Z M25.5121408,31.1395961 C25.6352047,31.1137694 25.7539615,31.0745492 25.8707822,31.0294256 C26.0990845,30.9412491 26.3270201,30.8521792 26.5553651,30.7641279 C26.8703896,30.6426348 27.1776783,30.5049258 27.4750906,30.3463 C28.130496,29.9967254 28.7118533,29.5553003 29.208271,29.0082972 C29.3080254,28.8983855 29.4044961,28.7859355 29.4917299,28.6661207 C29.612636,28.5000633 29.7129959,28.323368 29.7869758,28.1322104 C29.8178591,28.0524174 29.8533565,27.9741274 29.8907473,27.8970147 C29.9468932,27.7812497 30.0065019,27.6670962 30.0647289,27.5522998 C30.1047466,27.4733835 30.1451225,27.3946259 30.1848844,27.315576 C30.1955882,27.2943001 30.1845518,27.2787022 30.1596047,27.2803639 C30.1352119,27.2819922 30.1108618,27.2852236 30.0866653,27.2888809 C30.0113293,27.3002454 29.9366073,27.3141816 29.8596935,27.3154424 C29.7889375,27.3166031 29.7182924,27.3250116 29.6476131,27.3303723 C29.5447799,27.3422461 29.4662625,27.3508633 29.3877964,27.3597895 C29.322823,27.3671877 29.2579094,27.3749866 29.1929531,27.3825267 C29.1659164,27.3856663 29.1388797,27.3888059 29.1118003,27.3915197 C29.0900942,27.3936991 29.0679957,27.3935237 29.0466564,27.3974482 C29.0061951,27.4048881 28.9653927,27.4057816 28.9245477,27.4082615 C28.8374674,27.4135471 28.7501567,27.4177806 28.663571,27.4277839 C28.5499828,27.4409102 28.4369233,27.4581197 28.3246741,27.4807566 C28.2447154,27.4968722 28.1635456,27.5075436 28.0826487,27.5187827 C28.0044299,27.5296545 27.9259211,27.5385389 27.8474465,27.5475236 C27.7851938,27.5546545 27.7228303,27.5608336 27.6604753,27.5670627 C27.5899923,27.5741101 27.5192278,27.5789782 27.4490176,27.5879963 C27.3517111,27.6004963 27.2542169,27.6101155 27.1564157,27.6181733 C27.0830755,27.6242187 27.0097096,27.6301723 26.9364376,27.6367522 C26.887601,27.6411276 26.8389775,27.6478494 26.789885,27.6499536 C26.7762899,27.6505297 26.7627801,27.6529262 26.7492191,27.6543791 C26.7167324,27.6578444 26.6842372,27.6612679 26.651742,27.664658 C26.62462,27.667497 26.5975151,27.6703527 26.5703845,27.6730665 C26.5486955,27.6752375 26.5270235,27.6786109 26.5052918,27.6790535 C26.3879849,27.6814166 26.270661,27.6830365 26.1533456,27.6849069 C26.1287993,27.6852993 26.1040995,27.684122 26.0797153,27.686318 C25.9738628,27.6958454 25.8680956,27.7063247 25.7622942,27.7165118 C25.6757683,27.7270496 25.6054899,27.7358088 25.535041,27.7430399 C25.4591591,27.7508388 25.3829019,27.7554648 25.3071907,27.7645747 C25.2152232,27.7756385 25.1231535,27.7852911 25.0309472,27.7943008 C24.971313,27.8001291 24.9117725,27.8071098 24.8521127,27.8130133 C24.8087772,27.8173052 24.765382,27.8218727 24.7221147,27.8268743 C24.6625487,27.8337548 24.6028974,27.8394913 24.5432461,27.8454866 C24.4727971,27.8525758 24.4027917,27.8642408 24.3322575,27.870186 C24.2425928,27.8777345 24.1526553,27.8829699 24.0627348,27.8865688 C23.9673729,27.8903764 23.8716357,27.8869195 23.7770413,27.9031687 C23.713842,27.9019913 23.6515637,27.9129383 23.5905222,27.9251961 C23.4643282,27.9505385 23.3362066,27.9561581 23.2087248,27.9659276 C23.1107871,27.9734343 23.0133952,27.9829534 22.916174,27.9962216 C22.8568212,28.0043211 22.797204,28.0120616 22.7374333,28.0153933 C22.6502591,28.020253 22.5641169,28.0360931 22.4766613,28.0371786 C22.4658381,28.0373205 22.4550831,28.0403182 22.4442343,28.0414204 C22.4198501,28.0439004 22.3954489,28.0463553 22.3710135,28.048209 C22.2786025,28.055223 22.1861575,28.0618613 22.0937551,28.0689839 C22.0801941,28.070036 22.0668293,28.0732675 22.0532939,28.0749291 C22.0370718,28.0769081 22.0207816,28.0783777 22.0044913,28.0799058 C21.9285327,28.0870033 21.8523097,28.0921219 21.7766581,28.1015992 C21.6901748,28.1124292 21.6039302,28.1247872 21.5169011,28.1310331 C21.5060437,28.131818 21.4952717,28.1338554 21.4844314,28.1350328 C21.4519533,28.1385815 21.4194751,28.1420635 21.3869799,28.1454202 C21.3679945,28.1473825 21.3489579,28.1489356 21.3299726,28.1509396 C21.2974773,28.1543715 21.2650162,28.1580622 21.2325296,28.1615525 C21.2135527,28.1635899 21.1945417,28.1653017 21.1755734,28.1674309 C21.102489,28.1756223 21.0294814,28.1844901 20.9563288,28.1920469 C20.8831506,28.1996037 20.8096141,28.2041461 20.7366492,28.2132309 C20.6474366,28.2243365 20.5578573,28.2323191 20.4687214,28.2435666 C20.4119188,28.250731 20.354937,28.2558329 20.2981599,28.2628135 C20.2359926,28.2704538 20.1740726,28.2800396 20.1118882,28.287563 C20.0091487,28.2999712 19.9062728,28.311344 19.8034821,28.3233764 C19.7665092,28.3324946 19.7576477,28.3502719 19.7643258,28.3604088 C19.7731874,28.3738524 19.7821342,28.387296 19.7918657,28.40013 C19.8976159,28.5395173 20.0027094,28.6793889 20.1096365,28.8179078 C20.2100476,28.9479764 20.3166336,29.0731603 20.4298636,29.1928081 C20.6029326,29.3756908 20.7907482,29.5422408 21.0026835,29.6812273 C21.0733286,29.7275617 21.1386175,29.7793904 21.1998552,29.8368805 C21.237229,29.8719674 21.2754471,29.9066368 21.316386,29.9375653 C21.4633479,30.0486209 21.6146852,30.1536478 21.7750802,30.2455901 C21.8504077,30.2887766 21.925957,30.3315956 22.0018218,30.3738719 C22.2127848,30.4914238 22.4286264,30.6005923 22.6336874,30.7283062 C22.7030787,30.7715177 22.7787986,30.8016447 22.8578191,30.8244153 C22.980755,30.8598278 23.1031281,30.8971191 23.2259447,30.9329408 C23.4559613,31.0000418 23.6868138,31.0640198 23.9229542,31.1077907 C24.1082111,31.1421345 24.294534,31.1673266 24.4835095,31.1670594 C24.5981297,31.166884 24.7127159,31.1640951 24.8145257,31.1626672 C24.9310394,31.1584922 25.0345976,31.1609304 25.1381473,31.1685039 C25.2642134,31.1777224 25.3887528,31.1654895 25.5121408,31.1395961 Z M23.7361451,19.1320977 C23.4786056,19.2122665 23.2265161,19.3068725 22.9798936,19.4145463 C22.6461737,19.5602463 22.3144411,19.7102966 21.9820261,19.8588689 C21.9597998,19.8688055 21.9382727,19.8807794 21.9177692,19.8938306 C21.5877423,20.1038843 21.2759844,20.3373015 20.9832119,20.5950005 C20.6354193,20.9011299 20.3174268,21.234781 20.0237417,21.5908102 C19.8365317,21.8177561 19.6682475,22.0574191 19.5221981,22.311845 C19.5088333,22.3351165 19.4957414,22.3585551 19.4833403,22.3823193 C19.4720565,22.4039376 19.4827347,22.4178571 19.5085006,22.4161454 C19.6375177,22.3959383 19.7419459,22.3768668 19.8465788,22.3589058 C19.9565679,22.3400264 20.066719,22.3220738 20.1768274,22.3038707 C20.2574173,22.290544 20.3380583,22.277568 20.4186481,22.2642747 C20.4965513,22.251424 20.5742328,22.2371705 20.6523407,22.2256725 C20.7789271,22.2070435 20.9058034,22.1902182 21.0325347,22.1725078 C21.0756911,22.1664707 21.1187963,22.1602081 21.161893,22.1537786 C21.2534425,22.1401179 21.3449323,22.1260398 21.4365245,22.1125711 C21.5254215,22.0995033 21.6144464,22.0872454 21.7033434,22.0741609 C21.7949271,22.0606756 21.8862975,22.0458459 21.9779749,22.033037 C22.072356,22.0198439 22.1670186,22.0085964 22.2614935,21.9960713 C22.3073877,21.9899841 22.3531539,21.9830202 22.3989542,21.9763067 C22.4528144,21.968416 22.5065893,21.959924 22.5605177,21.9524924 C22.6333377,21.942464 22.7062174,21.9328615 22.7791653,21.9237349 C22.8386119,21.916295 22.8981694,21.9097736 22.9576928,21.9029433 C23.0172247,21.8961129 23.0768249,21.8897502 23.1363142,21.8825608 C23.1849717,21.876674 23.2335525,21.8701276 23.2820991,21.8633891 C23.3360275,21.8559074 23.389828,21.8474739 23.443782,21.840176 C23.5004482,21.8325106 23.5573532,21.8264986 23.6139426,21.8183406 C23.7055604,21.8051308 23.7969564,21.7905015 23.8885315,21.7769745 C23.9316281,21.7706117 23.9748527,21.765059 24.0180944,21.7597817 C24.0775666,21.7525172 24.137235,21.7467557 24.1965878,21.7387563 C24.2883761,21.7263982 24.3803777,21.7166537 24.4726351,21.7081701 C24.5377705,21.7021748 24.6027268,21.6946848 24.6681266,21.6916621 C24.7840518,21.6751123 24.8756184,21.6615435 24.9672105,21.6481416 C25.0076206,21.6422298 25.0479624,21.6356166 25.0885431,21.6311743 C25.145414,21.6249536 25.2018584,21.6158938 25.2587975,21.60984 C25.3426881,21.6009221 25.4261436,21.587871 25.5102985,21.5806065 C25.5238595,21.5794375 25.5372841,21.5767905 25.5508024,21.5750537 C25.6129271,21.5670877 25.6750348,21.5590299 25.7372021,21.5513646 C25.7831475,21.5456949 25.8291099,21.5401254 25.8751575,21.5353242 C25.9456065,21.5279845 26.0163028,21.522724 26.0865811,21.5140566 C26.1812181,21.5023916 26.2759489,21.4924634 26.3709867,21.4842803 C26.4388344,21.4784353 26.5064091,21.4693254 26.5745637,21.4664196 C26.6314005,21.4600485 26.6639298,21.4568922 26.6964762,21.4540365 C26.7154957,21.4523665 26.7349502,21.4531848 26.7535347,21.4495776 C26.8047254,21.439641 26.8565301,21.4388978 26.9082921,21.436493 C26.9246336,21.4357332 26.9411541,21.4351737 26.9571885,21.4323598 C27.0057693,21.4238093 27.0548021,21.4228407 27.1039202,21.4216467 C27.1502919,21.4205278 27.1968513,21.4203774 27.2429246,21.4158684 C27.3272928,21.4076019 27.4118315,21.4072094 27.4963788,21.4063744 C27.5730112,21.4056146 27.6486031,21.3939329 27.72405,21.3837208 C27.8103371,21.3720307 27.895507,21.3529007 27.9788005,21.3267567 C28.0046602,21.3186405 28.0310658,21.3119688 28.0588786,21.3117601 C28.1298307,21.311234 28.2001603,21.3046625 28.2707542,21.2963125 C28.3682228,21.2847894 28.4647362,21.2680893 28.5616589,21.2537189 C28.64514,21.2413441 28.7283141,21.2270322 28.8118379,21.2149663 C28.8872763,21.2040779 28.9629705,21.1948511 29.0386136,21.185332 C29.0899577,21.1788691 29.1412507,21.1700682 29.1928166,21.1678303 C29.2746517,21.1642732 29.3550794,21.1466463 29.4372301,21.1471306 C29.4561558,21.1472475 29.4750815,21.1426383 29.4940498,21.1405841 C29.5157133,21.1382378 29.5374109,21.1361586 29.5591085,21.1342214 C29.6350927,21.1274328 29.7111025,21.1208697 29.7870696,21.1138723 C29.8156501,21.1061486 29.8208015,21.1031676 29.824034,21.0992848 C29.8270362,21.0956859 29.8295608,21.0899161 29.8289467,21.085549 C29.8265842,21.068707 29.8133558,21.0579437 29.8030614,21.0458111 C29.6737458,20.8934395 29.5327882,20.7519897 29.3803336,20.6219127 C29.2733979,20.5306802 29.1646114,20.4414098 29.0541789,20.3542771 C28.9161126,20.2453341 28.7751635,20.1398897 28.6361505,20.0320823 C28.5846102,19.9921022 28.5296584,19.9578504 28.4722928,19.9266212 C28.391268,19.8824996 28.3110278,19.8369918 28.2307621,19.7915342 C28.1668207,19.7553284 28.107485,19.7129352 28.0521834,19.6647638 C28.0175815,19.6346201 27.9813592,19.6060546 27.9441731,19.5790088 C27.8731356,19.5273471 27.7947036,19.4908574 27.7064889,19.4777311 C27.6734052,19.4728046 27.6441083,19.4594946 27.6146409,19.4453497 C27.5167288,19.3983472 27.4188935,19.3511611 27.3204099,19.305311 C27.2463532,19.2708254 27.1690556,19.2449987 27.0892504,19.2259188 C26.6680664,19.1252423 26.2449121,19.0331831 25.82076,18.9454158 C25.7778084,18.9365313 25.7349164,18.9299097 25.6911203,18.9298429 C25.5738135,18.9296676 25.4564981,18.9283399 25.3395153,18.940531 C25.2742605,18.9473363 25.2092274,18.9451068 25.1436655,18.9376669 C25.0597835,18.9281395 24.9751169,18.9250333 24.9188345,18.9211171 C24.7650152,18.925242 24.6397168,18.9332414 24.5156379,18.9523463 C24.2512582,18.9930528 23.9912965,19.0526721 23.7361451,19.1320977 Z M23.7361451,19.1320977" id="Oval-1" sketch:type="MSShapeGroup"></path>
        </g>
    </g>
</svg>