<?xml version="1.0" encoding="UTF-8" standalone="no"?>
<svg width="50px" height="50px" viewBox="0 0 50 50" version="1.1" xmlns="http://www.w3.org/2000/svg" xmlns:xlink="http://www.w3.org/1999/xlink" xmlns:sketch="http://www.bohemiancoding.com/sketch/ns">
    <title>Picasa</title>
    <description>Created with Sketch (http://www.bohemiancoding.com/sketch)</description>
    <defs></defs>
    <g id="Page-1" stroke="none" stroke-width="1" fill="none" fill-rule="evenodd" sketch:type="MSPage">
        <g id="Picasa" sketch:type="MSArtboardGroup" fill="#000000">
            <path d="M25,50 C38.8071194,50 50,38.8071194 50,25 C50,11.1928806 38.8071194,0 25,0 C11.1928806,0 0,11.1928806 0,25 C0,38.8071194 11.1928806,50 25,50 Z M25,47 C37.1502651,47 47,37.1502651 47,25 C47,12.8497349 37.1502651,3 25,3 C12.8497349,3 3,12.8497349 3,25 C3,37.1502651 12.8497349,47 25,47 Z M18.3081608,24.9268242 L18.3081608,36.1026094 C15.8801013,34.6339648 13.9785429,32.4174648 12.9377792,29.8090352 L18.3081608,24.9268242 Z M20.4591064,12.8520586 C21.9243514,12.297832 23.4480966,12 24.9979941,12 C26.8609587,12 28.6590247,12.3973125 30.3579148,13.1656836 L30.3579148,21.8322148 L20.4591064,12.8520586 Z M12.4719619,28.3769023 C12.1682386,27.2530625 12,26.1186602 12,25 C12,20.096918 14.7097944,15.6850937 19.0744513,13.4426953 L23.9947578,17.9067734 L12.4719619,28.3769023 Z M36.6723724,30.6506328 C34.5083252,35.1147617 29.9554726,38 24.9979941,38 C23.1521937,38 21.3633699,37.6133008 19.6735189,36.8500586 L19.6735189,30.6506328 L36.6723724,30.6506328 Z M37.257729,29.2811133 L31.727437,29.2811133 L31.727437,13.9131836 C35.5955539,16.2654219 38.0001016,20.483668 38,25.0000508 C38,26.4583867 37.7438081,27.8959531 37.257729,29.2811133 Z M37.257729,29.2811133" id="Oval-1" sketch:type="MSShapeGroup"></path>
        </g>
    </g>
</svg>