<?xml version="1.0" encoding="UTF-8" standalone="no"?>
<svg width="50px" height="50px" viewBox="0 0 50 50" version="1.1" xmlns="http://www.w3.org/2000/svg" xmlns:xlink="http://www.w3.org/1999/xlink" xmlns:sketch="http://www.bohemiancoding.com/sketch/ns">
    <title>Pinterest</title>
    <description>Created with Sketch (http://www.bohemiancoding.com/sketch)</description>
    <defs></defs>
    <g id="Page-1" stroke="none" stroke-width="1" fill="none" fill-rule="evenodd" sketch:type="MSPage">
        <g id="Pinterest" sketch:type="MSArtboardGroup" fill="#000000">
            <path d="M25,0 C11.1928806,0 0,11.1928806 0,25 C0,38.8071194 11.1928806,50 25,50 C38.8071194,50 50,38.8071194 50,25 C50,11.1928806 38.8071194,0 25,0 Z M25,3 C12.8497349,3 3,12.8497349 3,25 C3,37.1502651 12.8497349,47 25,47 C37.1502651,47 47,37.1502651 47,25 C47,12.8497349 37.1502651,3 25,3 Z M15.5,21.3293651 C15.5,23.8979841 16.4179886,26.1831362 18.3868965,27.0346983 C18.7097504,27.1745243 18.9989411,27.0395084 19.0925718,26.6608336 C19.1577063,26.3987635 19.3117743,25.737617 19.3805099,25.4622774 C19.4749236,25.0877494 19.4382854,24.9563826 19.1777477,24.629956 C18.6100133,23.9205421 18.2472332,23.0021355 18.2472332,21.7012393 C18.2472332,17.9270976 20.9127352,14.5483833 25.1881227,14.5483833 C28.9739058,14.5483833 31.0538241,16.9989049 31.0538241,20.2716301 C31.0538241,24.5777078 29.2549547,28.2120235 26.5844424,28.2120235 C25.1096795,28.2120235 24.005682,26.9199182 24.3595374,25.3352232 C24.7832244,23.4433422 25.6039811,21.4015173 25.6039811,20.0359328 C25.6039811,18.8134918 24.9845775,17.7939063 23.7027128,17.7939063 C22.1950696,17.7939063 20.983976,19.4461092 20.983976,21.6594407 C20.983976,23.0691459 21.4336542,24.0225504 21.4336542,24.0225504 C21.4336542,24.0225504 19.890782,30.9476708 19.6203801,32.1604915 C19.0817683,34.5758493 19.5394317,37.5367443 19.5781053,37.8358028 C19.6008084,38.0129489 19.8157834,38.0550792 19.9131719,37.9212244 C20.0522089,37.7289843 21.8477903,35.3806369 22.4582691,33.0341139 C22.6309694,32.36965 23.4498471,28.9290673 23.4498471,28.9290673 C23.9396081,29.9187967 25.3711567,30.7905945 26.8935179,30.7905945 C31.4253723,30.7905945 34.5,26.4138574 34.5,20.5554288 C34.5,16.1256142 30.9581579,12 25.575015,12 C18.8771271,12 15.5,17.0871462 15.5,21.3293651 Z M15.5,21.3293651" id="Oval-1" sketch:type="MSShapeGroup"></path>
        </g>
    </g>
</svg>