<?xml version="1.0" encoding="UTF-8" standalone="no"?>
<svg width="50px" height="50px" viewBox="0 0 50 50" version="1.1" xmlns="http://www.w3.org/2000/svg" xmlns:xlink="http://www.w3.org/1999/xlink" xmlns:sketch="http://www.bohemiancoding.com/sketch/ns">
    <title>Reddit</title>
    <description>Created with Sketch (http://www.bohemiancoding.com/sketch)</description>
    <defs></defs>
    <g id="Page-1" stroke="none" stroke-width="1" fill="none" fill-rule="evenodd" sketch:type="MSPage">
        <g id="Reddit" sketch:type="MSArtboardGroup" fill="#000000">
            <path d="M50,25 C50,11.1928806 38.8071194,0 25,0 C11.1928806,0 0,11.1928806 0,25 C0,38.8071194 11.1928806,50 25,50 C38.8071194,50 50,38.8071194 50,25 Z M47,25 C47,12.8497349 37.1502651,3 25,3 C12.8497349,3 3,12.8497349 3,25 C3,37.1502651 12.8497349,47 25,47 C37.1502651,47 47,37.1502651 47,25 Z M29.285672,25.1142857 C28.1613122,25.1142857 27.25,26.0886553 27.25,27.2907328 C27.25,28.4931237 28.1613122,29.4676812 29.285672,29.4676812 C30.4097389,29.4676812 31.3211097,28.4931237 31.3211097,27.2907328 C31.3211097,26.0886553 30.4097389,25.1142857 29.285672,25.1142857 L29.285672,25.1142857 Z M40,25.1842541 C40,23.1661499 38.4647792,21.5245722 36.5778773,21.5245722 C35.7246903,21.5245722 34.9441013,21.8609333 34.344099,22.4154154 C32.0204962,20.8025988 29.01275,19.8611259 25.7938312,19.7275339 L27.4944043,13.7975395 L32.4418455,14.9819468 C32.4417283,14.9962334 32.4399119,15.0100187 32.4399119,15.0243053 C32.4399119,16.6918871 33.7087059,18.0486732 35.2680089,18.0486732 C36.8273118,18.0486732 38.0961058,16.6919498 38.0961058,15.0243053 C38.0961058,13.3566608 36.827429,12 35.2680089,12 C34.0961293,12 33.0888402,12.7662743 32.6602252,13.8548112 L27.2437392,12.5581164 C26.969285,12.4923856 26.6939519,12.6634486 26.6115688,12.9510599 L24.6717565,19.7148765 C21.2781691,19.773088 18.0911839,20.7250878 15.6557838,22.4155407 C15.0558987,21.8611213 14.2751339,21.5246975 13.4220056,21.5246975 C11.5351037,21.5246975 10,23.1663379 10,25.1843795 C10,26.5078929 10.6604127,27.6694291 11.6472525,28.3122624 C11.5968617,28.6558922 11.5703186,29.0034695 11.5703186,29.3544932 C11.5703186,31.9771452 12.997375,34.4258518 15.5885179,36.2485809 C18.110227,38.0226854 21.4524861,39 24.9999414,39 C28.5471037,39 31.8895972,38.0224974 34.4113063,36.2485809 C37.0025078,34.4256639 38.429447,31.9771452 38.429447,29.3544932 C38.429447,29.0034695 38.4030211,28.6560801 38.3525131,28.3122624 C39.3394701,27.6693665 40,26.5077049 40,25.1842541 L40,25.1842541 Z M35.2678917,13.1509466 C36.2337548,13.1509466 37.0196173,13.9912229 37.0196173,15.0242426 C37.0196173,16.0570117 36.2337548,16.8975386 35.2678917,16.8975386 C34.3021457,16.8975386 33.5161661,16.0570117 33.5161661,15.0242426 C33.5161075,13.9912856 34.3019699,13.1509466 35.2678917,13.1509466 L35.2678917,13.1509466 Z M11.076137,25.1842541 C11.076137,23.8009626 12.1284263,22.6755815 13.4218884,22.6755815 C13.9116754,22.6755815 14.3665405,22.8374333 14.7430654,23.1128259 C13.3654038,24.2769312 12.4090914,25.6430537 11.9283278,27.1170775 C11.4083063,26.6566487 11.076137,25.9612434 11.076137,25.1842541 L11.076137,25.1842541 Z M24.9999414,37.8488654 C18.1882742,37.8488654 12.6466314,34.0382971 12.6466314,29.3543679 C12.6466314,29.15304 12.6575885,28.9535918 12.6776862,28.7556476 C12.7167684,28.3727297 12.7922961,27.9965165 12.9030387,27.6288878 C13.3168294,26.2557474 14.2139618,25.0028522 15.4665839,23.9584283 C15.7443779,23.7265221 16.0403361,23.5054561 16.3517045,23.295293 C18.5818499,21.7901897 21.6355923,20.8602464 24.9999414,20.8602464 C28.3641147,20.8602464 31.4179743,21.790315 33.6479439,23.295293 C33.9593123,23.5054561 34.2553877,23.7265847 34.5331232,23.9584283 C35.7858039,25.0027895 36.6829949,26.2557474 37.0967269,27.6288878 C37.2075282,27.9965165 37.2830558,28.3727297 37.3220794,28.7556476 C37.3423529,28.9534039 37.3530756,29.15304 37.3530756,29.3543679 C37.3530756,34.0383598 31.8114915,37.8488654 24.9999414,37.8488654 L24.9999414,37.8488654 Z M38.071555,27.1172028 C37.5909086,25.6432417 36.6344204,24.2769312 35.2567588,23.1128886 C35.6332837,22.837496 36.0880902,22.6756441 36.5778773,22.6756441 C37.8713979,22.6756441 38.9236872,23.8009626 38.9236872,25.1843168 C38.9236872,25.9612434 38.5916937,26.6566487 38.071555,27.1172028 L38.071555,27.1172028 Z M29.1000551,33.0352917 C28.0801683,33.929456 26.815593,34.3281642 24.9999414,34.3281642 C23.1841726,34.3281642 21.9196559,33.929456 20.8995934,33.0352917 C20.6583619,32.8238128 20.3022277,32.8616597 20.1045317,33.1195073 C19.9066598,33.3776056 19.9419334,33.7583304 20.183282,33.9699346 C21.4026227,35.0389841 22.9330974,35.5366958 24.9999414,35.5366958 C27.0667854,35.5366958 28.5972016,35.0389841 29.8166008,33.9699346 C30.0578323,33.7583304 30.093223,33.3776056 29.8953512,33.1195073 C29.6971863,32.8611584 29.3412865,32.8238128 29.1000551,33.0352917 L29.1000551,33.0352917 Z M22.3208167,27.2907328 C22.3208167,26.0886553 21.4096217,25.1142857 20.2855548,25.1142857 C19.1613122,25.1142857 18.25,26.0886553 18.25,27.2907328 C18.25,28.4931237 19.1613707,29.4676812 20.2855548,29.4676812 C21.4096217,29.4675559 22.3208167,28.4931237 22.3208167,27.2907328 L22.3208167,27.2907328 Z M22.3208167,27.2907328" id="Oval-1" sketch:type="MSShapeGroup"></path>
        </g>
    </g>
</svg>