<?xml version="1.0" encoding="UTF-8" standalone="no"?>
<svg width="50px" height="50px" viewBox="0 0 50 50" version="1.1" xmlns="http://www.w3.org/2000/svg" xmlns:xlink="http://www.w3.org/1999/xlink" xmlns:sketch="http://www.bohemiancoding.com/sketch/ns">
    <title>RSS</title>
    <description>Created with Sketch (http://www.bohemiancoding.com/sketch)</description>
    <defs></defs>
    <g id="Page-1" stroke="none" stroke-width="1" fill="none" fill-rule="evenodd" sketch:type="MSPage">
        <g id="RSS" sketch:type="MSArtboardGroup" fill="#000000">
            <path d="M50,25 C50,11.1928806 38.8071194,0 25,0 C11.1928806,0 0,11.1928806 0,25 C0,38.8071194 11.1928806,50 25,50 C38.8071194,50 50,38.8071194 50,25 Z M47,25 C47,12.8497349 37.1502651,3 25,3 C12.8497349,3 3,12.8497349 3,25 C3,37.1502651 12.8497349,47 25,47 C37.1502651,47 47,37.1502651 47,25 Z M15.9310647,31.9383671 C15.9310647,33.4789156 17.124854,34.722384 18.5941945,34.722384 C20.0692323,34.722384 21.2608163,33.4789799 21.2608775,31.9383671 C21.2608775,30.4059173 20.0692936,29.1484369 18.5941945,29.1484369 C17.124854,29.1484369 15.9310647,30.4059173 15.9310647,31.9383671 Z M15.9310647,24.8801766 C18.4283003,24.8801766 20.7764883,25.9045951 22.5442915,27.7604778 C24.3102568,29.6124397 25.2845487,32.0872928 25.2845487,34.7164707 L29.1366284,34.7164064 C29.1366284,27.0736971 23.2104415,20.8569335 15.9310647,20.8569335 L15.9310647,24.8801766 Z M15.9310647,17.7475554 C24.8358746,17.7475554 32.0848048,25.3602482 32.0848048,34.7142853 L35.9310647,34.7144139 C35.9310647,23.1426889 26.9580715,13.722384 15.9310647,13.722384 L15.9310647,17.7475554 Z M15.9310647,17.7475554" id="Oval-1" sketch:type="MSShapeGroup"></path>
        </g>
    </g>
</svg>