<?xml version="1.0" encoding="UTF-8" standalone="no"?>
<svg width="50px" height="50px" viewBox="0 0 50 50" version="1.1" xmlns="http://www.w3.org/2000/svg" xmlns:xlink="http://www.w3.org/1999/xlink" xmlns:sketch="http://www.bohemiancoding.com/sketch/ns">
    <title>Safari</title>
    <description>Created with Sketch (http://www.bohemiancoding.com/sketch)</description>
    <defs></defs>
    <g id="Page-1" stroke="none" stroke-width="1" fill="none" fill-rule="evenodd" sketch:type="MSPage">
        <g id="Safari" sketch:type="MSArtboardGroup" fill="#000000">
            <path d="M0,25 C0,38.8071194 11.1928806,50 25,50 C38.8071194,50 50,38.8071194 50,25 C50,11.1928806 38.8071194,0 25,0 C11.1928806,0 0,11.1928806 0,25 Z M3,25 C3,37.1502651 12.8497349,47 25,47 C37.1502651,47 47,37.1502651 47,25 C47,12.8497349 37.1502651,3 25,3 C12.8497349,3 3,12.8497349 3,25 Z M23.7027027,13.3046218 C23.7027027,12.5841303 23.1460541,12 22.4594595,12 C21.7728649,12 21.2162162,12.5841303 21.2162162,13.3046218 C21.2162162,13.7082605 21.391027,14.0689034 21.6654054,14.3082731 C16.6604324,15.8244706 13,20.6672269 13,26.407563 C13,33.3622185 18.3725405,39 25,39 C31.6274595,39 37,33.3622185 37,26.407563 C37,19.4529076 31.6274595,13.8151261 25,13.8151261 C24.5134054,13.8151261 24.0337297,13.8463235 23.5622703,13.9054286 C23.6514595,13.7255042 23.7027027,13.5215294 23.7027027,13.3046218 Z M22.4594595,14.0456471 C22.0415135,14.0456471 21.7027027,13.7088277 21.7027027,13.2932773 C21.7027027,12.8777269 22.0415135,12.541021 22.4594595,12.541021 C22.8774054,12.541021 23.2162162,12.8778403 23.2162162,13.2932773 C23.2162162,13.7087143 22.8774054,14.0456471 22.4594595,14.0456471 Z M25,16.197479 C30.3735135,16.197479 34.7297297,20.7686471 34.7297297,26.407563 C34.7297297,32.0463655 30.3735135,36.6176471 25,36.6176471 C19.6263784,36.6176471 15.2702703,32.0463655 15.2702703,26.407563 C15.2702703,20.7686471 19.6263784,16.197479 25,16.197479 Z M27.3688958,25.0063381 L30.4433822,20.3425986 L26.3097606,24.0003045 C26.0684633,23.875628 25.8058687,23.7894095 25.5292201,23.7486826 L24.3428417,20.890086 L24.0573282,23.9822666 C23.8005714,24.1097793 23.5673822,24.2802877 23.3653282,24.4848297 L22.1837066,23.9510692 L22.9423012,25.0405986 C22.764139,25.3507582 22.6438147,25.7013045 22.5954903,26.0759011 L19.8999228,27.307691 L22.8183012,27.6044641 C22.8613282,27.700212 22.9096525,27.7927835 22.9626255,27.8819515 L19.8880309,32.545691 L24.0141931,28.8840145 C24.2940849,29.0297919 24.6024093,29.1239515 24.9283552,29.1550356 L26.0966795,31.9699557 L26.3850039,28.8475986 C26.6044633,28.7248507 26.8050039,28.5697708 26.9812201,28.388712 L28.1847876,28.9322288 L27.407166,27.8152456 C27.5917066,27.4836448 27.7115985,27.1076868 27.748139,26.7059767 L30.4586255,25.4671532 L27.4572201,25.1619851 C27.4301931,25.1136574 27.4003552,25.0594305 27.3688958,25.0063381 Z M26.0349498,24.2434179 L24.4183012,25.6738507 L23.1663012,27.5729263 C22.9937606,27.2369011 22.8954903,26.8526616 22.8954903,26.4441448 C22.8954903,25.1284053 23.9119228,24.0617919 25.1657606,24.0617919 C25.4737606,24.0617919 25.7670579,24.1267961 26.0349498,24.2434179 Z M25.9378687,27.1768885 L27.165112,25.3153633 C27.3377606,25.6513885 27.4360309,26.0357414 27.4360309,26.4441448 C27.4360309,27.7598843 26.4195985,28.8264977 25.1657606,28.8264977 C24.8544093,28.8264977 24.5577606,28.7604725 24.2875985,28.6413549 L25.9378687,27.1768885 Z M25.9378687,27.1768885" id="Oval-1" sketch:type="MSShapeGroup"></path>
        </g>
    </g>
</svg>