<?xml version="1.0" encoding="UTF-8" standalone="no"?>
<svg width="50px" height="50px" viewBox="0 0 50 50" version="1.1" xmlns="http://www.w3.org/2000/svg" xmlns:xlink="http://www.w3.org/1999/xlink" xmlns:sketch="http://www.bohemiancoding.com/sketch/ns">
    <title>SoundCloud</title>
    <description>Created with Sketch (http://www.bohemiancoding.com/sketch)</description>
    <defs></defs>
    <g id="Page-1" stroke="none" stroke-width="1" fill="none" fill-rule="evenodd" sketch:type="MSPage">
        <g id="SoundCloud" sketch:type="MSArtboardGroup" fill="#000000">
            <path d="M25,0 C11.1928806,0 0,11.1928806 0,25 C0,38.8071194 11.1928806,50 25,50 C38.8071194,50 50,38.8071194 50,25 C50,11.1928806 38.8071194,0 25,0 Z M25,3 C12.8497349,3 3,12.8497349 3,25 C3,37.1502651 12.8497349,47 25,47 C37.1502651,47 47,37.1502651 47,25 C47,12.8497349 37.1502651,3 25,3 Z M11.2046957,26.4994198 L11,28.2899843 L11.2046957,30.0498224 C11.2122973,30.1238678 11.258563,30.1755611 11.3170241,30.1755611 C11.3736257,30.1755611 11.4197274,30.1243715 11.4286961,30.0505779 L11.6713997,28.2899843 L11.4286961,26.4989161 C11.4200555,26.4251226 11.3733523,26.3731145 11.3170241,26.3731145 C11.2586177,26.3731145 11.2122426,26.4251226 11.2046957,26.4994198 Z M12.8503005,25.3946571 C12.8503005,25.3952867 12.5750031,28.2897324 12.5750031,28.2897324 L12.8503005,31.1207736 C12.8580661,31.1967079 12.9071756,31.2514864 12.9668398,31.2514864 C13.0253555,31.2514864 13.0733712,31.1979672 13.0829963,31.1215921 L13.3961375,28.2897324 L13.0833791,25.3946571 C13.0737541,25.3177153 13.0258477,25.2645739 12.9668398,25.2645739 C12.9075037,25.2645739 12.8583943,25.3194783 12.8503005,25.3946571 Z M14.396866,24.761745 L14.1500608,28.2908658 L14.396866,31.7053294 C14.4034832,31.8110456 14.4745771,31.8908837 14.5613116,31.8908837 C14.6470618,31.8908837 14.7178823,31.8109197 14.7254838,31.7053294 L15.0061953,28.2908658 L14.7254838,24.7609894 C14.7179369,24.6552103 14.6471712,24.5753722 14.5613116,24.5753722 C14.4745771,24.5753722 14.403866,24.6552732 14.396866,24.761745 Z M15.9578691,25.0172521 L15.7251733,28.2909287 L15.9578691,31.7335372 C15.9645956,31.8549944 16.0449317,31.9468586 16.1461038,31.9468586 C16.2457993,31.9468586 16.3264635,31.8549314 16.3339557,31.733852 L16.5983703,28.2909287 L16.3339557,25.0157409 C16.3268463,24.8947875 16.2460727,24.8036159 16.1461038,24.8036159 C16.044877,24.8036159 15.9642128,24.8955431 15.9578691,25.0172521 Z M17.5195284,22.9658916 L17.3001764,28.292251 L17.5195284,31.7345446 C17.5252159,31.8690983 17.6326223,31.9751293 17.7456069,31.9751293 C17.85799,31.9751293 17.972123,31.8685946 17.972123,31.7337261 L18.205475,28.292251 L17.950412,22.9658916 C17.9436307,22.8306454 17.8434977,22.7241106 17.7311147,22.7241106 C17.6182395,22.7241106 17.5248877,22.8305824 17.5195284,22.9658916 Z M19.0799298,21.7485496 C19.0799298,21.7489903 18.8752888,28.2933213 18.8752888,28.2933213 L19.0803673,31.7138925 C19.085508,31.8633686 19.1890863,31.9816775 19.3161256,31.9816775 C19.4420165,31.9816775 19.5458683,31.8633686 19.5518839,31.7126332 L19.7832125,28.2933213 L19.5518839,21.7485496 C19.5455948,21.5974994 19.4419618,21.4795682 19.3160709,21.4795682 C19.1890863,21.4795682 19.085508,21.5977513 19.0799298,21.7485496 Z M20.6267141,20.9640207 L20.4502919,28.2940139 L20.6269329,31.6585473 C20.6312532,31.8388756 20.7830113,31.9814257 20.9374491,31.9814257 C21.0916135,31.9814257 21.2481294,31.8388756 21.2481294,31.657477 L21.4195204,28.2942028 L21.2073871,20.9639577 C21.2024652,20.7820553 21.064215,20.6391905 20.9103787,20.6391905 C20.7556128,20.6391905 20.6309251,20.7816146 20.6267141,20.9640207 Z M22.1736078,21.4133933 L22.025459,28.2954621 L22.1736078,31.6071059 C22.1771625,31.8179717 22.3266784,31.9846998 22.5091162,31.9846998 C22.6910072,31.9846998 22.8440778,31.8182235 22.8440778,31.6048392 L23.0066094,28.2958399 L22.8385544,21.4128896 C22.8341794,21.1998201 22.6872885,21.032966 22.5053975,21.032966 C22.3232331,21.032966 22.1771625,21.1997571 22.1736078,21.4133933 Z M23.7558296,19.3647403 L23.6005168,28.2972251 L23.7562671,31.5388532 C23.7590015,31.7759119 23.947455,31.9709107 24.1542288,31.9709107 C24.3605652,31.9709107 24.5521358,31.7757859 24.5521358,31.5353272 L24.7023627,28.2972251 L24.5239717,19.3640477 C24.5209639,19.1245334 24.341862,18.9290938 24.1355257,18.9290938 C23.9286971,18.9290938 23.7589468,19.1245334 23.7558296,19.3647403 Z M34.2236391,24.3767843 C33.9495448,20.8031482 31.3466882,18 28.1717992,18 C27.3948523,18 26.641093,18.1759838 25.9723183,18.4738655 C25.7124428,18.589593 25.6441927,18.7089094 25.6441927,18.9399865 L25.6441927,31.5248122 C25.6441927,31.7674747 25.8069977,31.9696515 26.0125684,31.9933888 C26.0213184,31.9945221 35.4956182,32 35.5570323,32 C37.4589032,32 39,30.2245469 39,28.0346031 C39,25.8446593 37.4574267,24.0688914 35.5556651,24.0688914 C35.0838752,24.0688914 34.6335774,24.1788262 34.2236391,24.3767843 Z M34.2236391,24.3767843" id="Oval-1" sketch:type="MSShapeGroup"></path>
        </g>
    </g>
</svg>