<?xml version="1.0" encoding="UTF-8" standalone="no"?>
<svg width="50px" height="50px" viewBox="0 0 50 50" version="1.1" xmlns="http://www.w3.org/2000/svg" xmlns:xlink="http://www.w3.org/1999/xlink" xmlns:sketch="http://www.bohemiancoding.com/sketch/ns">
    <title>Treehouse</title>
    <description>Created with Sketch (http://www.bohemiancoding.com/sketch)</description>
    <defs></defs>
    <g id="Page-1" stroke="none" stroke-width="1" fill="none" fill-rule="evenodd" sketch:type="MSPage">
        <g id="Treehouse" sketch:type="MSArtboardGroup" fill="#000000">
            <path d="M0,25 C0,38.8071194 11.1928806,50 25,50 C38.8071194,50 50,38.8071194 50,25 C50,11.1928806 38.8071194,0 25,0 C11.1928806,0 0,11.1928806 0,25 Z M3,25 C3,37.1502651 12.8497349,47 25,47 C37.1502651,47 47,37.1502651 47,25 C47,12.8497349 37.1502651,3 25,3 C12.8497349,3 3,12.8497349 3,25 Z M31.0918456,18.7417237 L29.5749974,21.4754954 C29.020691,22.611746 29.096695,23.965724 29.7983659,25.0089411 L29.8425693,25.0748195 C30.5455334,26.122055 31.4884422,27.0840504 31.7999824,27.4310994 C31.9832033,27.6320225 32.1232788,27.8816542 32.1996943,28.1692786 C32.4558039,29.1181227 31.9210716,30.1024632 31.0050258,30.3679861 C30.08898,30.6333872 29.138606,30.0795092 28.8823789,29.1305434 C28.8179547,28.8923582 28.8036121,28.652042 28.8325324,28.4213458 C28.8817911,28.0293022 28.7602904,27.3907321 28.2176226,26.7638521 C27.6749548,26.136972 26.5657541,27.320957 26.2071302,28.5386118 C25.8319299,29.8110029 25.6055636,30.8735816 25.6732795,30.9758698 C25.7136034,31.0367556 25.7496951,31.1037299 25.7849638,31.1674773 C26.2881894,32.1477385 25.9260386,33.3657586 24.9817778,33.8890719 C24.0349307,34.410376 22.8594836,34.0378768 22.3561404,33.0572503 C21.8529148,32.0765021 22.212538,30.8589691 23.1593264,30.337665 C23.2018252,30.3142239 23.2447942,30.2926704 23.2881159,30.2728825 C23.3604168,30.2399433 23.5655631,29.7280765 23.7435524,29.1234806 C23.9217182,28.518763 24.066026,28.0287542 24.066026,28.0287542 C24.0850711,27.964398 24.1015886,27.9007723 24.1166365,27.8376946 L25.0747697,24.2940202 L24.0499199,26.472818 C23.928478,26.05916 23.7276815,26.0444256 23.2878808,26.3702863 C23.0226014,26.5668865 22.584035,26.9539375 22.3698364,27.1130929 C21.9675381,27.4112506 21.6310159,27.9903353 21.4528502,28.3451168 C21.3480433,28.553955 21.201208,28.7444058 21.0135197,28.9019782 C20.2798131,29.5186294 19.2024717,29.4023984 18.6071948,28.6424221 C18.0119179,27.8825675 18.1241311,26.7666528 18.8577202,26.1500625 C19.0727417,25.9692926 19.3174477,25.8515395 19.5707946,25.7944286 C20.0018369,25.6974375 21.4677218,24.7699035 22.3509089,24.1153204 C22.5090303,23.9981762 22.6416994,23.8873032 22.7496216,23.784528 L25.1078047,21.9294599 L23.0540493,23.0789226 C23.0540493,23.0789226 22.8450822,23.0570037 22.5889139,23.0850112 C21.8372202,23.1714081 21.063131,23.2811243 20.9168834,23.4739496 C20.8303575,23.587806 20.7273729,23.69119 20.6081059,23.7800224 C19.9227175,24.291463 18.9667005,24.130481 18.4729386,23.420431 C17.9790592,22.7103201 18.134653,21.7200128 18.8200414,21.2086939 C19.1028964,20.9977856 19.4316008,20.9012816 19.7547209,20.9105971 C20.3045012,20.9288629 21.7532807,21.2272032 22.9582948,21.0080144 L23.2691296,20.9509644 C24.4793752,20.7288531 25.9282723,19.637658 26.5056209,18.5137064 C26.5056209,18.5137064 27.0709195,17.4851629 27.7681818,16.2164249 C28.4655028,14.9476869 28.4139517,13.557908 27.6532646,13.1124676 L26.275669,12.3057309 C25.5806404,11.8987095 24.442872,11.8979788 23.7473144,12.3042088 L14.2646181,17.842258 C13.5691193,18.2484271 13,19.2574263 13,20.0844379 L13,30.9115135 C13,31.7395602 13.5701774,32.7502642 14.2637952,33.1538152 L23.7520169,38.6942389 C24.4475745,39.1021737 25.5859895,39.1021737 26.2803715,38.6927168 L35.7360872,33.1553373 C36.4312334,32.7483158 37,31.738586 37,30.9115135 L37,20.0844379 C37,19.2574263 36.4312334,18.2476356 35.7360872,17.8406141 C35.7369689,17.8425624 35.0362974,17.4285391 34.1722141,16.9246483 C33.3090126,16.4188092 31.9295949,17.2323042 31.0918456,18.7417237 Z M31.0918456,18.7417237" id="Oval-1" sketch:type="MSShapeGroup"></path>
        </g>
    </g>
</svg>