<?xml version="1.0" encoding="UTF-8" standalone="no"?>
<svg width="50px" height="50px" viewBox="0 0 50 50" version="1.1" xmlns="http://www.w3.org/2000/svg" xmlns:xlink="http://www.w3.org/1999/xlink" xmlns:sketch="http://www.bohemiancoding.com/sketch/ns">
    <title>Tumblr</title>
    <description>Created with Sketch (http://www.bohemiancoding.com/sketch)</description>
    <defs></defs>
    <g id="Page-1" stroke="none" stroke-width="1" fill="none" fill-rule="evenodd" sketch:type="MSPage">
        <g id="Tumblr" sketch:type="MSArtboardGroup" fill="#000000">
            <path d="M25,50 C38.8071194,50 50,38.8071194 50,25 C50,11.1928806 38.8071194,0 25,0 C11.1928806,0 0,11.1928806 0,25 C0,38.8071194 11.1928806,50 25,50 Z M25,47 C37.1502651,47 47,37.1502651 47,25 C47,12.8497349 37.1502651,3 25,3 C12.8497349,3 3,12.8497349 3,25 C3,37.1502651 12.8497349,47 25,47 Z M20.1212122,23.428572 L20.1212122,29.5776397 C20.2888032,34.6055735 23.1493975,35.6536697 26.4848488,36 C28.4239345,35.9068215 30.7994507,35.2128501 32,34.291925 L32,30.807453 C30.4550907,32.2576564 26.3092334,33.6801939 25.5656572,29.5776397 L25.4949496,23.3602485 L32,23.428572 L32,19.2608705 L25.4949496,19.2608705 L25.6363634,14 L23.0202023,14.0683235 C23.2002807,18.5559785 20.7320276,19.156712 18,19.3291926 L18,23.428572 L20.1212122,23.428572 Z M20.1212122,23.428572" id="Oval-1" sketch:type="MSShapeGroup"></path>
        </g>
    </g>
</svg>