<?xml version="1.0" encoding="UTF-8" standalone="no"?>
<svg width="50px" height="50px" viewBox="0 0 50 50" version="1.1" xmlns="http://www.w3.org/2000/svg" xmlns:xlink="http://www.w3.org/1999/xlink" xmlns:sketch="http://www.bohemiancoding.com/sketch/ns">
    <title>Vimeo</title>
    <description>Created with Sketch (http://www.bohemiancoding.com/sketch)</description>
    <defs></defs>
    <g id="Page-1" stroke="none" stroke-width="1" fill="none" fill-rule="evenodd" sketch:type="MSPage">
        <g id="Vimeo" sketch:type="MSArtboardGroup" fill="#000000">
            <path d="M50,25 C50,11.1928806 38.8071194,0 25,0 C11.1928806,0 0,11.1928806 0,25 C0,38.8071194 11.1928806,50 25,50 C38.8071194,50 50,38.8071194 50,25 Z M47,25 C47,12.8497349 37.1502651,3 25,3 C12.8497349,3 3,12.8497349 3,25 C3,37.1502651 12.8497349,47 25,47 C37.1502651,47 47,37.1502651 47,25 Z M17.315812,20.9060694 C17.9328006,21.6627251 20.2884417,30.7991385 21.0747632,32.4845455 C21.7610734,33.9625783 23.6542105,35.9166045 25.7302773,34.5211721 C27.8051355,33.1256949 34.7049271,27.0158598 35.9400265,19.8005667 C37.1740468,12.5875569 27.6369679,14.0985404 26.6267538,20.382799 C29.1516416,18.8105703 30.4993563,21.0216204 29.2073234,23.5249731 C27.9176213,26.0259082 26.7391965,27.657054 26.1221216,27.657054 C25.5062553,27.657054 25.0324423,25.9834215 24.3267945,23.0582023 C23.5973201,20.0339521 23.6018092,14.5864425 20.5690087,15.204043 C17.7089081,15.7862753 13.95,20.4417609 13.95,20.4417609 L14.8476851,21.6627251 C14.8476851,21.6627251 16.6987803,20.1493241 17.315812,20.9060694 Z M17.315812,20.9060694" id="Oval-1" sketch:type="MSShapeGroup"></path>
        </g>
    </g>
</svg>