<?xml version="1.0" encoding="UTF-8" standalone="no"?>
<svg width="50px" height="50px" viewBox="0 0 50 50" version="1.1" xmlns="http://www.w3.org/2000/svg" xmlns:xlink="http://www.w3.org/1999/xlink" xmlns:sketch="http://www.bohemiancoding.com/sketch/ns">
    <title>Windows</title>
    <description>Created with Sketch (http://www.bohemiancoding.com/sketch)</description>
    <defs></defs>
    <g id="Page-1" stroke="none" stroke-width="1" fill="none" fill-rule="evenodd" sketch:type="MSPage">
        <g id="Windows" sketch:type="MSArtboardGroup" fill="#000000">
            <path d="M25,50 C38.8071194,50 50,38.8071194 50,25 C50,11.1928806 38.8071194,0 25,0 C11.1928806,0 0,11.1928806 0,25 C0,38.8071194 11.1928806,50 25,50 Z M25,47 C37.1502651,47 47,37.1502651 47,25 C47,12.8497349 37.1502651,3 25,3 C12.8497349,3 3,12.8497349 3,25 C3,37.1502651 12.8497349,47 25,47 Z M22.0116913,15.7870353 L22.0116913,24.4929537 L13.0006105,24.4929537 L13,17.0270295 L22.0116913,15.7870353 Z M22.0116913,34.2145878 L13.0011209,32.9763167 L13.0006105,25.6075239 L22.0116913,25.6075239 L22.0116913,34.2145878 Z M34.99999,14 L34.99999,24.4929537 L23.0085502,24.4929537 L23.0085502,15.6501498 L34.99999,14 Z M35,36 L23.0085502,34.3514732 L23.0085502,25.6071231 L35,25.6071231 L35,36 Z M35,36" id="Oval-1" sketch:type="MSShapeGroup"></path>
        </g>
    </g>
</svg>