<?xml version="1.0" encoding="UTF-8" standalone="no"?>
<svg width="50px" height="50px" viewBox="0 0 50 50" version="1.1" xmlns="http://www.w3.org/2000/svg" xmlns:xlink="http://www.w3.org/1999/xlink" xmlns:sketch="http://www.bohemiancoding.com/sketch/ns">
    <title>WordPress</title>
    <description>Created with Sketch (http://www.bohemiancoding.com/sketch)</description>
    <defs></defs>
    <g id="Page-1" stroke="none" stroke-width="1" fill="none" fill-rule="evenodd" sketch:type="MSPage">
        <g id="WordPress" sketch:type="MSArtboardGroup" fill="#000000">
            <path d="M0,25 C0,38.8071194 11.1928806,50 25,50 C38.8071194,50 50,38.8071194 50,25 C50,11.1928806 38.8071194,0 25,0 C11.1928806,0 0,11.1928806 0,25 Z M3,25 C3,37.1502651 12.8497349,47 25,47 C37.1502651,47 47,37.1502651 47,25 C47,12.8497349 37.1502651,3 25,3 C12.8497349,3 3,12.8497349 3,25 Z M13.8138364,17.5198699 C15.3278753,17.5038215 16.9532724,17.4859678 18.5724759,17.3971874 C18.6422495,17.3934065 18.6996894,17.4588945 18.6996894,17.5344309 L18.6996894,18.3579909 C18.6996894,18.4335521 18.642462,18.4952592 18.5724759,18.4952592 L17.0291856,18.4952592 C16.8566299,18.4952592 16.7839737,18.6027959 16.8445086,18.786893 L21.6848768,33.5053715 L24.6301097,24.3263791 L22.6720064,18.799339 C22.6009803,18.5988756 22.5166283,18.4952418 22.2153474,18.4952418 L20.8609428,18.4952418 C20.7909327,18.4952418 20.7337058,18.4334611 20.7337058,18.3579736 L20.7337058,17.5344136 C20.7337058,17.4589261 20.7910984,17.3939994 20.8609428,17.3971701 C23.3813282,17.5130968 25.9172756,17.5123162 28.4682267,17.3971701 C28.5381186,17.3940477 28.5954637,17.4588771 28.5954637,17.5344136 L28.5954637,18.3579736 C28.5954637,18.4335348 28.5382368,18.4952418 28.4682267,18.4952418 L27.1211921,18.4952418 C26.8541953,18.4952418 26.7681894,18.6226562 26.8419558,18.8469243 L31.6066869,33.3351303 L33.3561773,27.8381861 C35.4714063,21.1924135 31.5464388,20.489144 31.6440223,17.1850041 C31.6922445,15.5507141 32.852878,14.8372729 34.0157081,14.869078 C31.6425279,12.6173519 28.4768173,11.2420116 25.0000654,11.24205 C20.3123999,11.24205 16.1897533,13.7418223 13.8138364,17.5198699 Z M35.5541192,24.9185956 C36.1976739,23.0375232 36.7954191,20.4957728 36.7223566,18.4489749 C37.7464916,20.3967996 38.3280447,22.6284597 38.3280447,24.9999374 C38.3280447,30.2041501 35.5268243,34.7339502 31.3966517,37.0714291 L35.5541192,24.9185956 Z M25.2299662,26.019654 L29.4624766,37.9662521 C28.0671957,38.4782994 26.5653039,38.7579067 25.000018,38.7579067 C23.651801,38.7579067 22.350726,38.5503214 21.1240518,38.1658587 L25.2299662,26.019654 Z M19.2971477,37.4369291 C14.7899538,35.2304025 11.6719973,30.4905757 11.6719973,24.999969 C11.6719973,22.9647498 12.1008934,21.0327536 12.8695822,19.2945344 L19.2971477,37.4369291 Z M10.421473,24.999969 C10.421473,16.6902133 16.9499241,9.951167 25,9.951167 C33.0500759,9.951167 39.578527,16.6902133 39.578527,24.999969 C39.578527,33.3097248 33.0500759,40.048771 25,40.048771 C16.9499241,40.048771 10.421473,33.3097248 10.421473,24.999969 Z M10.421473,24.999969" id="Oval-1" sketch:type="MSShapeGroup"></path>
        </g>
    </g>
</svg>