<?xml version="1.0" encoding="UTF-8" standalone="no"?>
<svg width="50px" height="50px" viewBox="0 0 50 50" version="1.1" xmlns="http://www.w3.org/2000/svg" xmlns:xlink="http://www.w3.org/1999/xlink" xmlns:sketch="http://www.bohemiancoding.com/sketch/ns">
    <title>Yahoo!</title>
    <description>Created with Sketch (http://www.bohemiancoding.com/sketch)</description>
    <defs></defs>
    <g id="Page-1" stroke="none" stroke-width="1" fill="none" fill-rule="evenodd" sketch:type="MSPage">
        <g id="Yahoo!" sketch:type="MSArtboardGroup" fill="#000000">
            <path d="M0,25 C0,38.8071194 11.1928806,50 25,50 C38.8071194,50 50,38.8071194 50,25 C50,11.1928806 38.8071194,0 25,0 C11.1928806,0 0,11.1928806 0,25 Z M3,25 C3,37.1502651 12.8497349,47 25,47 C37.1502651,47 47,37.1502651 47,25 C47,12.8497349 37.1502651,3 25,3 C12.8497349,3 3,12.8497349 3,25 Z M26.4400859,18.4389017 L26.8616172,20.2755764 L29.8488672,20.2755764 L24.8223203,25.1577905 C23.7968203,23.6336387 21.3928125,20.4563033 19.7157656,17.8366747 L23.4597266,17.8366747 L23.4597266,16 L11,16 L11,17.8366747 L14.7004844,17.8366747 C16.1360312,19.0410698 21.6298281,26.4292305 21.8577109,27.1643709 C21.948875,27.8529915 22.0332578,31.9249634 21.7643047,32.2313111 C21.2242656,32.8464177 18.7610859,32.6845104 18.16625,32.7309713 L17.9612812,33.9915312 C19.0458437,34.0259358 22.5777266,33.8966687 23.676125,33.8966687 C25.8385234,33.8966687 29.6279297,33.8870824 30.1634297,33.9311909 L30.2295469,32.607997 C29.6825625,32.5099587 26.6999062,32.5959407 26.2874531,32.49802 C26.1962891,31.8558602 26.0959375,27.5749909 26.1872109,27.133789 C26.5996094,25.8547036 32.8682734,20.6355011 33.5541641,20.437072 C33.7089844,20.4027262 33.9391641,20.3359755 34.2011719,20.2758116 L36.2200156,20.2758116 L37.3844766,18.4389017 L26.4400859,18.4389017 Z M35.0898984,33.8480318 L35.9398516,33.926486 L36.8557578,34 L37.1246562,32.0616407 L36.1584922,32.0101809 L35.0807656,31.8680929 L35.0898984,33.8480318 Z M37.0473281,30.7115113 L39,22.5979142 C38.6742266,22.585799 35.7096719,22.2843915 35.3244531,22.2035261 L35.3701172,30.5669533 L37.0473281,30.7115113 Z M37.0473281,30.7115113" id="Oval-1" sketch:type="MSShapeGroup"></path>
        </g>
    </g>
</svg>